M48
; DRILL file {KiCad 9.0.1} date 2025-10-21T09:50:46-0500
; FORMAT={-:-/ absolute / metric / decimal}
; #@! TF.CreationDate,2025-10-21T09:50:46-05:00
; #@! TF.GenerationSoftware,Kicad,Pcbnew,9.0.1
; #@! TF.FileFunction,Plated,1,2,PTH
FMAT,2
METRIC
; #@! TA.AperFunction,Plated,PTH,ViaDrill
T1C0.300
; #@! TA.AperFunction,Plated,PTH,ComponentDrill
T2C0.600
; #@! TA.AperFunction,Plated,PTH,ComponentDrill
T3C0.900
; #@! TA.AperFunction,Plated,PTH,ComponentDrill
T4C1.000
; #@! TA.AperFunction,Plated,PTH,ComponentDrill
T5C2.100
%
G90
G05
T1
X129.9Y-137.5
X131.15Y-139.65
X133.75Y-112.351
X135.2Y-140.0
X135.4Y-110.995
X135.5Y-131.1
X135.675Y-125.755
X136.0Y-119.0
X136.0Y-134.4
X136.2Y-109.5
X136.286Y-131.864
X136.6Y-132.6
X136.8Y-122.0
X137.0Y-136.4
X137.58Y-125.975
X138.3Y-140.4
X138.562Y-123.738
X138.929Y-136.377
X139.1Y-138.2
X139.303Y-129.8
X139.338Y-126.2
X139.4Y-132.8
X140.2Y-121.5
X140.3Y-125.9
X140.7Y-111.3
X140.9Y-140.9
X141.0Y-132.9
X141.9Y-124.9
X141.9Y-126.4
X142.0Y-107.6
X142.0Y-108.4
X142.0Y-127.2
X143.0Y-112.1
X143.0Y-112.8
X143.0Y-127.95
X143.1Y-124.1
X145.0Y-140.6
X145.8Y-136.0
X146.1Y-132.5
X146.204Y-139.004
X146.255Y-139.843
X146.3Y-141.3
X146.5Y-127.6
X146.897Y-140.443
X147.0Y-126.6
X147.2Y-134.0
X147.418Y-138.034
X147.6Y-132.3
X148.3Y-138.2
X148.5Y-141.0
X148.8Y-138.9
X149.5Y-139.8
X150.0Y-143.4
X150.2Y-136.2
X150.574Y-141.226
X150.6Y-116.6
X151.0Y-131.7
X151.6Y-138.7
X151.675Y-134.924
X151.8Y-131.0
X151.842Y-134.142
X151.9Y-140.3
X153.2Y-136.9
X153.6Y-140.5
X153.9Y-132.1
X154.6Y-131.6
X155.6Y-130.6
X156.149Y-133.3
X157.5Y-128.7
X157.5Y-141.6
X157.9Y-135.2
X158.9Y-132.103
X159.7Y-136.5
X160.0Y-140.0
X160.7Y-137.6
X161.3Y-141.7
X161.7Y-139.3
X161.8Y-140.3
X162.6Y-132.2
X162.9Y-136.6
X163.1Y-134.9
X164.196Y-135.5
X165.2Y-141.4
X165.5Y-139.3
X166.034Y-132.766
X166.2Y-135.2
X167.9Y-141.9
X168.1Y-133.1
X168.1Y-136.3
X169.3Y-135.4
X169.4Y-128.0
X169.8Y-132.6
X170.274Y-127.374
X170.8Y-137.5
X170.8Y-139.0
X170.9Y-126.3
X170.9Y-135.0
X171.2Y-141.323
X171.6Y-133.2
X171.8Y-127.9
X172.4Y-125.4
X172.4Y-126.3
X172.4Y-133.2
X173.0Y-130.4
X173.2Y-133.2
X173.824Y-130.424
X173.9Y-137.9
X174.5Y-140.321
X174.5Y-133.4
X174.5Y-139.472
X174.624Y-130.391
X175.002Y-138.821
X175.4Y-125.0
X175.4Y-126.2
X175.5Y-133.1
X175.8Y-123.4
X175.8Y-128.2
X176.8Y-134.2
X176.9Y-126.3
X177.2Y-125.0
X177.4Y-128.1
X177.4Y-131.7
X177.8Y-140.0
X177.9Y-132.382
X178.4Y-136.0
X179.0Y-138.6
X179.908Y-142.999
X180.1Y-137.8
X180.8Y-143.15
X181.7Y-136.8
X181.7Y-143.3
X182.45Y-140.05
X182.6Y-143.2
X183.5Y-135.0
X183.5Y-135.8
X183.5Y-136.6
X183.5Y-137.4
X183.5Y-138.2
X183.5Y-139.0
X184.4Y-142.4
T3
X157.63Y-107.95
X160.17Y-107.95
X162.71Y-107.95
X165.25Y-107.95
T4
X132.0Y-142.2
X134.54Y-142.2
X137.08Y-142.2
X139.62Y-142.2
X140.2Y-114.9
X140.2Y-117.4
X142.16Y-142.2
X144.7Y-142.2
X179.0Y-113.2
X179.0Y-118.2
X181.5Y-113.2
X181.5Y-115.7
X181.5Y-118.2
T2
X131.8Y-119.7G85X131.1Y-119.7
G05
X131.8Y-130.7G85X131.1Y-130.7
G05
X135.65Y-120.9G85X135.65Y-121.5
G05
X135.65Y-128.9G85X135.65Y-129.5
G05
X136.55Y-120.9G85X135.55Y-120.9
G05
X136.55Y-129.5G85X135.55Y-129.5
G05
T5
X177.8Y-109.25G85X178.2Y-109.25
G05
X177.8Y-122.15G85X178.2Y-122.15
G05
M30
