%TF.GenerationSoftware,KiCad,Pcbnew,9.0.1*%
%TF.CreationDate,2025-10-21T09:50:46-05:00*%
%TF.ProjectId,STM32 Cyber Watch,53544d33-3220-4437-9962-657220576174,rev?*%
%TF.SameCoordinates,Original*%
%TF.FileFunction,Drillmap*%
%TF.FilePolarity,Positive*%
%FSLAX45Y45*%
G04 Gerber Fmt 4.5, Leading zero omitted, Abs format (unit mm)*
G04 Created by KiCad (PCBNEW 9.0.1) date 2025-10-21 09:50:46*
%MOMM*%
%LPD*%
G01*
G04 APERTURE LIST*
%ADD10C,0.050000*%
%ADD11C,0.200000*%
G04 APERTURE END LIST*
D10*
X16650000Y-15020000D02*
X17250000Y-14420000D01*
X16650000Y-10020000D02*
X14950000Y-10020000D01*
X16650000Y-10020000D02*
X17250000Y-10620000D01*
X16900000Y-10620000D02*
X14700000Y-10620000D01*
X18500000Y-10620000D02*
G75*
G02*
X18700000Y-10820000I0J-200000D01*
G01*
X13100000Y-14420000D02*
G75*
G02*
X12900000Y-14220000I0J200000D01*
G01*
X14350000Y-10620000D02*
X14950000Y-10020000D01*
X16650000Y-15020000D02*
X14950000Y-15020000D01*
X18700000Y-14220000D02*
X18700000Y-10820000D01*
X14700000Y-10620000D02*
X15000000Y-10320000D01*
X14350000Y-10620000D02*
X13100000Y-10620000D01*
X14700000Y-14420000D02*
X16900000Y-14420000D01*
X14350000Y-14420000D02*
X14950000Y-15020000D01*
X17250000Y-14420000D02*
X18500000Y-14420000D01*
X12900000Y-14220000D02*
X12900000Y-13170000D01*
X12900000Y-10820000D02*
X12900000Y-11870000D01*
X16900000Y-14420000D02*
X16600000Y-14720000D01*
X16600000Y-14720000D02*
X15000000Y-14720000D01*
X18700000Y-14220000D02*
G75*
G02*
X18500000Y-14420000I-200000J0D01*
G01*
X12900000Y-10820000D02*
G75*
G02*
X13100000Y-10620000I200000J0D01*
G01*
X14700000Y-14420000D02*
X15000000Y-14720000D01*
X16600000Y-10320000D02*
X15000000Y-10320000D01*
X13100000Y-14420000D02*
X14350000Y-14420000D01*
X18500000Y-10620000D02*
X17250000Y-10620000D01*
X16900000Y-10620000D02*
X16600000Y-10320000D01*
X13425000Y-12992500D02*
G75*
G02*
X13325000Y-12992500I-50000J0D01*
G01*
X13325000Y-12047500D02*
G75*
G02*
X13425000Y-12047500I50000J0D01*
G01*
X13425000Y-12047500D02*
X13425000Y-12992500D01*
X13325000Y-12992500D02*
X12900000Y-12992500D01*
X12900000Y-12992500D02*
X12900000Y-13170000D01*
X12900000Y-12047500D02*
X13325000Y-12047500D01*
X12900000Y-11870000D02*
X12900000Y-12047500D01*
D11*
X13158277Y-15333984D02*
X13158277Y-15133984D01*
X13158277Y-15133984D02*
X13205896Y-15133984D01*
X13205896Y-15133984D02*
X13234467Y-15143508D01*
X13234467Y-15143508D02*
X13253515Y-15162555D01*
X13253515Y-15162555D02*
X13263039Y-15181603D01*
X13263039Y-15181603D02*
X13272562Y-15219698D01*
X13272562Y-15219698D02*
X13272562Y-15248269D01*
X13272562Y-15248269D02*
X13263039Y-15286365D01*
X13263039Y-15286365D02*
X13253515Y-15305412D01*
X13253515Y-15305412D02*
X13234467Y-15324460D01*
X13234467Y-15324460D02*
X13205896Y-15333984D01*
X13205896Y-15333984D02*
X13158277Y-15333984D01*
X13358277Y-15333984D02*
X13358277Y-15200650D01*
X13358277Y-15238746D02*
X13367801Y-15219698D01*
X13367801Y-15219698D02*
X13377324Y-15210174D01*
X13377324Y-15210174D02*
X13396372Y-15200650D01*
X13396372Y-15200650D02*
X13415420Y-15200650D01*
X13482086Y-15333984D02*
X13482086Y-15200650D01*
X13482086Y-15133984D02*
X13472562Y-15143508D01*
X13472562Y-15143508D02*
X13482086Y-15153031D01*
X13482086Y-15153031D02*
X13491610Y-15143508D01*
X13491610Y-15143508D02*
X13482086Y-15133984D01*
X13482086Y-15133984D02*
X13482086Y-15153031D01*
X13605896Y-15333984D02*
X13586848Y-15324460D01*
X13586848Y-15324460D02*
X13577324Y-15305412D01*
X13577324Y-15305412D02*
X13577324Y-15133984D01*
X13710658Y-15333984D02*
X13691610Y-15324460D01*
X13691610Y-15324460D02*
X13682086Y-15305412D01*
X13682086Y-15305412D02*
X13682086Y-15133984D01*
X13939229Y-15333984D02*
X13939229Y-15133984D01*
X13939229Y-15133984D02*
X14005896Y-15276841D01*
X14005896Y-15276841D02*
X14072562Y-15133984D01*
X14072562Y-15133984D02*
X14072562Y-15333984D01*
X14253515Y-15333984D02*
X14253515Y-15229222D01*
X14253515Y-15229222D02*
X14243991Y-15210174D01*
X14243991Y-15210174D02*
X14224943Y-15200650D01*
X14224943Y-15200650D02*
X14186848Y-15200650D01*
X14186848Y-15200650D02*
X14167801Y-15210174D01*
X14253515Y-15324460D02*
X14234467Y-15333984D01*
X14234467Y-15333984D02*
X14186848Y-15333984D01*
X14186848Y-15333984D02*
X14167801Y-15324460D01*
X14167801Y-15324460D02*
X14158277Y-15305412D01*
X14158277Y-15305412D02*
X14158277Y-15286365D01*
X14158277Y-15286365D02*
X14167801Y-15267317D01*
X14167801Y-15267317D02*
X14186848Y-15257793D01*
X14186848Y-15257793D02*
X14234467Y-15257793D01*
X14234467Y-15257793D02*
X14253515Y-15248269D01*
X14348753Y-15200650D02*
X14348753Y-15400650D01*
X14348753Y-15210174D02*
X14367801Y-15200650D01*
X14367801Y-15200650D02*
X14405896Y-15200650D01*
X14405896Y-15200650D02*
X14424943Y-15210174D01*
X14424943Y-15210174D02*
X14434467Y-15219698D01*
X14434467Y-15219698D02*
X14443991Y-15238746D01*
X14443991Y-15238746D02*
X14443991Y-15295888D01*
X14443991Y-15295888D02*
X14434467Y-15314936D01*
X14434467Y-15314936D02*
X14424943Y-15324460D01*
X14424943Y-15324460D02*
X14405896Y-15333984D01*
X14405896Y-15333984D02*
X14367801Y-15333984D01*
X14367801Y-15333984D02*
X14348753Y-15324460D01*
X14529705Y-15314936D02*
X14539229Y-15324460D01*
X14539229Y-15324460D02*
X14529705Y-15333984D01*
X14529705Y-15333984D02*
X14520182Y-15324460D01*
X14520182Y-15324460D02*
X14529705Y-15314936D01*
X14529705Y-15314936D02*
X14529705Y-15333984D01*
X14529705Y-15210174D02*
X14539229Y-15219698D01*
X14539229Y-15219698D02*
X14529705Y-15229222D01*
X14529705Y-15229222D02*
X14520182Y-15219698D01*
X14520182Y-15219698D02*
X14529705Y-15210174D01*
X14529705Y-15210174D02*
X14529705Y-15229222D01*
M02*
