G04 #@! TF.GenerationSoftware,KiCad,Pcbnew,9.0.1*
G04 #@! TF.CreationDate,2025-10-21T09:50:54-05:00*
G04 #@! TF.ProjectId,STM32 Cyber Watch,53544d33-3220-4437-9962-657220576174,rev?*
G04 #@! TF.SameCoordinates,Original*
G04 #@! TF.FileFunction,Legend,Bot*
G04 #@! TF.FilePolarity,Positive*
%FSLAX46Y46*%
G04 Gerber Fmt 4.6, Leading zero omitted, Abs format (unit mm)*
G04 Created by KiCad (PCBNEW 9.0.1) date 2025-10-21 09:50:54*
%MOMM*%
%LPD*%
G01*
G04 APERTURE LIST*
G04 Aperture macros list*
%AMRoundRect*
0 Rectangle with rounded corners*
0 $1 Rounding radius*
0 $2 $3 $4 $5 $6 $7 $8 $9 X,Y pos of 4 corners*
0 Add a 4 corners polygon primitive as box body*
4,1,4,$2,$3,$4,$5,$6,$7,$8,$9,$2,$3,0*
0 Add four circle primitives for the rounded corners*
1,1,$1+$1,$2,$3*
1,1,$1+$1,$4,$5*
1,1,$1+$1,$6,$7*
1,1,$1+$1,$8,$9*
0 Add four rect primitives between the rounded corners*
20,1,$1+$1,$2,$3,$4,$5,0*
20,1,$1+$1,$4,$5,$6,$7,0*
20,1,$1+$1,$6,$7,$8,$9,0*
20,1,$1+$1,$8,$9,$2,$3,0*%
G04 Aperture macros list end*
%ADD10C,0.100000*%
%ADD11C,0.200000*%
%ADD12C,0.250000*%
%ADD13C,0.150000*%
%ADD14C,0.120000*%
%ADD15C,0.000000*%
%ADD16O,2.000000X1.100000*%
%ADD17O,1.100000X1.700000*%
%ADD18O,1.800000X1.100000*%
%ADD19O,2.000000X1.700000*%
%ADD20RoundRect,0.250000X-0.750000X0.600000X-0.750000X-0.600000X0.750000X-0.600000X0.750000X0.600000X0*%
%ADD21C,2.500000*%
%ADD22RoundRect,0.725000X-0.975000X-0.725000X0.975000X-0.725000X0.975000X0.725000X-0.975000X0.725000X0*%
%ADD23C,1.524000*%
%ADD24RoundRect,0.250000X0.512000X-0.512000X0.512000X0.512000X-0.512000X0.512000X-0.512000X-0.512000X0*%
%ADD25C,1.800000*%
%ADD26R,1.700000X1.700000*%
%ADD27C,1.700000*%
G04 APERTURE END LIST*
D10*
X183672419Y-108189598D02*
X184386704Y-108189598D01*
X184386704Y-108189598D02*
X184529561Y-108141979D01*
X184529561Y-108141979D02*
X184624800Y-108046741D01*
X184624800Y-108046741D02*
X184672419Y-107903884D01*
X184672419Y-107903884D02*
X184672419Y-107808646D01*
X184672419Y-109141979D02*
X184672419Y-108665789D01*
X184672419Y-108665789D02*
X183672419Y-108665789D01*
X184577180Y-110046741D02*
X184624800Y-109999122D01*
X184624800Y-109999122D02*
X184672419Y-109856265D01*
X184672419Y-109856265D02*
X184672419Y-109761027D01*
X184672419Y-109761027D02*
X184624800Y-109618170D01*
X184624800Y-109618170D02*
X184529561Y-109522932D01*
X184529561Y-109522932D02*
X184434323Y-109475313D01*
X184434323Y-109475313D02*
X184243847Y-109427694D01*
X184243847Y-109427694D02*
X184100990Y-109427694D01*
X184100990Y-109427694D02*
X183910514Y-109475313D01*
X183910514Y-109475313D02*
X183815276Y-109522932D01*
X183815276Y-109522932D02*
X183720038Y-109618170D01*
X183720038Y-109618170D02*
X183672419Y-109761027D01*
X183672419Y-109761027D02*
X183672419Y-109856265D01*
X183672419Y-109856265D02*
X183720038Y-109999122D01*
X183720038Y-109999122D02*
X183767657Y-110046741D01*
X183672419Y-110761027D02*
X184386704Y-110761027D01*
X184386704Y-110761027D02*
X184529561Y-110713408D01*
X184529561Y-110713408D02*
X184624800Y-110618170D01*
X184624800Y-110618170D02*
X184672419Y-110475313D01*
X184672419Y-110475313D02*
X184672419Y-110380075D01*
X184672419Y-111713408D02*
X184672419Y-111237218D01*
X184672419Y-111237218D02*
X183672419Y-111237218D01*
X184577180Y-112618170D02*
X184624800Y-112570551D01*
X184624800Y-112570551D02*
X184672419Y-112427694D01*
X184672419Y-112427694D02*
X184672419Y-112332456D01*
X184672419Y-112332456D02*
X184624800Y-112189599D01*
X184624800Y-112189599D02*
X184529561Y-112094361D01*
X184529561Y-112094361D02*
X184434323Y-112046742D01*
X184434323Y-112046742D02*
X184243847Y-111999123D01*
X184243847Y-111999123D02*
X184100990Y-111999123D01*
X184100990Y-111999123D02*
X183910514Y-112046742D01*
X183910514Y-112046742D02*
X183815276Y-112094361D01*
X183815276Y-112094361D02*
X183720038Y-112189599D01*
X183720038Y-112189599D02*
X183672419Y-112332456D01*
X183672419Y-112332456D02*
X183672419Y-112427694D01*
X183672419Y-112427694D02*
X183720038Y-112570551D01*
X183720038Y-112570551D02*
X183767657Y-112618170D01*
X183672419Y-113332456D02*
X184386704Y-113332456D01*
X184386704Y-113332456D02*
X184529561Y-113284837D01*
X184529561Y-113284837D02*
X184624800Y-113189599D01*
X184624800Y-113189599D02*
X184672419Y-113046742D01*
X184672419Y-113046742D02*
X184672419Y-112951504D01*
X184672419Y-114284837D02*
X184672419Y-113808647D01*
X184672419Y-113808647D02*
X183672419Y-113808647D01*
X184577180Y-115189599D02*
X184624800Y-115141980D01*
X184624800Y-115141980D02*
X184672419Y-114999123D01*
X184672419Y-114999123D02*
X184672419Y-114903885D01*
X184672419Y-114903885D02*
X184624800Y-114761028D01*
X184624800Y-114761028D02*
X184529561Y-114665790D01*
X184529561Y-114665790D02*
X184434323Y-114618171D01*
X184434323Y-114618171D02*
X184243847Y-114570552D01*
X184243847Y-114570552D02*
X184100990Y-114570552D01*
X184100990Y-114570552D02*
X183910514Y-114618171D01*
X183910514Y-114618171D02*
X183815276Y-114665790D01*
X183815276Y-114665790D02*
X183720038Y-114761028D01*
X183720038Y-114761028D02*
X183672419Y-114903885D01*
X183672419Y-114903885D02*
X183672419Y-114999123D01*
X183672419Y-114999123D02*
X183720038Y-115141980D01*
X183720038Y-115141980D02*
X183767657Y-115189599D01*
X183672419Y-115903885D02*
X184386704Y-115903885D01*
X184386704Y-115903885D02*
X184529561Y-115856266D01*
X184529561Y-115856266D02*
X184624800Y-115761028D01*
X184624800Y-115761028D02*
X184672419Y-115618171D01*
X184672419Y-115618171D02*
X184672419Y-115522933D01*
X184672419Y-116856266D02*
X184672419Y-116380076D01*
X184672419Y-116380076D02*
X183672419Y-116380076D01*
X184577180Y-117761028D02*
X184624800Y-117713409D01*
X184624800Y-117713409D02*
X184672419Y-117570552D01*
X184672419Y-117570552D02*
X184672419Y-117475314D01*
X184672419Y-117475314D02*
X184624800Y-117332457D01*
X184624800Y-117332457D02*
X184529561Y-117237219D01*
X184529561Y-117237219D02*
X184434323Y-117189600D01*
X184434323Y-117189600D02*
X184243847Y-117141981D01*
X184243847Y-117141981D02*
X184100990Y-117141981D01*
X184100990Y-117141981D02*
X183910514Y-117189600D01*
X183910514Y-117189600D02*
X183815276Y-117237219D01*
X183815276Y-117237219D02*
X183720038Y-117332457D01*
X183720038Y-117332457D02*
X183672419Y-117475314D01*
X183672419Y-117475314D02*
X183672419Y-117570552D01*
X183672419Y-117570552D02*
X183720038Y-117713409D01*
X183720038Y-117713409D02*
X183767657Y-117761028D01*
D11*
X131165118Y-135693482D02*
X131117499Y-135598244D01*
X131117499Y-135598244D02*
X131117499Y-135455387D01*
X131117499Y-135455387D02*
X131165118Y-135312530D01*
X131165118Y-135312530D02*
X131260356Y-135217292D01*
X131260356Y-135217292D02*
X131355594Y-135169673D01*
X131355594Y-135169673D02*
X131546070Y-135122054D01*
X131546070Y-135122054D02*
X131688927Y-135122054D01*
X131688927Y-135122054D02*
X131879403Y-135169673D01*
X131879403Y-135169673D02*
X131974641Y-135217292D01*
X131974641Y-135217292D02*
X132069880Y-135312530D01*
X132069880Y-135312530D02*
X132117499Y-135455387D01*
X132117499Y-135455387D02*
X132117499Y-135550625D01*
X132117499Y-135550625D02*
X132069880Y-135693482D01*
X132069880Y-135693482D02*
X132022260Y-135741101D01*
X132022260Y-135741101D02*
X131688927Y-135741101D01*
X131688927Y-135741101D02*
X131688927Y-135550625D01*
X132117499Y-136169673D02*
X131117499Y-136169673D01*
X131117499Y-136169673D02*
X132117499Y-136741101D01*
X132117499Y-136741101D02*
X131117499Y-136741101D01*
X132117499Y-137217292D02*
X131117499Y-137217292D01*
X131117499Y-137217292D02*
X131117499Y-137455387D01*
X131117499Y-137455387D02*
X131165118Y-137598244D01*
X131165118Y-137598244D02*
X131260356Y-137693482D01*
X131260356Y-137693482D02*
X131355594Y-137741101D01*
X131355594Y-137741101D02*
X131546070Y-137788720D01*
X131546070Y-137788720D02*
X131688927Y-137788720D01*
X131688927Y-137788720D02*
X131879403Y-137741101D01*
X131879403Y-137741101D02*
X131974641Y-137693482D01*
X131974641Y-137693482D02*
X132069880Y-137598244D01*
X132069880Y-137598244D02*
X132117499Y-137455387D01*
X132117499Y-137455387D02*
X132117499Y-137217292D01*
X133203633Y-135503006D02*
X133251252Y-135645863D01*
X133251252Y-135645863D02*
X133298871Y-135693482D01*
X133298871Y-135693482D02*
X133394109Y-135741101D01*
X133394109Y-135741101D02*
X133536966Y-135741101D01*
X133536966Y-135741101D02*
X133632204Y-135693482D01*
X133632204Y-135693482D02*
X133679824Y-135645863D01*
X133679824Y-135645863D02*
X133727443Y-135550625D01*
X133727443Y-135550625D02*
X133727443Y-135169673D01*
X133727443Y-135169673D02*
X132727443Y-135169673D01*
X132727443Y-135169673D02*
X132727443Y-135503006D01*
X132727443Y-135503006D02*
X132775062Y-135598244D01*
X132775062Y-135598244D02*
X132822681Y-135645863D01*
X132822681Y-135645863D02*
X132917919Y-135693482D01*
X132917919Y-135693482D02*
X133013157Y-135693482D01*
X133013157Y-135693482D02*
X133108395Y-135645863D01*
X133108395Y-135645863D02*
X133156014Y-135598244D01*
X133156014Y-135598244D02*
X133203633Y-135503006D01*
X133203633Y-135503006D02*
X133203633Y-135169673D01*
X132727443Y-136360149D02*
X132727443Y-136550625D01*
X132727443Y-136550625D02*
X132775062Y-136645863D01*
X132775062Y-136645863D02*
X132870300Y-136741101D01*
X132870300Y-136741101D02*
X133060776Y-136788720D01*
X133060776Y-136788720D02*
X133394109Y-136788720D01*
X133394109Y-136788720D02*
X133584585Y-136741101D01*
X133584585Y-136741101D02*
X133679824Y-136645863D01*
X133679824Y-136645863D02*
X133727443Y-136550625D01*
X133727443Y-136550625D02*
X133727443Y-136360149D01*
X133727443Y-136360149D02*
X133679824Y-136264911D01*
X133679824Y-136264911D02*
X133584585Y-136169673D01*
X133584585Y-136169673D02*
X133394109Y-136122054D01*
X133394109Y-136122054D02*
X133060776Y-136122054D01*
X133060776Y-136122054D02*
X132870300Y-136169673D01*
X132870300Y-136169673D02*
X132775062Y-136264911D01*
X132775062Y-136264911D02*
X132727443Y-136360149D01*
X132727443Y-137407768D02*
X132727443Y-137598244D01*
X132727443Y-137598244D02*
X132775062Y-137693482D01*
X132775062Y-137693482D02*
X132870300Y-137788720D01*
X132870300Y-137788720D02*
X133060776Y-137836339D01*
X133060776Y-137836339D02*
X133394109Y-137836339D01*
X133394109Y-137836339D02*
X133584585Y-137788720D01*
X133584585Y-137788720D02*
X133679824Y-137693482D01*
X133679824Y-137693482D02*
X133727443Y-137598244D01*
X133727443Y-137598244D02*
X133727443Y-137407768D01*
X133727443Y-137407768D02*
X133679824Y-137312530D01*
X133679824Y-137312530D02*
X133584585Y-137217292D01*
X133584585Y-137217292D02*
X133394109Y-137169673D01*
X133394109Y-137169673D02*
X133060776Y-137169673D01*
X133060776Y-137169673D02*
X132870300Y-137217292D01*
X132870300Y-137217292D02*
X132775062Y-137312530D01*
X132775062Y-137312530D02*
X132727443Y-137407768D01*
X132727443Y-138122054D02*
X132727443Y-138693482D01*
X133727443Y-138407768D02*
X132727443Y-138407768D01*
X132727443Y-139217292D02*
X132727443Y-139312530D01*
X132727443Y-139312530D02*
X132775062Y-139407768D01*
X132775062Y-139407768D02*
X132822681Y-139455387D01*
X132822681Y-139455387D02*
X132917919Y-139503006D01*
X132917919Y-139503006D02*
X133108395Y-139550625D01*
X133108395Y-139550625D02*
X133346490Y-139550625D01*
X133346490Y-139550625D02*
X133536966Y-139503006D01*
X133536966Y-139503006D02*
X133632204Y-139455387D01*
X133632204Y-139455387D02*
X133679824Y-139407768D01*
X133679824Y-139407768D02*
X133727443Y-139312530D01*
X133727443Y-139312530D02*
X133727443Y-139217292D01*
X133727443Y-139217292D02*
X133679824Y-139122054D01*
X133679824Y-139122054D02*
X133632204Y-139074435D01*
X133632204Y-139074435D02*
X133536966Y-139026816D01*
X133536966Y-139026816D02*
X133346490Y-138979197D01*
X133346490Y-138979197D02*
X133108395Y-138979197D01*
X133108395Y-138979197D02*
X132917919Y-139026816D01*
X132917919Y-139026816D02*
X132822681Y-139074435D01*
X132822681Y-139074435D02*
X132775062Y-139122054D01*
X132775062Y-139122054D02*
X132727443Y-139217292D01*
X135289768Y-135122054D02*
X135337387Y-135264911D01*
X135337387Y-135264911D02*
X135337387Y-135503006D01*
X135337387Y-135503006D02*
X135289768Y-135598244D01*
X135289768Y-135598244D02*
X135242148Y-135645863D01*
X135242148Y-135645863D02*
X135146910Y-135693482D01*
X135146910Y-135693482D02*
X135051672Y-135693482D01*
X135051672Y-135693482D02*
X134956434Y-135645863D01*
X134956434Y-135645863D02*
X134908815Y-135598244D01*
X134908815Y-135598244D02*
X134861196Y-135503006D01*
X134861196Y-135503006D02*
X134813577Y-135312530D01*
X134813577Y-135312530D02*
X134765958Y-135217292D01*
X134765958Y-135217292D02*
X134718339Y-135169673D01*
X134718339Y-135169673D02*
X134623101Y-135122054D01*
X134623101Y-135122054D02*
X134527863Y-135122054D01*
X134527863Y-135122054D02*
X134432625Y-135169673D01*
X134432625Y-135169673D02*
X134385006Y-135217292D01*
X134385006Y-135217292D02*
X134337387Y-135312530D01*
X134337387Y-135312530D02*
X134337387Y-135550625D01*
X134337387Y-135550625D02*
X134385006Y-135693482D01*
X134337387Y-136026816D02*
X135337387Y-136264911D01*
X135337387Y-136264911D02*
X134623101Y-136455387D01*
X134623101Y-136455387D02*
X135337387Y-136645863D01*
X135337387Y-136645863D02*
X134337387Y-136883959D01*
X135242148Y-137836339D02*
X135289768Y-137788720D01*
X135289768Y-137788720D02*
X135337387Y-137645863D01*
X135337387Y-137645863D02*
X135337387Y-137550625D01*
X135337387Y-137550625D02*
X135289768Y-137407768D01*
X135289768Y-137407768D02*
X135194529Y-137312530D01*
X135194529Y-137312530D02*
X135099291Y-137264911D01*
X135099291Y-137264911D02*
X134908815Y-137217292D01*
X134908815Y-137217292D02*
X134765958Y-137217292D01*
X134765958Y-137217292D02*
X134575482Y-137264911D01*
X134575482Y-137264911D02*
X134480244Y-137312530D01*
X134480244Y-137312530D02*
X134385006Y-137407768D01*
X134385006Y-137407768D02*
X134337387Y-137550625D01*
X134337387Y-137550625D02*
X134337387Y-137645863D01*
X134337387Y-137645863D02*
X134385006Y-137788720D01*
X134385006Y-137788720D02*
X134432625Y-137836339D01*
X135337387Y-138741101D02*
X135337387Y-138264911D01*
X135337387Y-138264911D02*
X134337387Y-138264911D01*
X135337387Y-139074435D02*
X134337387Y-139074435D01*
X135337387Y-139645863D02*
X134765958Y-139217292D01*
X134337387Y-139645863D02*
X134908815Y-139074435D01*
X136899712Y-135122054D02*
X136947331Y-135264911D01*
X136947331Y-135264911D02*
X136947331Y-135503006D01*
X136947331Y-135503006D02*
X136899712Y-135598244D01*
X136899712Y-135598244D02*
X136852092Y-135645863D01*
X136852092Y-135645863D02*
X136756854Y-135693482D01*
X136756854Y-135693482D02*
X136661616Y-135693482D01*
X136661616Y-135693482D02*
X136566378Y-135645863D01*
X136566378Y-135645863D02*
X136518759Y-135598244D01*
X136518759Y-135598244D02*
X136471140Y-135503006D01*
X136471140Y-135503006D02*
X136423521Y-135312530D01*
X136423521Y-135312530D02*
X136375902Y-135217292D01*
X136375902Y-135217292D02*
X136328283Y-135169673D01*
X136328283Y-135169673D02*
X136233045Y-135122054D01*
X136233045Y-135122054D02*
X136137807Y-135122054D01*
X136137807Y-135122054D02*
X136042569Y-135169673D01*
X136042569Y-135169673D02*
X135994950Y-135217292D01*
X135994950Y-135217292D02*
X135947331Y-135312530D01*
X135947331Y-135312530D02*
X135947331Y-135550625D01*
X135947331Y-135550625D02*
X135994950Y-135693482D01*
X135947331Y-136026816D02*
X136947331Y-136264911D01*
X136947331Y-136264911D02*
X136233045Y-136455387D01*
X136233045Y-136455387D02*
X136947331Y-136645863D01*
X136947331Y-136645863D02*
X135947331Y-136883959D01*
X136947331Y-137264911D02*
X135947331Y-137264911D01*
X135947331Y-137264911D02*
X135947331Y-137503006D01*
X135947331Y-137503006D02*
X135994950Y-137645863D01*
X135994950Y-137645863D02*
X136090188Y-137741101D01*
X136090188Y-137741101D02*
X136185426Y-137788720D01*
X136185426Y-137788720D02*
X136375902Y-137836339D01*
X136375902Y-137836339D02*
X136518759Y-137836339D01*
X136518759Y-137836339D02*
X136709235Y-137788720D01*
X136709235Y-137788720D02*
X136804473Y-137741101D01*
X136804473Y-137741101D02*
X136899712Y-137645863D01*
X136899712Y-137645863D02*
X136947331Y-137503006D01*
X136947331Y-137503006D02*
X136947331Y-137264911D01*
X136947331Y-138264911D02*
X135947331Y-138264911D01*
X135947331Y-138931577D02*
X135947331Y-139122053D01*
X135947331Y-139122053D02*
X135994950Y-139217291D01*
X135994950Y-139217291D02*
X136090188Y-139312529D01*
X136090188Y-139312529D02*
X136280664Y-139360148D01*
X136280664Y-139360148D02*
X136613997Y-139360148D01*
X136613997Y-139360148D02*
X136804473Y-139312529D01*
X136804473Y-139312529D02*
X136899712Y-139217291D01*
X136899712Y-139217291D02*
X136947331Y-139122053D01*
X136947331Y-139122053D02*
X136947331Y-138931577D01*
X136947331Y-138931577D02*
X136899712Y-138836339D01*
X136899712Y-138836339D02*
X136804473Y-138741101D01*
X136804473Y-138741101D02*
X136613997Y-138693482D01*
X136613997Y-138693482D02*
X136280664Y-138693482D01*
X136280664Y-138693482D02*
X136090188Y-138741101D01*
X136090188Y-138741101D02*
X135994950Y-138836339D01*
X135994950Y-138836339D02*
X135947331Y-138931577D01*
X137557275Y-135074435D02*
X137557275Y-135693482D01*
X137557275Y-135693482D02*
X137938227Y-135360149D01*
X137938227Y-135360149D02*
X137938227Y-135503006D01*
X137938227Y-135503006D02*
X137985846Y-135598244D01*
X137985846Y-135598244D02*
X138033465Y-135645863D01*
X138033465Y-135645863D02*
X138128703Y-135693482D01*
X138128703Y-135693482D02*
X138366798Y-135693482D01*
X138366798Y-135693482D02*
X138462036Y-135645863D01*
X138462036Y-135645863D02*
X138509656Y-135598244D01*
X138509656Y-135598244D02*
X138557275Y-135503006D01*
X138557275Y-135503006D02*
X138557275Y-135217292D01*
X138557275Y-135217292D02*
X138509656Y-135122054D01*
X138509656Y-135122054D02*
X138462036Y-135074435D01*
X137890608Y-136026816D02*
X138557275Y-136264911D01*
X138557275Y-136264911D02*
X137890608Y-136503006D01*
X137557275Y-136788721D02*
X137557275Y-137407768D01*
X137557275Y-137407768D02*
X137938227Y-137074435D01*
X137938227Y-137074435D02*
X137938227Y-137217292D01*
X137938227Y-137217292D02*
X137985846Y-137312530D01*
X137985846Y-137312530D02*
X138033465Y-137360149D01*
X138033465Y-137360149D02*
X138128703Y-137407768D01*
X138128703Y-137407768D02*
X138366798Y-137407768D01*
X138366798Y-137407768D02*
X138462036Y-137360149D01*
X138462036Y-137360149D02*
X138509656Y-137312530D01*
X138509656Y-137312530D02*
X138557275Y-137217292D01*
X138557275Y-137217292D02*
X138557275Y-136931578D01*
X138557275Y-136931578D02*
X138509656Y-136836340D01*
X138509656Y-136836340D02*
X138462036Y-136788721D01*
X140167219Y-135741101D02*
X139691028Y-135407768D01*
X140167219Y-135169673D02*
X139167219Y-135169673D01*
X139167219Y-135169673D02*
X139167219Y-135550625D01*
X139167219Y-135550625D02*
X139214838Y-135645863D01*
X139214838Y-135645863D02*
X139262457Y-135693482D01*
X139262457Y-135693482D02*
X139357695Y-135741101D01*
X139357695Y-135741101D02*
X139500552Y-135741101D01*
X139500552Y-135741101D02*
X139595790Y-135693482D01*
X139595790Y-135693482D02*
X139643409Y-135645863D01*
X139643409Y-135645863D02*
X139691028Y-135550625D01*
X139691028Y-135550625D02*
X139691028Y-135169673D01*
X140119600Y-136122054D02*
X140167219Y-136264911D01*
X140167219Y-136264911D02*
X140167219Y-136503006D01*
X140167219Y-136503006D02*
X140119600Y-136598244D01*
X140119600Y-136598244D02*
X140071980Y-136645863D01*
X140071980Y-136645863D02*
X139976742Y-136693482D01*
X139976742Y-136693482D02*
X139881504Y-136693482D01*
X139881504Y-136693482D02*
X139786266Y-136645863D01*
X139786266Y-136645863D02*
X139738647Y-136598244D01*
X139738647Y-136598244D02*
X139691028Y-136503006D01*
X139691028Y-136503006D02*
X139643409Y-136312530D01*
X139643409Y-136312530D02*
X139595790Y-136217292D01*
X139595790Y-136217292D02*
X139548171Y-136169673D01*
X139548171Y-136169673D02*
X139452933Y-136122054D01*
X139452933Y-136122054D02*
X139357695Y-136122054D01*
X139357695Y-136122054D02*
X139262457Y-136169673D01*
X139262457Y-136169673D02*
X139214838Y-136217292D01*
X139214838Y-136217292D02*
X139167219Y-136312530D01*
X139167219Y-136312530D02*
X139167219Y-136550625D01*
X139167219Y-136550625D02*
X139214838Y-136693482D01*
X139167219Y-136979197D02*
X139167219Y-137550625D01*
X140167219Y-137264911D02*
X139167219Y-137264911D01*
D12*
X141221241Y-110488512D02*
X141721241Y-109774226D01*
X142078384Y-110488512D02*
X142078384Y-108988512D01*
X142078384Y-108988512D02*
X141506955Y-108988512D01*
X141506955Y-108988512D02*
X141364098Y-109059941D01*
X141364098Y-109059941D02*
X141292669Y-109131369D01*
X141292669Y-109131369D02*
X141221241Y-109274226D01*
X141221241Y-109274226D02*
X141221241Y-109488512D01*
X141221241Y-109488512D02*
X141292669Y-109631369D01*
X141292669Y-109631369D02*
X141364098Y-109702798D01*
X141364098Y-109702798D02*
X141506955Y-109774226D01*
X141506955Y-109774226D02*
X142078384Y-109774226D01*
X140006955Y-110417084D02*
X140149812Y-110488512D01*
X140149812Y-110488512D02*
X140435527Y-110488512D01*
X140435527Y-110488512D02*
X140578384Y-110417084D01*
X140578384Y-110417084D02*
X140649812Y-110274226D01*
X140649812Y-110274226D02*
X140649812Y-109702798D01*
X140649812Y-109702798D02*
X140578384Y-109559941D01*
X140578384Y-109559941D02*
X140435527Y-109488512D01*
X140435527Y-109488512D02*
X140149812Y-109488512D01*
X140149812Y-109488512D02*
X140006955Y-109559941D01*
X140006955Y-109559941D02*
X139935527Y-109702798D01*
X139935527Y-109702798D02*
X139935527Y-109845655D01*
X139935527Y-109845655D02*
X140649812Y-109988512D01*
X139435527Y-109488512D02*
X139078384Y-110488512D01*
X139078384Y-110488512D02*
X138721241Y-109488512D01*
X136221241Y-110488512D02*
X137078384Y-110488512D01*
X136649813Y-110488512D02*
X136649813Y-108988512D01*
X136649813Y-108988512D02*
X136792670Y-109202798D01*
X136792670Y-109202798D02*
X136935527Y-109345655D01*
X136935527Y-109345655D02*
X137078384Y-109417084D01*
X135578385Y-110345655D02*
X135506956Y-110417084D01*
X135506956Y-110417084D02*
X135578385Y-110488512D01*
X135578385Y-110488512D02*
X135649813Y-110417084D01*
X135649813Y-110417084D02*
X135578385Y-110345655D01*
X135578385Y-110345655D02*
X135578385Y-110488512D01*
X134578384Y-108988512D02*
X134435527Y-108988512D01*
X134435527Y-108988512D02*
X134292670Y-109059941D01*
X134292670Y-109059941D02*
X134221242Y-109131369D01*
X134221242Y-109131369D02*
X134149813Y-109274226D01*
X134149813Y-109274226D02*
X134078384Y-109559941D01*
X134078384Y-109559941D02*
X134078384Y-109917084D01*
X134078384Y-109917084D02*
X134149813Y-110202798D01*
X134149813Y-110202798D02*
X134221242Y-110345655D01*
X134221242Y-110345655D02*
X134292670Y-110417084D01*
X134292670Y-110417084D02*
X134435527Y-110488512D01*
X134435527Y-110488512D02*
X134578384Y-110488512D01*
X134578384Y-110488512D02*
X134721242Y-110417084D01*
X134721242Y-110417084D02*
X134792670Y-110345655D01*
X134792670Y-110345655D02*
X134864099Y-110202798D01*
X134864099Y-110202798D02*
X134935527Y-109917084D01*
X134935527Y-109917084D02*
X134935527Y-109559941D01*
X134935527Y-109559941D02*
X134864099Y-109274226D01*
X134864099Y-109274226D02*
X134792670Y-109131369D01*
X134792670Y-109131369D02*
X134721242Y-109059941D01*
X134721242Y-109059941D02*
X134578384Y-108988512D01*
X132935528Y-109702798D02*
X132721242Y-109774226D01*
X132721242Y-109774226D02*
X132649813Y-109845655D01*
X132649813Y-109845655D02*
X132578385Y-109988512D01*
X132578385Y-109988512D02*
X132578385Y-110202798D01*
X132578385Y-110202798D02*
X132649813Y-110345655D01*
X132649813Y-110345655D02*
X132721242Y-110417084D01*
X132721242Y-110417084D02*
X132864099Y-110488512D01*
X132864099Y-110488512D02*
X133435528Y-110488512D01*
X133435528Y-110488512D02*
X133435528Y-108988512D01*
X133435528Y-108988512D02*
X132935528Y-108988512D01*
X132935528Y-108988512D02*
X132792671Y-109059941D01*
X132792671Y-109059941D02*
X132721242Y-109131369D01*
X132721242Y-109131369D02*
X132649813Y-109274226D01*
X132649813Y-109274226D02*
X132649813Y-109417084D01*
X132649813Y-109417084D02*
X132721242Y-109559941D01*
X132721242Y-109559941D02*
X132792671Y-109631369D01*
X132792671Y-109631369D02*
X132935528Y-109702798D01*
X132935528Y-109702798D02*
X133435528Y-109702798D01*
X141292669Y-112903428D02*
X142149812Y-112903428D01*
X141721241Y-112903428D02*
X141721241Y-111403428D01*
X141721241Y-111403428D02*
X141864098Y-111617714D01*
X141864098Y-111617714D02*
X142006955Y-111760571D01*
X142006955Y-111760571D02*
X142149812Y-111832000D01*
X140364098Y-111403428D02*
X140221241Y-111403428D01*
X140221241Y-111403428D02*
X140078384Y-111474857D01*
X140078384Y-111474857D02*
X140006956Y-111546285D01*
X140006956Y-111546285D02*
X139935527Y-111689142D01*
X139935527Y-111689142D02*
X139864098Y-111974857D01*
X139864098Y-111974857D02*
X139864098Y-112332000D01*
X139864098Y-112332000D02*
X139935527Y-112617714D01*
X139935527Y-112617714D02*
X140006956Y-112760571D01*
X140006956Y-112760571D02*
X140078384Y-112832000D01*
X140078384Y-112832000D02*
X140221241Y-112903428D01*
X140221241Y-112903428D02*
X140364098Y-112903428D01*
X140364098Y-112903428D02*
X140506956Y-112832000D01*
X140506956Y-112832000D02*
X140578384Y-112760571D01*
X140578384Y-112760571D02*
X140649813Y-112617714D01*
X140649813Y-112617714D02*
X140721241Y-112332000D01*
X140721241Y-112332000D02*
X140721241Y-111974857D01*
X140721241Y-111974857D02*
X140649813Y-111689142D01*
X140649813Y-111689142D02*
X140578384Y-111546285D01*
X140578384Y-111546285D02*
X140506956Y-111474857D01*
X140506956Y-111474857D02*
X140364098Y-111403428D01*
X138149813Y-111332000D02*
X139435527Y-113260571D01*
X136864098Y-112903428D02*
X137721241Y-112903428D01*
X137292670Y-112903428D02*
X137292670Y-111403428D01*
X137292670Y-111403428D02*
X137435527Y-111617714D01*
X137435527Y-111617714D02*
X137578384Y-111760571D01*
X137578384Y-111760571D02*
X137721241Y-111832000D01*
X136149813Y-112903428D02*
X135864099Y-112903428D01*
X135864099Y-112903428D02*
X135721242Y-112832000D01*
X135721242Y-112832000D02*
X135649813Y-112760571D01*
X135649813Y-112760571D02*
X135506956Y-112546285D01*
X135506956Y-112546285D02*
X135435527Y-112260571D01*
X135435527Y-112260571D02*
X135435527Y-111689142D01*
X135435527Y-111689142D02*
X135506956Y-111546285D01*
X135506956Y-111546285D02*
X135578385Y-111474857D01*
X135578385Y-111474857D02*
X135721242Y-111403428D01*
X135721242Y-111403428D02*
X136006956Y-111403428D01*
X136006956Y-111403428D02*
X136149813Y-111474857D01*
X136149813Y-111474857D02*
X136221242Y-111546285D01*
X136221242Y-111546285D02*
X136292670Y-111689142D01*
X136292670Y-111689142D02*
X136292670Y-112046285D01*
X136292670Y-112046285D02*
X136221242Y-112189142D01*
X136221242Y-112189142D02*
X136149813Y-112260571D01*
X136149813Y-112260571D02*
X136006956Y-112332000D01*
X136006956Y-112332000D02*
X135721242Y-112332000D01*
X135721242Y-112332000D02*
X135578385Y-112260571D01*
X135578385Y-112260571D02*
X135506956Y-112189142D01*
X135506956Y-112189142D02*
X135435527Y-112046285D01*
X133721242Y-111332000D02*
X135006956Y-113260571D01*
X133292670Y-111546285D02*
X133221242Y-111474857D01*
X133221242Y-111474857D02*
X133078385Y-111403428D01*
X133078385Y-111403428D02*
X132721242Y-111403428D01*
X132721242Y-111403428D02*
X132578385Y-111474857D01*
X132578385Y-111474857D02*
X132506956Y-111546285D01*
X132506956Y-111546285D02*
X132435527Y-111689142D01*
X132435527Y-111689142D02*
X132435527Y-111832000D01*
X132435527Y-111832000D02*
X132506956Y-112046285D01*
X132506956Y-112046285D02*
X133364099Y-112903428D01*
X133364099Y-112903428D02*
X132435527Y-112903428D01*
X131078385Y-111403428D02*
X131792671Y-111403428D01*
X131792671Y-111403428D02*
X131864099Y-112117714D01*
X131864099Y-112117714D02*
X131792671Y-112046285D01*
X131792671Y-112046285D02*
X131649814Y-111974857D01*
X131649814Y-111974857D02*
X131292671Y-111974857D01*
X131292671Y-111974857D02*
X131149814Y-112046285D01*
X131149814Y-112046285D02*
X131078385Y-112117714D01*
X131078385Y-112117714D02*
X131006956Y-112260571D01*
X131006956Y-112260571D02*
X131006956Y-112617714D01*
X131006956Y-112617714D02*
X131078385Y-112760571D01*
X131078385Y-112760571D02*
X131149814Y-112832000D01*
X131149814Y-112832000D02*
X131292671Y-112903428D01*
X131292671Y-112903428D02*
X131649814Y-112903428D01*
X131649814Y-112903428D02*
X131792671Y-112832000D01*
X131792671Y-112832000D02*
X131864099Y-112760571D01*
D11*
X138430326Y-114566378D02*
X137668422Y-114566378D01*
X138430326Y-117786266D02*
X137668422Y-117786266D01*
X138049374Y-118167219D02*
X138049374Y-117405314D01*
D13*
X185990475Y-124207200D02*
X185847618Y-124254819D01*
X185847618Y-124254819D02*
X185609523Y-124254819D01*
X185609523Y-124254819D02*
X185514285Y-124207200D01*
X185514285Y-124207200D02*
X185466666Y-124159580D01*
X185466666Y-124159580D02*
X185419047Y-124064342D01*
X185419047Y-124064342D02*
X185419047Y-123969104D01*
X185419047Y-123969104D02*
X185466666Y-123873866D01*
X185466666Y-123873866D02*
X185514285Y-123826247D01*
X185514285Y-123826247D02*
X185609523Y-123778628D01*
X185609523Y-123778628D02*
X185799999Y-123731009D01*
X185799999Y-123731009D02*
X185895237Y-123683390D01*
X185895237Y-123683390D02*
X185942856Y-123635771D01*
X185942856Y-123635771D02*
X185990475Y-123540533D01*
X185990475Y-123540533D02*
X185990475Y-123445295D01*
X185990475Y-123445295D02*
X185942856Y-123350057D01*
X185942856Y-123350057D02*
X185895237Y-123302438D01*
X185895237Y-123302438D02*
X185799999Y-123254819D01*
X185799999Y-123254819D02*
X185561904Y-123254819D01*
X185561904Y-123254819D02*
X185419047Y-123302438D01*
X184419047Y-124159580D02*
X184466666Y-124207200D01*
X184466666Y-124207200D02*
X184609523Y-124254819D01*
X184609523Y-124254819D02*
X184704761Y-124254819D01*
X184704761Y-124254819D02*
X184847618Y-124207200D01*
X184847618Y-124207200D02*
X184942856Y-124111961D01*
X184942856Y-124111961D02*
X184990475Y-124016723D01*
X184990475Y-124016723D02*
X185038094Y-123826247D01*
X185038094Y-123826247D02*
X185038094Y-123683390D01*
X185038094Y-123683390D02*
X184990475Y-123492914D01*
X184990475Y-123492914D02*
X184942856Y-123397676D01*
X184942856Y-123397676D02*
X184847618Y-123302438D01*
X184847618Y-123302438D02*
X184704761Y-123254819D01*
X184704761Y-123254819D02*
X184609523Y-123254819D01*
X184609523Y-123254819D02*
X184466666Y-123302438D01*
X184466666Y-123302438D02*
X184419047Y-123350057D01*
X183514285Y-124254819D02*
X183990475Y-124254819D01*
X183990475Y-124254819D02*
X183990475Y-123254819D01*
X182214285Y-124207200D02*
X182071428Y-124254819D01*
X182071428Y-124254819D02*
X181833333Y-124254819D01*
X181833333Y-124254819D02*
X181738095Y-124207200D01*
X181738095Y-124207200D02*
X181690476Y-124159580D01*
X181690476Y-124159580D02*
X181642857Y-124064342D01*
X181642857Y-124064342D02*
X181642857Y-123969104D01*
X181642857Y-123969104D02*
X181690476Y-123873866D01*
X181690476Y-123873866D02*
X181738095Y-123826247D01*
X181738095Y-123826247D02*
X181833333Y-123778628D01*
X181833333Y-123778628D02*
X182023809Y-123731009D01*
X182023809Y-123731009D02*
X182119047Y-123683390D01*
X182119047Y-123683390D02*
X182166666Y-123635771D01*
X182166666Y-123635771D02*
X182214285Y-123540533D01*
X182214285Y-123540533D02*
X182214285Y-123445295D01*
X182214285Y-123445295D02*
X182166666Y-123350057D01*
X182166666Y-123350057D02*
X182119047Y-123302438D01*
X182119047Y-123302438D02*
X182023809Y-123254819D01*
X182023809Y-123254819D02*
X181785714Y-123254819D01*
X181785714Y-123254819D02*
X181642857Y-123302438D01*
X181214285Y-124254819D02*
X181214285Y-123254819D01*
X181214285Y-123254819D02*
X180976190Y-123254819D01*
X180976190Y-123254819D02*
X180833333Y-123302438D01*
X180833333Y-123302438D02*
X180738095Y-123397676D01*
X180738095Y-123397676D02*
X180690476Y-123492914D01*
X180690476Y-123492914D02*
X180642857Y-123683390D01*
X180642857Y-123683390D02*
X180642857Y-123826247D01*
X180642857Y-123826247D02*
X180690476Y-124016723D01*
X180690476Y-124016723D02*
X180738095Y-124111961D01*
X180738095Y-124111961D02*
X180833333Y-124207200D01*
X180833333Y-124207200D02*
X180976190Y-124254819D01*
X180976190Y-124254819D02*
X181214285Y-124254819D01*
X180261904Y-123969104D02*
X179785714Y-123969104D01*
X180357142Y-124254819D02*
X180023809Y-123254819D01*
X180023809Y-123254819D02*
X179690476Y-124254819D01*
X182238094Y-132854819D02*
X182238094Y-131854819D01*
X182238094Y-131854819D02*
X181857142Y-131854819D01*
X181857142Y-131854819D02*
X181761904Y-131902438D01*
X181761904Y-131902438D02*
X181714285Y-131950057D01*
X181714285Y-131950057D02*
X181666666Y-132045295D01*
X181666666Y-132045295D02*
X181666666Y-132188152D01*
X181666666Y-132188152D02*
X181714285Y-132283390D01*
X181714285Y-132283390D02*
X181761904Y-132331009D01*
X181761904Y-132331009D02*
X181857142Y-132378628D01*
X181857142Y-132378628D02*
X182238094Y-132378628D01*
X180904761Y-132331009D02*
X180761904Y-132378628D01*
X180761904Y-132378628D02*
X180714285Y-132426247D01*
X180714285Y-132426247D02*
X180666666Y-132521485D01*
X180666666Y-132521485D02*
X180666666Y-132664342D01*
X180666666Y-132664342D02*
X180714285Y-132759580D01*
X180714285Y-132759580D02*
X180761904Y-132807200D01*
X180761904Y-132807200D02*
X180857142Y-132854819D01*
X180857142Y-132854819D02*
X181238094Y-132854819D01*
X181238094Y-132854819D02*
X181238094Y-131854819D01*
X181238094Y-131854819D02*
X180904761Y-131854819D01*
X180904761Y-131854819D02*
X180809523Y-131902438D01*
X180809523Y-131902438D02*
X180761904Y-131950057D01*
X180761904Y-131950057D02*
X180714285Y-132045295D01*
X180714285Y-132045295D02*
X180714285Y-132140533D01*
X180714285Y-132140533D02*
X180761904Y-132235771D01*
X180761904Y-132235771D02*
X180809523Y-132283390D01*
X180809523Y-132283390D02*
X180904761Y-132331009D01*
X180904761Y-132331009D02*
X181238094Y-132331009D01*
X180047618Y-131854819D02*
X179952380Y-131854819D01*
X179952380Y-131854819D02*
X179857142Y-131902438D01*
X179857142Y-131902438D02*
X179809523Y-131950057D01*
X179809523Y-131950057D02*
X179761904Y-132045295D01*
X179761904Y-132045295D02*
X179714285Y-132235771D01*
X179714285Y-132235771D02*
X179714285Y-132473866D01*
X179714285Y-132473866D02*
X179761904Y-132664342D01*
X179761904Y-132664342D02*
X179809523Y-132759580D01*
X179809523Y-132759580D02*
X179857142Y-132807200D01*
X179857142Y-132807200D02*
X179952380Y-132854819D01*
X179952380Y-132854819D02*
X180047618Y-132854819D01*
X180047618Y-132854819D02*
X180142856Y-132807200D01*
X180142856Y-132807200D02*
X180190475Y-132759580D01*
X180190475Y-132759580D02*
X180238094Y-132664342D01*
X180238094Y-132664342D02*
X180285713Y-132473866D01*
X180285713Y-132473866D02*
X180285713Y-132235771D01*
X180285713Y-132235771D02*
X180238094Y-132045295D01*
X180238094Y-132045295D02*
X180190475Y-131950057D01*
X180190475Y-131950057D02*
X180142856Y-131902438D01*
X180142856Y-131902438D02*
X180047618Y-131854819D01*
X186038094Y-132854819D02*
X186038094Y-131854819D01*
X186038094Y-131854819D02*
X185657142Y-131854819D01*
X185657142Y-131854819D02*
X185561904Y-131902438D01*
X185561904Y-131902438D02*
X185514285Y-131950057D01*
X185514285Y-131950057D02*
X185466666Y-132045295D01*
X185466666Y-132045295D02*
X185466666Y-132188152D01*
X185466666Y-132188152D02*
X185514285Y-132283390D01*
X185514285Y-132283390D02*
X185561904Y-132331009D01*
X185561904Y-132331009D02*
X185657142Y-132378628D01*
X185657142Y-132378628D02*
X186038094Y-132378628D01*
X184704761Y-132331009D02*
X184561904Y-132378628D01*
X184561904Y-132378628D02*
X184514285Y-132426247D01*
X184514285Y-132426247D02*
X184466666Y-132521485D01*
X184466666Y-132521485D02*
X184466666Y-132664342D01*
X184466666Y-132664342D02*
X184514285Y-132759580D01*
X184514285Y-132759580D02*
X184561904Y-132807200D01*
X184561904Y-132807200D02*
X184657142Y-132854819D01*
X184657142Y-132854819D02*
X185038094Y-132854819D01*
X185038094Y-132854819D02*
X185038094Y-131854819D01*
X185038094Y-131854819D02*
X184704761Y-131854819D01*
X184704761Y-131854819D02*
X184609523Y-131902438D01*
X184609523Y-131902438D02*
X184561904Y-131950057D01*
X184561904Y-131950057D02*
X184514285Y-132045295D01*
X184514285Y-132045295D02*
X184514285Y-132140533D01*
X184514285Y-132140533D02*
X184561904Y-132235771D01*
X184561904Y-132235771D02*
X184609523Y-132283390D01*
X184609523Y-132283390D02*
X184704761Y-132331009D01*
X184704761Y-132331009D02*
X185038094Y-132331009D01*
X183514285Y-132854819D02*
X184085713Y-132854819D01*
X183799999Y-132854819D02*
X183799999Y-131854819D01*
X183799999Y-131854819D02*
X183895237Y-131997676D01*
X183895237Y-131997676D02*
X183990475Y-132092914D01*
X183990475Y-132092914D02*
X184085713Y-132140533D01*
X147238094Y-129554819D02*
X146619047Y-129554819D01*
X146619047Y-129554819D02*
X146952380Y-129935771D01*
X146952380Y-129935771D02*
X146809523Y-129935771D01*
X146809523Y-129935771D02*
X146714285Y-129983390D01*
X146714285Y-129983390D02*
X146666666Y-130031009D01*
X146666666Y-130031009D02*
X146619047Y-130126247D01*
X146619047Y-130126247D02*
X146619047Y-130364342D01*
X146619047Y-130364342D02*
X146666666Y-130459580D01*
X146666666Y-130459580D02*
X146714285Y-130507200D01*
X146714285Y-130507200D02*
X146809523Y-130554819D01*
X146809523Y-130554819D02*
X147095237Y-130554819D01*
X147095237Y-130554819D02*
X147190475Y-130507200D01*
X147190475Y-130507200D02*
X147238094Y-130459580D01*
X146333332Y-129554819D02*
X145999999Y-130554819D01*
X145999999Y-130554819D02*
X145666666Y-129554819D01*
X145428570Y-129554819D02*
X144809523Y-129554819D01*
X144809523Y-129554819D02*
X145142856Y-129935771D01*
X145142856Y-129935771D02*
X144999999Y-129935771D01*
X144999999Y-129935771D02*
X144904761Y-129983390D01*
X144904761Y-129983390D02*
X144857142Y-130031009D01*
X144857142Y-130031009D02*
X144809523Y-130126247D01*
X144809523Y-130126247D02*
X144809523Y-130364342D01*
X144809523Y-130364342D02*
X144857142Y-130459580D01*
X144857142Y-130459580D02*
X144904761Y-130507200D01*
X144904761Y-130507200D02*
X144999999Y-130554819D01*
X144999999Y-130554819D02*
X145285713Y-130554819D01*
X145285713Y-130554819D02*
X145380951Y-130507200D01*
X145380951Y-130507200D02*
X145428570Y-130459580D01*
X146761904Y-134402438D02*
X146857142Y-134354819D01*
X146857142Y-134354819D02*
X146999999Y-134354819D01*
X146999999Y-134354819D02*
X147142856Y-134402438D01*
X147142856Y-134402438D02*
X147238094Y-134497676D01*
X147238094Y-134497676D02*
X147285713Y-134592914D01*
X147285713Y-134592914D02*
X147333332Y-134783390D01*
X147333332Y-134783390D02*
X147333332Y-134926247D01*
X147333332Y-134926247D02*
X147285713Y-135116723D01*
X147285713Y-135116723D02*
X147238094Y-135211961D01*
X147238094Y-135211961D02*
X147142856Y-135307200D01*
X147142856Y-135307200D02*
X146999999Y-135354819D01*
X146999999Y-135354819D02*
X146904761Y-135354819D01*
X146904761Y-135354819D02*
X146761904Y-135307200D01*
X146761904Y-135307200D02*
X146714285Y-135259580D01*
X146714285Y-135259580D02*
X146714285Y-134926247D01*
X146714285Y-134926247D02*
X146904761Y-134926247D01*
X146285713Y-135354819D02*
X146285713Y-134354819D01*
X146285713Y-134354819D02*
X145714285Y-135354819D01*
X145714285Y-135354819D02*
X145714285Y-134354819D01*
X145238094Y-135354819D02*
X145238094Y-134354819D01*
X145238094Y-134354819D02*
X144999999Y-134354819D01*
X144999999Y-134354819D02*
X144857142Y-134402438D01*
X144857142Y-134402438D02*
X144761904Y-134497676D01*
X144761904Y-134497676D02*
X144714285Y-134592914D01*
X144714285Y-134592914D02*
X144666666Y-134783390D01*
X144666666Y-134783390D02*
X144666666Y-134926247D01*
X144666666Y-134926247D02*
X144714285Y-135116723D01*
X144714285Y-135116723D02*
X144761904Y-135211961D01*
X144761904Y-135211961D02*
X144857142Y-135307200D01*
X144857142Y-135307200D02*
X144999999Y-135354819D01*
X144999999Y-135354819D02*
X145238094Y-135354819D01*
D14*
X186250000Y-126200000D02*
G75*
G02*
X183350000Y-126200000I-1450000J0D01*
G01*
X183350000Y-126200000D02*
G75*
G02*
X186250000Y-126200000I1450000J0D01*
G01*
X182450000Y-126200000D02*
G75*
G02*
X179550000Y-126200000I-1450000J0D01*
G01*
X179550000Y-126200000D02*
G75*
G02*
X182450000Y-126200000I1450000J0D01*
G01*
X182450000Y-129800000D02*
G75*
G02*
X179550000Y-129800000I-1450000J0D01*
G01*
X179550000Y-129800000D02*
G75*
G02*
X182450000Y-129800000I1450000J0D01*
G01*
X186250000Y-129800000D02*
G75*
G02*
X183350000Y-129800000I-1450000J0D01*
G01*
X183350000Y-129800000D02*
G75*
G02*
X186250000Y-129800000I1450000J0D01*
G01*
X150650000Y-130600000D02*
G75*
G02*
X147750000Y-130600000I-1450000J0D01*
G01*
X147750000Y-130600000D02*
G75*
G02*
X150650000Y-130600000I1450000J0D01*
G01*
X150650000Y-134400000D02*
G75*
G02*
X147750000Y-134400000I-1450000J0D01*
G01*
X147750000Y-134400000D02*
G75*
G02*
X150650000Y-134400000I1450000J0D01*
G01*
D15*
G36*
X155195232Y-122866033D02*
G01*
X155282655Y-123004520D01*
X154934273Y-123004520D01*
X154832784Y-123003854D01*
X154705435Y-123000732D01*
X154618231Y-122995637D01*
X154585891Y-122989217D01*
X154591578Y-122975849D01*
X154625522Y-122913522D01*
X154662169Y-122849998D01*
X154864247Y-122849998D01*
X154870775Y-122857273D01*
X154918493Y-122865342D01*
X154943323Y-122860238D01*
X154950883Y-122829980D01*
X154935621Y-122816796D01*
X154889744Y-122817520D01*
X154864247Y-122849998D01*
X154662169Y-122849998D01*
X154683251Y-122813454D01*
X154756892Y-122689448D01*
X154927893Y-122404981D01*
X155017851Y-122547484D01*
X155047482Y-122595475D01*
X155090784Y-122670835D01*
X155107809Y-122708766D01*
X155112196Y-122721577D01*
X155143576Y-122780551D01*
X155173445Y-122829980D01*
X155195232Y-122866033D01*
G37*
G36*
X167727906Y-123004520D02*
G01*
X167182150Y-123004520D01*
X167070336Y-123004082D01*
X166895553Y-123001472D01*
X166753258Y-122996906D01*
X166655816Y-122990838D01*
X166615595Y-122983721D01*
X166608444Y-122969864D01*
X166613518Y-122914132D01*
X166634586Y-122892947D01*
X166694359Y-122876634D01*
X166802217Y-122867920D01*
X166968833Y-122865342D01*
X167305426Y-122865342D01*
X167309406Y-122857299D01*
X167505568Y-122857299D01*
X167542590Y-122865342D01*
X167577184Y-122852401D01*
X167599042Y-122789954D01*
X167596882Y-122746151D01*
X167589196Y-122729063D01*
X167574096Y-122749765D01*
X167532744Y-122804451D01*
X167520192Y-122821380D01*
X167505568Y-122857299D01*
X167309406Y-122857299D01*
X167434069Y-122605360D01*
X167562711Y-122345378D01*
X167085487Y-122335702D01*
X166958925Y-122332830D01*
X166804008Y-122327310D01*
X166701149Y-122319344D01*
X166639513Y-122307369D01*
X166608268Y-122289821D01*
X166596580Y-122265136D01*
X166595357Y-122251630D01*
X166604699Y-122233063D01*
X166636696Y-122220072D01*
X166700734Y-122211676D01*
X166806199Y-122206894D01*
X166962478Y-122204744D01*
X167178956Y-122204246D01*
X167773015Y-122204246D01*
X167772806Y-122317328D01*
X167772676Y-122329909D01*
X167768884Y-122429148D01*
X167760925Y-122566932D01*
X167750252Y-122717465D01*
X167744609Y-122789954D01*
X167727906Y-123004520D01*
G37*
G36*
X159500127Y-123579746D02*
G01*
X159487412Y-123618855D01*
X159465549Y-123634909D01*
X159410925Y-123649705D01*
X159317560Y-123657945D01*
X159175216Y-123660406D01*
X158973652Y-123657866D01*
X158500275Y-123648218D01*
X158221919Y-123222748D01*
X158177959Y-123155936D01*
X158082988Y-123014346D01*
X158004023Y-122900382D01*
X157948285Y-122824340D01*
X157922993Y-122796516D01*
X157922108Y-122796731D01*
X157895008Y-122829583D01*
X157841354Y-122910350D01*
X157768491Y-123027573D01*
X157683761Y-123169794D01*
X157682347Y-123172212D01*
X157593643Y-123321516D01*
X157513120Y-123452773D01*
X157449594Y-123551877D01*
X157411883Y-123604725D01*
X157411315Y-123605371D01*
X157389623Y-123623618D01*
X157355385Y-123637793D01*
X157300453Y-123648400D01*
X157216677Y-123655946D01*
X157095909Y-123660934D01*
X156930000Y-123663872D01*
X156710802Y-123665264D01*
X156430165Y-123665616D01*
X155501663Y-123665616D01*
X155414163Y-123542637D01*
X155326662Y-123419659D01*
X155232410Y-123543230D01*
X155138158Y-123666801D01*
X154263104Y-123657510D01*
X153388051Y-123648218D01*
X153357300Y-123540937D01*
X153357174Y-123540494D01*
X153354488Y-123526438D01*
X153472002Y-123526438D01*
X154263810Y-123526133D01*
X155055617Y-123525829D01*
X155189927Y-123317366D01*
X155196607Y-123307019D01*
X155262848Y-123206812D01*
X155312511Y-123135845D01*
X155335285Y-123108903D01*
X155335792Y-123109051D01*
X155360004Y-123140066D01*
X155409124Y-123214654D01*
X155473152Y-123317671D01*
X155599971Y-123526438D01*
X155962794Y-123526438D01*
X156488608Y-123526438D01*
X156885537Y-123525680D01*
X157282467Y-123524923D01*
X157531600Y-123082050D01*
X157561663Y-123028516D01*
X157654018Y-122862912D01*
X157736001Y-122714293D01*
X157799635Y-122597180D01*
X157836946Y-122526095D01*
X157845159Y-122510119D01*
X157888514Y-122441053D01*
X157920282Y-122413013D01*
X157928194Y-122417881D01*
X157966915Y-122467046D01*
X158025496Y-122557856D01*
X158094660Y-122676303D01*
X158119140Y-122719555D01*
X158216597Y-122885786D01*
X158327117Y-123067690D01*
X158431203Y-123233015D01*
X158620492Y-123526438D01*
X159009504Y-123526438D01*
X159398517Y-123526438D01*
X159375629Y-122894558D01*
X159370222Y-122737061D01*
X159363271Y-122507155D01*
X159357731Y-122290611D01*
X159354066Y-122106153D01*
X159352741Y-121972504D01*
X159352741Y-121682328D01*
X159056987Y-121682328D01*
X158761234Y-121682328D01*
X158761234Y-122082465D01*
X158759346Y-122231372D01*
X158753775Y-122361381D01*
X158745407Y-122449125D01*
X158735138Y-122480947D01*
X158732733Y-122479871D01*
X158700722Y-122441387D01*
X158642535Y-122355992D01*
X158565588Y-122234946D01*
X158477297Y-122089508D01*
X158245553Y-121699725D01*
X157937982Y-121690853D01*
X157630412Y-121681980D01*
X157405205Y-122064894D01*
X157392896Y-122085756D01*
X157307228Y-122227124D01*
X157233694Y-122342157D01*
X157179773Y-122419503D01*
X157152945Y-122447808D01*
X157143557Y-122423903D01*
X157134404Y-122343158D01*
X157128185Y-122218865D01*
X157125891Y-122065068D01*
X157125891Y-121682328D01*
X156830138Y-121682328D01*
X156534384Y-121682328D01*
X156534384Y-121972504D01*
X156533735Y-122058976D01*
X156530737Y-122229869D01*
X156525721Y-122438579D01*
X156519153Y-122666383D01*
X156511496Y-122894558D01*
X156489178Y-123510703D01*
X156488608Y-123526438D01*
X155962794Y-123526438D01*
X156077392Y-123525629D01*
X156205679Y-123522367D01*
X156293229Y-123517183D01*
X156325617Y-123510703D01*
X156324737Y-123507936D01*
X156300274Y-123462684D01*
X156247288Y-123372307D01*
X156172560Y-123248227D01*
X156082872Y-123101868D01*
X156046100Y-123042147D01*
X155929368Y-122851116D01*
X155796094Y-122631408D01*
X155660012Y-122405712D01*
X155534858Y-122196715D01*
X155229590Y-121684663D01*
X154928417Y-121683495D01*
X154627243Y-121682328D01*
X154356502Y-122125958D01*
X154319075Y-122187088D01*
X154218344Y-122349747D01*
X154127240Y-122494340D01*
X154054537Y-122607028D01*
X154009010Y-122673972D01*
X153961485Y-122743362D01*
X153887591Y-122856966D01*
X153797760Y-122998580D01*
X153702131Y-123152397D01*
X153472002Y-123526438D01*
X153354488Y-123526438D01*
X153351741Y-123512068D01*
X153352943Y-123478644D01*
X153363512Y-123435299D01*
X153386178Y-123377114D01*
X153423672Y-123299165D01*
X153478726Y-123196531D01*
X153554071Y-123064289D01*
X153652439Y-122897519D01*
X153776560Y-122691298D01*
X153929165Y-122440704D01*
X154112987Y-122140816D01*
X154330756Y-121786712D01*
X154469964Y-121560547D01*
X154919366Y-121560547D01*
X155368768Y-121560547D01*
X155855891Y-122375060D01*
X156343015Y-123189573D01*
X156360412Y-122375060D01*
X156377809Y-121560547D01*
X156830138Y-121560547D01*
X157282467Y-121560547D01*
X157299864Y-121696045D01*
X157317261Y-121831543D01*
X157404498Y-121696045D01*
X157491735Y-121560547D01*
X157933048Y-121550824D01*
X158374360Y-121541102D01*
X158472112Y-121707400D01*
X158569864Y-121873698D01*
X158587261Y-121717123D01*
X158604658Y-121560547D01*
X159056987Y-121560547D01*
X159509316Y-121560547D01*
X159518556Y-122565371D01*
X159518816Y-122594328D01*
X159520619Y-122911745D01*
X159519785Y-123164490D01*
X159516180Y-123357068D01*
X159509672Y-123493985D01*
X159506060Y-123526438D01*
X159500127Y-123579746D01*
G37*
G36*
X153978433Y-121758772D02*
G01*
X153932947Y-121883396D01*
X153847343Y-122052125D01*
X153696526Y-122326027D01*
X153410524Y-122336132D01*
X153124521Y-122346238D01*
X153124521Y-122982731D01*
X153123427Y-123176675D01*
X153120160Y-123357499D01*
X153115119Y-123503015D01*
X153108707Y-123601797D01*
X153101325Y-123642419D01*
X153096706Y-123645125D01*
X153039746Y-123654741D01*
X152935011Y-123661201D01*
X152799259Y-123664585D01*
X152649251Y-123664975D01*
X152501745Y-123662454D01*
X152373502Y-123657102D01*
X152281281Y-123649001D01*
X152241842Y-123638233D01*
X152235614Y-123600768D01*
X152227361Y-123504117D01*
X152218169Y-123360267D01*
X152208773Y-123180759D01*
X152199904Y-122977137D01*
X152174889Y-122343424D01*
X151818131Y-122343424D01*
X151461373Y-122343424D01*
X151449180Y-122787054D01*
X151443813Y-122924260D01*
X151443321Y-122936834D01*
X151425760Y-123131965D01*
X151393994Y-123279406D01*
X151343165Y-123392530D01*
X151268412Y-123484707D01*
X151164877Y-123569308D01*
X151161712Y-123571564D01*
X151133496Y-123590561D01*
X151102868Y-123606180D01*
X151063111Y-123618805D01*
X151007506Y-123628817D01*
X150929336Y-123636600D01*
X150821884Y-123642537D01*
X150678432Y-123647010D01*
X150492263Y-123650403D01*
X150256659Y-123653098D01*
X149964902Y-123655479D01*
X149610275Y-123657929D01*
X149470646Y-123658776D01*
X149165282Y-123659980D01*
X148882929Y-123660216D01*
X148631350Y-123659533D01*
X148418306Y-123657979D01*
X148251561Y-123655602D01*
X148138876Y-123652448D01*
X148088015Y-123648567D01*
X148054251Y-123637081D01*
X148029734Y-123611650D01*
X148016380Y-123559310D01*
X148010830Y-123465837D01*
X148009727Y-123317008D01*
X148009727Y-123004520D01*
X147644384Y-123004520D01*
X147279042Y-123004520D01*
X147279042Y-123313948D01*
X147277328Y-123446000D01*
X147269474Y-123555433D01*
X147253524Y-123617142D01*
X147227605Y-123643114D01*
X147215172Y-123645102D01*
X147140855Y-123649283D01*
X147007999Y-123653170D01*
X146824181Y-123656655D01*
X146596974Y-123659630D01*
X146333952Y-123661987D01*
X146042690Y-123663619D01*
X145730763Y-123664418D01*
X145476047Y-123664647D01*
X145144208Y-123664402D01*
X144871009Y-123662765D01*
X144649856Y-123658969D01*
X144474159Y-123652248D01*
X144337323Y-123641835D01*
X144232757Y-123626965D01*
X144153869Y-123606869D01*
X144094065Y-123580782D01*
X144046754Y-123547938D01*
X144005343Y-123507569D01*
X143963239Y-123458910D01*
X143869179Y-123347126D01*
X143869179Y-123464617D01*
X143869142Y-123469617D01*
X143856324Y-123562077D01*
X143827426Y-123623862D01*
X143820130Y-123627793D01*
X143755268Y-123639196D01*
X143634625Y-123648754D01*
X143467846Y-123656476D01*
X143264571Y-123662368D01*
X143034443Y-123666436D01*
X142787104Y-123668688D01*
X142532195Y-123669131D01*
X142279360Y-123667770D01*
X142038239Y-123664613D01*
X141818475Y-123659667D01*
X141629709Y-123652938D01*
X141481585Y-123644433D01*
X141383743Y-123634159D01*
X141345826Y-123622123D01*
X141341122Y-123596971D01*
X141333325Y-123510640D01*
X141326191Y-123382783D01*
X141320822Y-123230684D01*
X141319363Y-123172963D01*
X141317241Y-123034413D01*
X141320762Y-122948101D01*
X141332473Y-122900923D01*
X141354923Y-122879772D01*
X141390660Y-122871543D01*
X141396783Y-122870669D01*
X141444646Y-122859149D01*
X141446807Y-122831506D01*
X141406361Y-122767159D01*
X141387994Y-122739409D01*
X141310874Y-122593609D01*
X141270965Y-122441817D01*
X141259590Y-122253683D01*
X141261743Y-122204947D01*
X141434150Y-122204947D01*
X141443359Y-122394353D01*
X141512336Y-122578018D01*
X141641675Y-122743561D01*
X141751103Y-122847944D01*
X142392607Y-122858795D01*
X142401676Y-122858949D01*
X142625321Y-122863142D01*
X142789018Y-122867765D01*
X142902077Y-122873954D01*
X142973806Y-122882844D01*
X143013515Y-122895571D01*
X143030513Y-122913272D01*
X143034111Y-122937083D01*
X143031982Y-122956496D01*
X143019410Y-122973602D01*
X142987928Y-122986081D01*
X142929088Y-122994659D01*
X142834445Y-123000064D01*
X142695553Y-123003025D01*
X142503964Y-123004267D01*
X142251234Y-123004520D01*
X141468357Y-123004520D01*
X141468357Y-123265479D01*
X141468357Y-123526438D01*
X142599179Y-123526438D01*
X143730001Y-123526438D01*
X143730001Y-123194772D01*
X143729979Y-123181500D01*
X143719812Y-122953445D01*
X143719187Y-122949945D01*
X143946612Y-122949945D01*
X143977256Y-123114866D01*
X144012001Y-123194772D01*
X144046179Y-123273372D01*
X144150384Y-123407437D01*
X144256381Y-123509040D01*
X145263191Y-123519245D01*
X146270001Y-123529449D01*
X146270001Y-123526438D01*
X146467741Y-123526438D01*
X146808390Y-123526438D01*
X147149040Y-123526438D01*
X147132834Y-122964139D01*
X147116629Y-122401840D01*
X147197663Y-122503111D01*
X147209547Y-122518280D01*
X147258801Y-122589585D01*
X147278869Y-122633806D01*
X147279334Y-122637704D01*
X147302877Y-122689186D01*
X147351000Y-122764286D01*
X147370943Y-122791694D01*
X147404342Y-122827458D01*
X147447611Y-122849236D01*
X147515679Y-122860496D01*
X147623476Y-122864708D01*
X147785932Y-122865342D01*
X148148905Y-122865342D01*
X148148905Y-123195890D01*
X148148905Y-123526438D01*
X148484954Y-123526438D01*
X148821004Y-123526438D01*
X148986325Y-123526438D01*
X149954250Y-123526438D01*
X150217956Y-123526303D01*
X150446705Y-123525470D01*
X150622265Y-123523320D01*
X150753192Y-123519236D01*
X150848043Y-123512598D01*
X150915373Y-123502788D01*
X150963741Y-123489189D01*
X151001702Y-123471183D01*
X151037812Y-123448150D01*
X151072677Y-123420696D01*
X151162299Y-123324407D01*
X151236575Y-123213287D01*
X151268090Y-123150765D01*
X151291362Y-123088643D01*
X151304399Y-123018240D01*
X151308729Y-122924260D01*
X151305880Y-122791407D01*
X151297378Y-122604383D01*
X151294217Y-122542313D01*
X151280622Y-122330258D01*
X151263195Y-122171850D01*
X151238503Y-122054305D01*
X151203113Y-121964838D01*
X151153593Y-121890664D01*
X151086510Y-121818998D01*
X150963507Y-121699725D01*
X149987400Y-121689458D01*
X149011293Y-121679190D01*
X149147790Y-121933020D01*
X149284287Y-122186849D01*
X149949693Y-122196291D01*
X150079333Y-122197848D01*
X150289667Y-122200730D01*
X150443078Y-122208183D01*
X150547914Y-122226041D01*
X150612525Y-122260137D01*
X150645261Y-122316302D01*
X150648397Y-122344927D01*
X150654470Y-122400371D01*
X150648501Y-122518176D01*
X150635704Y-122675550D01*
X150611149Y-123003076D01*
X149935585Y-123012497D01*
X149260022Y-123021917D01*
X149123173Y-123274177D01*
X148986325Y-123526438D01*
X148821004Y-123526438D01*
X148798203Y-122874040D01*
X148792179Y-122692161D01*
X148787045Y-122517573D01*
X148952783Y-122517573D01*
X148952865Y-122729912D01*
X148956523Y-122917354D01*
X148966576Y-123212928D01*
X149053563Y-123047833D01*
X149140549Y-122882739D01*
X149810343Y-122873289D01*
X150480138Y-122863839D01*
X150480138Y-122604383D01*
X150480138Y-122344927D01*
X149810990Y-122335477D01*
X149141842Y-122326027D01*
X149054209Y-122169451D01*
X148966576Y-122012876D01*
X148956523Y-122317328D01*
X148956278Y-122324935D01*
X148952783Y-122517573D01*
X148787045Y-122517573D01*
X148785476Y-122464233D01*
X148780138Y-122253195D01*
X148776603Y-122076596D01*
X148775305Y-121951986D01*
X148775206Y-121682328D01*
X148479453Y-121682328D01*
X148183700Y-121682328D01*
X148183700Y-122012876D01*
X148183700Y-122343424D01*
X147644384Y-122343424D01*
X147105069Y-122343424D01*
X147105069Y-122012876D01*
X147105069Y-121682328D01*
X146809316Y-121682328D01*
X146513563Y-121682328D01*
X146513563Y-121920294D01*
X146512479Y-122024800D01*
X146509252Y-122187528D01*
X146504274Y-122388670D01*
X146498165Y-122604383D01*
X146497942Y-122612264D01*
X146490652Y-122842349D01*
X146485221Y-123004520D01*
X146467741Y-123526438D01*
X146270001Y-123526438D01*
X146270001Y-123266985D01*
X146270001Y-123004520D01*
X145458129Y-123004520D01*
X145318143Y-123004210D01*
X145100284Y-123002404D01*
X144912110Y-122999203D01*
X144763597Y-122994856D01*
X144664721Y-122989612D01*
X144625458Y-122983721D01*
X144618307Y-122969864D01*
X144623381Y-122914132D01*
X144640292Y-122896394D01*
X144689210Y-122881378D01*
X144778669Y-122871833D01*
X144918335Y-122866806D01*
X145117874Y-122865342D01*
X145593645Y-122865342D01*
X145785063Y-122865342D01*
X146062326Y-122865342D01*
X146339590Y-122865342D01*
X146339590Y-122604383D01*
X146339590Y-122343424D01*
X146183015Y-122343424D01*
X146106879Y-122346228D01*
X146044194Y-122362746D01*
X146026439Y-122398460D01*
X146010412Y-122453126D01*
X145966980Y-122547287D01*
X145905751Y-122659419D01*
X145785063Y-122865342D01*
X145593645Y-122865342D01*
X145722375Y-122605183D01*
X145851105Y-122345024D01*
X145234630Y-122335525D01*
X145111758Y-122333497D01*
X144921607Y-122329184D01*
X144786564Y-122323465D01*
X144697079Y-122315271D01*
X144643599Y-122303532D01*
X144616576Y-122287177D01*
X144606458Y-122265136D01*
X144605939Y-122249335D01*
X144617591Y-122233729D01*
X144650445Y-122222189D01*
X144712564Y-122214110D01*
X144812013Y-122208884D01*
X144956856Y-122205902D01*
X145155158Y-122204559D01*
X145414984Y-122204246D01*
X146235206Y-122204246D01*
X146235206Y-121941242D01*
X146235206Y-121678238D01*
X145280827Y-121688981D01*
X145125795Y-121690784D01*
X144874656Y-121694265D01*
X144680244Y-121698302D01*
X144534084Y-121703560D01*
X144427701Y-121710705D01*
X144352620Y-121720403D01*
X144300367Y-121733318D01*
X144262466Y-121750117D01*
X144230443Y-121771464D01*
X144102819Y-121889009D01*
X144018215Y-122035386D01*
X143980969Y-122219784D01*
X143976618Y-122301298D01*
X143986844Y-122416445D01*
X144024210Y-122502526D01*
X144058418Y-122560314D01*
X144062522Y-122606453D01*
X144025536Y-122656816D01*
X144012155Y-122672965D01*
X143957245Y-122796636D01*
X143946612Y-122949945D01*
X143719187Y-122949945D01*
X143688382Y-122777490D01*
X143631673Y-122639009D01*
X143545669Y-122523375D01*
X143545565Y-122523264D01*
X143488837Y-122467255D01*
X143430685Y-122425484D01*
X143359749Y-122395471D01*
X143264669Y-122374737D01*
X143134085Y-122360804D01*
X142956635Y-122351193D01*
X142720960Y-122343424D01*
X142505381Y-122336497D01*
X142340097Y-122328851D01*
X142227005Y-122319777D01*
X142157222Y-122308259D01*
X142121867Y-122293284D01*
X142112056Y-122273835D01*
X142112148Y-122271539D01*
X142123627Y-122253052D01*
X142160502Y-122239163D01*
X142231611Y-122229002D01*
X142345793Y-122221699D01*
X142511887Y-122216386D01*
X142738730Y-122212192D01*
X143365404Y-122202740D01*
X143511517Y-121940469D01*
X143657629Y-121678197D01*
X142722037Y-121688961D01*
X142583870Y-121690595D01*
X142332581Y-121694095D01*
X142138298Y-121698132D01*
X141992425Y-121703398D01*
X141886363Y-121710591D01*
X141811516Y-121720404D01*
X141759287Y-121733532D01*
X141721077Y-121750670D01*
X141688292Y-121772514D01*
X141592660Y-121858440D01*
X141484116Y-122022183D01*
X141434150Y-122204947D01*
X141261743Y-122204947D01*
X141266056Y-122107340D01*
X141301586Y-121941475D01*
X141376087Y-121803972D01*
X141498488Y-121673128D01*
X141643641Y-121542146D01*
X142712917Y-121551347D01*
X143782193Y-121560547D01*
X143792722Y-121686499D01*
X143788487Y-121773689D01*
X143752646Y-121889360D01*
X143678099Y-122040137D01*
X143621910Y-122149356D01*
X143585078Y-122247462D01*
X143591580Y-122291700D01*
X143605979Y-122303419D01*
X143659462Y-122362002D01*
X143724418Y-122445622D01*
X143818622Y-122575668D01*
X143805077Y-122335939D01*
X143802909Y-122223539D01*
X143832068Y-122004633D01*
X143911634Y-121822828D01*
X144045685Y-121666781D01*
X144183331Y-121542427D01*
X145722488Y-121551487D01*
X147261645Y-121560547D01*
X147271649Y-121882397D01*
X147281653Y-122204246D01*
X147644384Y-122204246D01*
X148007116Y-122204246D01*
X148017120Y-121882397D01*
X148027124Y-121560547D01*
X149505891Y-121551357D01*
X149545523Y-121551116D01*
X149947247Y-121549467D01*
X150282867Y-121549724D01*
X150555557Y-121551948D01*
X150768492Y-121556200D01*
X150924845Y-121562542D01*
X151027791Y-121571035D01*
X151080504Y-121581740D01*
X151101891Y-121592093D01*
X151191734Y-121654770D01*
X151278621Y-121737796D01*
X151380893Y-121854278D01*
X151391543Y-121707412D01*
X151393362Y-121682328D01*
X151523974Y-121682328D01*
X151523974Y-121943287D01*
X151523974Y-122204246D01*
X151941508Y-122204246D01*
X152359042Y-122204246D01*
X152359042Y-122865342D01*
X152359042Y-123526438D01*
X152672193Y-123526438D01*
X152985343Y-123526438D01*
X152985343Y-122866749D01*
X152985343Y-122207060D01*
X153270201Y-122196954D01*
X153555058Y-122186849D01*
X153690629Y-121934588D01*
X153826199Y-121682328D01*
X152675086Y-121682328D01*
X151523974Y-121682328D01*
X151393362Y-121682328D01*
X151402193Y-121560547D01*
X152689590Y-121560547D01*
X153976987Y-121560547D01*
X153987574Y-121669385D01*
X153986250Y-121682328D01*
X153978433Y-121758772D01*
G37*
G36*
X174127640Y-123006299D02*
G01*
X174116453Y-123141736D01*
X174103164Y-123224245D01*
X174079480Y-123284633D01*
X174006929Y-123400082D01*
X173910344Y-123510830D01*
X173807698Y-123597494D01*
X173716964Y-123640695D01*
X173710413Y-123641615D01*
X173641428Y-123645722D01*
X173514557Y-123649704D01*
X173339357Y-123653387D01*
X173125387Y-123656594D01*
X172882207Y-123659149D01*
X172619376Y-123660877D01*
X172343653Y-123661998D01*
X172108904Y-123662246D01*
X171928863Y-123661062D01*
X171795840Y-123657991D01*
X171702145Y-123652574D01*
X171640088Y-123644355D01*
X171601978Y-123632877D01*
X171580126Y-123617682D01*
X171566842Y-123598314D01*
X171547946Y-123557325D01*
X171542200Y-123526438D01*
X171667639Y-123526438D01*
X172637921Y-123526438D01*
X172905153Y-123526299D01*
X173133564Y-123525458D01*
X173308867Y-123523298D01*
X173439604Y-123519203D01*
X173534319Y-123512557D01*
X173601557Y-123502745D01*
X173649860Y-123489151D01*
X173687773Y-123471158D01*
X173723839Y-123448150D01*
X173758933Y-123420524D01*
X173848768Y-123324284D01*
X173923478Y-123213287D01*
X173927383Y-123205991D01*
X173959919Y-123140892D01*
X173981300Y-123080291D01*
X173992949Y-123009394D01*
X173996290Y-122913407D01*
X173992747Y-122777535D01*
X173983742Y-122586986D01*
X173971063Y-122379280D01*
X173952576Y-122200895D01*
X173925948Y-122067290D01*
X173887431Y-121965360D01*
X173833274Y-121882001D01*
X173759728Y-121804109D01*
X173648829Y-121699725D01*
X172659415Y-121689499D01*
X171670001Y-121679273D01*
X171670001Y-121682328D01*
X171670001Y-122063540D01*
X171670001Y-122447808D01*
X172000549Y-122447808D01*
X172331097Y-122447808D01*
X172331097Y-122326027D01*
X172331097Y-122204246D01*
X172816167Y-122204246D01*
X172865071Y-122204405D01*
X173040175Y-122207810D01*
X173182955Y-122215031D01*
X173280994Y-122225248D01*
X173321876Y-122237641D01*
X173327112Y-122266208D01*
X173329572Y-122353738D01*
X173326777Y-122482718D01*
X173318851Y-122637059D01*
X173295187Y-123003083D01*
X172620681Y-123012500D01*
X171946174Y-123021917D01*
X171806907Y-123274177D01*
X171667639Y-123526438D01*
X171542200Y-123526438D01*
X171534900Y-123487194D01*
X171549865Y-123404908D01*
X171596558Y-123295345D01*
X171678700Y-123143382D01*
X171826576Y-122882739D01*
X172496371Y-122873289D01*
X173166165Y-122863839D01*
X173166165Y-122603632D01*
X173166165Y-122343424D01*
X172837822Y-122343424D01*
X172509478Y-122343424D01*
X172498575Y-122456506D01*
X172487672Y-122569588D01*
X172017946Y-122569588D01*
X171548220Y-122569588D01*
X171530823Y-122262898D01*
X171513426Y-121956208D01*
X171008905Y-122582628D01*
X170504384Y-123209049D01*
X170486987Y-123428634D01*
X170469590Y-123648218D01*
X170034658Y-123648218D01*
X169599727Y-123648218D01*
X169589250Y-123426215D01*
X169578773Y-123204211D01*
X169067332Y-122577625D01*
X168555891Y-121951039D01*
X168546537Y-122762059D01*
X168543123Y-122984709D01*
X168535873Y-123247804D01*
X168525885Y-123441460D01*
X168516883Y-123529331D01*
X168513154Y-123565732D01*
X168497679Y-123620679D01*
X168479932Y-123632256D01*
X168437076Y-123643091D01*
X168364136Y-123651203D01*
X168254529Y-123656802D01*
X168101675Y-123660096D01*
X167898992Y-123661295D01*
X167639898Y-123660610D01*
X167317812Y-123658248D01*
X167161582Y-123656844D01*
X166879376Y-123653939D01*
X166655493Y-123650695D01*
X166482289Y-123646603D01*
X166352120Y-123641154D01*
X166257344Y-123633839D01*
X166190314Y-123624147D01*
X166143389Y-123611569D01*
X166108923Y-123595598D01*
X166079273Y-123575722D01*
X166078328Y-123575021D01*
X165988963Y-123491976D01*
X165911508Y-123394391D01*
X165900230Y-123377104D01*
X165852299Y-123311473D01*
X165823325Y-123284216D01*
X165821083Y-123284625D01*
X165789606Y-123317017D01*
X165744058Y-123385588D01*
X165738848Y-123394057D01*
X165663656Y-123486464D01*
X165571282Y-123568259D01*
X165459179Y-123648218D01*
X163928220Y-123648218D01*
X162397261Y-123648218D01*
X162379864Y-123361671D01*
X162362467Y-123075124D01*
X162031919Y-123370615D01*
X161701371Y-123666107D01*
X161127261Y-123657163D01*
X160553152Y-123648218D01*
X160541864Y-123529986D01*
X160541481Y-123523415D01*
X160657535Y-123523415D01*
X161135773Y-123524926D01*
X161614012Y-123526438D01*
X161999853Y-123171320D01*
X162025404Y-123147784D01*
X162167019Y-123015879D01*
X162265015Y-122919901D01*
X162326621Y-122850819D01*
X162359065Y-122799602D01*
X162369576Y-122757220D01*
X162365381Y-122714642D01*
X162351506Y-122613402D01*
X162345069Y-122495650D01*
X162345069Y-122378218D01*
X161855526Y-122378218D01*
X161756101Y-122378184D01*
X161592407Y-122377261D01*
X161482879Y-122373774D01*
X161417051Y-122366011D01*
X161384457Y-122352257D01*
X161374629Y-122330802D01*
X161377101Y-122299931D01*
X161383207Y-122271499D01*
X161398933Y-122250553D01*
X161434228Y-122235998D01*
X161499096Y-122226354D01*
X161603537Y-122220143D01*
X161757556Y-122215885D01*
X161971153Y-122212103D01*
X162554087Y-122202562D01*
X162531068Y-122864500D01*
X162508049Y-123526438D01*
X162849595Y-123526438D01*
X163191141Y-123526438D01*
X163172900Y-123004520D01*
X163388905Y-123004520D01*
X163388905Y-123265479D01*
X163388905Y-123526438D01*
X164358006Y-123526438D01*
X164623472Y-123526301D01*
X164852052Y-123525464D01*
X165027483Y-123523309D01*
X165158315Y-123519219D01*
X165253099Y-123512578D01*
X165320383Y-123502767D01*
X165368718Y-123489170D01*
X165406655Y-123471170D01*
X165442743Y-123448150D01*
X165477609Y-123420696D01*
X165567230Y-123324407D01*
X165641507Y-123213287D01*
X165673021Y-123150765D01*
X165696293Y-123088643D01*
X165709331Y-123018240D01*
X165713661Y-122924260D01*
X165711952Y-122844584D01*
X165936707Y-122844584D01*
X165938873Y-122924260D01*
X165940599Y-122987736D01*
X165977708Y-123140519D01*
X166045271Y-123286048D01*
X166140526Y-123407437D01*
X166246527Y-123509040D01*
X167328484Y-123519186D01*
X168410440Y-123529331D01*
X168387481Y-122843796D01*
X168380496Y-122623829D01*
X168374102Y-122399080D01*
X168369044Y-122195932D01*
X168365718Y-122030365D01*
X168364521Y-121918362D01*
X168364521Y-121715897D01*
X168624723Y-121715897D01*
X168634720Y-121729763D01*
X168682837Y-121791874D01*
X168762390Y-121892409D01*
X168865283Y-122021166D01*
X168983420Y-122167940D01*
X169056606Y-122258553D01*
X169241194Y-122487375D01*
X169388030Y-122670934D01*
X169501430Y-122815932D01*
X169585709Y-122929069D01*
X169645184Y-123017048D01*
X169684168Y-123086568D01*
X169706977Y-123144331D01*
X169717926Y-123197037D01*
X169721332Y-123251389D01*
X169721508Y-123314086D01*
X169721508Y-123526438D01*
X170034658Y-123526438D01*
X170347809Y-123526438D01*
X170347809Y-123338867D01*
X170347810Y-123337508D01*
X170356302Y-123208530D01*
X170389849Y-123106829D01*
X170460891Y-122994529D01*
X170550658Y-122871451D01*
X170737334Y-122623887D01*
X170946479Y-122357547D01*
X171190586Y-122056369D01*
X171497431Y-121682328D01*
X171087894Y-121683775D01*
X170678357Y-121685222D01*
X170372102Y-122066515D01*
X170332732Y-122115274D01*
X170224985Y-122245955D01*
X170134887Y-122351251D01*
X170070916Y-122421409D01*
X170041554Y-122446676D01*
X170035470Y-122443081D01*
X169992196Y-122400053D01*
X169916847Y-122316061D01*
X169817969Y-122200797D01*
X169704111Y-122063958D01*
X169390960Y-121682371D01*
X168997468Y-121682350D01*
X168876754Y-121683540D01*
X168733995Y-121689738D01*
X168647835Y-121700717D01*
X168624723Y-121715897D01*
X168364521Y-121715897D01*
X168364521Y-121678463D01*
X167340559Y-121689094D01*
X167079517Y-121691967D01*
X166838768Y-121695355D01*
X166652382Y-121699418D01*
X166512233Y-121704755D01*
X166410194Y-121711964D01*
X166338137Y-121721641D01*
X166287935Y-121734385D01*
X166251460Y-121750794D01*
X166220586Y-121771464D01*
X166107024Y-121873579D01*
X166013505Y-122022685D01*
X165971284Y-122207146D01*
X165967291Y-122261140D01*
X165975118Y-122394352D01*
X166016747Y-122506106D01*
X166026900Y-122525078D01*
X166058780Y-122594465D01*
X166056141Y-122633488D01*
X166019393Y-122667108D01*
X165968795Y-122727952D01*
X165936707Y-122844584D01*
X165711952Y-122844584D01*
X165710811Y-122791407D01*
X165702310Y-122604383D01*
X165699148Y-122542310D01*
X165685553Y-122330256D01*
X165668126Y-122171849D01*
X165643434Y-122054304D01*
X165608044Y-121964837D01*
X165558523Y-121890663D01*
X165491440Y-121818998D01*
X165368436Y-121699725D01*
X164378671Y-121689499D01*
X163388905Y-121679273D01*
X163388905Y-121941759D01*
X163388905Y-122204246D01*
X164202854Y-122204246D01*
X164264539Y-122204265D01*
X164512580Y-122205005D01*
X164701039Y-122207212D01*
X164838154Y-122211432D01*
X164932162Y-122218206D01*
X164991301Y-122228077D01*
X165023809Y-122241589D01*
X165037922Y-122259283D01*
X165048218Y-122287972D01*
X165059042Y-122328872D01*
X165043192Y-122332287D01*
X164969141Y-122336714D01*
X164844991Y-122340244D01*
X164682288Y-122342580D01*
X164492575Y-122343424D01*
X163926109Y-122343424D01*
X164048945Y-122604265D01*
X164171782Y-122865106D01*
X164598015Y-122865224D01*
X164645486Y-122865342D01*
X164733186Y-122865560D01*
X164868412Y-122867917D01*
X164953715Y-122874165D01*
X165000510Y-122886172D01*
X165020216Y-122905805D01*
X165024247Y-122934931D01*
X165024217Y-122938710D01*
X165020728Y-122959887D01*
X165005588Y-122975955D01*
X164970520Y-122987618D01*
X164907248Y-122995581D01*
X164807494Y-123000548D01*
X164662982Y-123003224D01*
X164465435Y-123004313D01*
X164206576Y-123004520D01*
X163388905Y-123004520D01*
X163172900Y-123004520D01*
X163168340Y-122874040D01*
X163162327Y-122692426D01*
X163155619Y-122464144D01*
X163152571Y-122343424D01*
X163319316Y-122343424D01*
X163319316Y-122604383D01*
X163319316Y-122865342D01*
X163646824Y-122865342D01*
X163974332Y-122865342D01*
X163873619Y-122682671D01*
X163831587Y-122599373D01*
X163789018Y-122494142D01*
X163772275Y-122421712D01*
X163772190Y-122415853D01*
X163765024Y-122376053D01*
X163735296Y-122354320D01*
X163667337Y-122345247D01*
X163545480Y-122343424D01*
X163319316Y-122343424D01*
X163152571Y-122343424D01*
X163150278Y-122252585D01*
X163146741Y-122075352D01*
X163145442Y-121950053D01*
X163145343Y-121678463D01*
X162121381Y-121689094D01*
X161860339Y-121691967D01*
X161619589Y-121695355D01*
X161433204Y-121699418D01*
X161293055Y-121704755D01*
X161191016Y-121711964D01*
X161118959Y-121721641D01*
X161068756Y-121734385D01*
X161032282Y-121750794D01*
X161001407Y-121771464D01*
X160974981Y-121791809D01*
X160852854Y-121914491D01*
X160782286Y-122056116D01*
X160751249Y-122239175D01*
X160747173Y-122308414D01*
X160750584Y-122414634D01*
X160775483Y-122497900D01*
X160828675Y-122588946D01*
X160864350Y-122638091D01*
X160979824Y-122755206D01*
X161105739Y-122835386D01*
X161222946Y-122865212D01*
X161271776Y-122870991D01*
X161301872Y-122891438D01*
X161301505Y-122893112D01*
X161272037Y-122930693D01*
X161202216Y-123004342D01*
X161101669Y-123104217D01*
X160980022Y-123220474D01*
X160657535Y-123523415D01*
X160541481Y-123523415D01*
X160539988Y-123497812D01*
X160548144Y-123439153D01*
X160579928Y-123377676D01*
X160644402Y-123298474D01*
X160750631Y-123186639D01*
X160795700Y-123139404D01*
X160878932Y-123043653D01*
X160925752Y-122975905D01*
X160928939Y-122945911D01*
X160914102Y-122940038D01*
X160771848Y-122844584D01*
X160663616Y-122696595D01*
X160594929Y-122506299D01*
X160571313Y-122283920D01*
X160573344Y-122209956D01*
X160608562Y-121989675D01*
X160691479Y-121809224D01*
X160827256Y-121655934D01*
X160955710Y-121543150D01*
X163183077Y-121543150D01*
X163557998Y-121543111D01*
X163965697Y-121543185D01*
X164313241Y-121543798D01*
X164605859Y-121545378D01*
X164848782Y-121548354D01*
X165047239Y-121553157D01*
X165206460Y-121560214D01*
X165331674Y-121569956D01*
X165428111Y-121582813D01*
X165501000Y-121599212D01*
X165555571Y-121619584D01*
X165597054Y-121644357D01*
X165630678Y-121673962D01*
X165661673Y-121708827D01*
X165695268Y-121749382D01*
X165708989Y-121765926D01*
X165768834Y-121843805D01*
X165803796Y-121898508D01*
X165823186Y-121922931D01*
X165847118Y-121891095D01*
X165870736Y-121854793D01*
X165933411Y-121779457D01*
X166016513Y-121691027D01*
X166163310Y-121543150D01*
X167836811Y-121543150D01*
X169510313Y-121543150D01*
X169763787Y-121838695D01*
X169854435Y-121942677D01*
X169944462Y-122042013D01*
X170009751Y-122109509D01*
X170040284Y-122134448D01*
X170062006Y-122117187D01*
X170119837Y-122055309D01*
X170202861Y-121959015D01*
X170301243Y-121839423D01*
X170539179Y-121544189D01*
X172115359Y-121543669D01*
X172175496Y-121543649D01*
X172549817Y-121543630D01*
X172861841Y-121544265D01*
X173117934Y-121546174D01*
X173324460Y-121549976D01*
X173487785Y-121556293D01*
X173614274Y-121565744D01*
X173710291Y-121578949D01*
X173782202Y-121596528D01*
X173836371Y-121619102D01*
X173879164Y-121647290D01*
X173916945Y-121681713D01*
X173956080Y-121722990D01*
X174019672Y-121800381D01*
X174070267Y-121891213D01*
X174104951Y-122001932D01*
X174126392Y-122144914D01*
X174137258Y-122332534D01*
X174140218Y-122577169D01*
X174139898Y-122643248D01*
X174135773Y-122834586D01*
X174132040Y-122913407D01*
X174127640Y-123006299D01*
G37*
G36*
X151478500Y-114699999D02*
G01*
X151478500Y-120686178D01*
X151403485Y-120686178D01*
X151328470Y-120686178D01*
X151328470Y-114699999D01*
X151328470Y-108713821D01*
X151403485Y-108713821D01*
X151478500Y-108713821D01*
X151478500Y-114699999D01*
G37*
G36*
X158019788Y-114917542D02*
G01*
X158019788Y-115180094D01*
X157704726Y-115180094D01*
X157389663Y-115180094D01*
X157389663Y-114917542D01*
X157389663Y-114654991D01*
X157704726Y-114654991D01*
X158019788Y-114654991D01*
X158019788Y-114917542D01*
G37*
G36*
X173217779Y-114917542D02*
G01*
X173217779Y-115180094D01*
X172895216Y-115180094D01*
X172572652Y-115180094D01*
X172572652Y-114917542D01*
X172572652Y-114654991D01*
X172895216Y-114654991D01*
X173217779Y-114654991D01*
X173217779Y-114917542D01*
G37*
G36*
X158379858Y-115637684D02*
G01*
X158379858Y-115885233D01*
X158192095Y-115885233D01*
X158004331Y-115885233D01*
X158008309Y-116324069D01*
X158012286Y-116762906D01*
X158308594Y-116766973D01*
X158604903Y-116771041D01*
X158604903Y-117010771D01*
X158604903Y-117250502D01*
X157719728Y-117250502D01*
X156834554Y-117250502D01*
X156834554Y-117010454D01*
X156834554Y-116770407D01*
X157112109Y-116770407D01*
X157389663Y-116770407D01*
X157389663Y-116080271D01*
X157389663Y-115390135D01*
X157884761Y-115390135D01*
X158379858Y-115390135D01*
X158379858Y-115637684D01*
G37*
G36*
X173562847Y-115637684D02*
G01*
X173562847Y-115885233D01*
X173382585Y-115885233D01*
X173202323Y-115885233D01*
X173206300Y-116324069D01*
X173210278Y-116762906D01*
X173506586Y-116766973D01*
X173802894Y-116771041D01*
X173802894Y-117010771D01*
X173802894Y-117250502D01*
X172917720Y-117250502D01*
X172032546Y-117250502D01*
X172032546Y-117010793D01*
X172032546Y-116771084D01*
X172306350Y-116766995D01*
X172580154Y-116762906D01*
X172584056Y-116076520D01*
X172587958Y-115390135D01*
X173075403Y-115390135D01*
X173562847Y-115390135D01*
X173562847Y-115637684D01*
G37*
G36*
X159734922Y-115357762D02*
G01*
X159870473Y-115384732D01*
X159992629Y-115438024D01*
X160102282Y-115517888D01*
X160140480Y-115549786D01*
X160170637Y-115570378D01*
X160185666Y-115574720D01*
X160189761Y-115562116D01*
X160193695Y-115526405D01*
X160195216Y-115477653D01*
X160195216Y-115390135D01*
X160495275Y-115390135D01*
X160795334Y-115390135D01*
X160795334Y-116320318D01*
X160795334Y-117250502D01*
X160487773Y-117250502D01*
X160180213Y-117250502D01*
X160180213Y-116666386D01*
X160180213Y-116082271D01*
X160107725Y-116007850D01*
X160065991Y-115967827D01*
X159985550Y-115908718D01*
X159904339Y-115874901D01*
X159817156Y-115863796D01*
X159809499Y-115863815D01*
X159739076Y-115872847D01*
X159684360Y-115899520D01*
X159644011Y-115946030D01*
X159616687Y-116014574D01*
X159601048Y-116107349D01*
X159595754Y-116226550D01*
X159595098Y-116380330D01*
X159285383Y-116380330D01*
X158975668Y-116380330D01*
X158984537Y-116151535D01*
X158991603Y-116024313D01*
X159003674Y-115910101D01*
X159021375Y-115814934D01*
X159045764Y-115733225D01*
X159077901Y-115659389D01*
X159110796Y-115603498D01*
X159190599Y-115511614D01*
X159291252Y-115439542D01*
X159410501Y-115388719D01*
X159546093Y-115360585D01*
X159585084Y-115356859D01*
X159734922Y-115357762D01*
G37*
G36*
X170692331Y-115378499D02*
G01*
X170831246Y-115430806D01*
X170961080Y-115511101D01*
X171057354Y-115583971D01*
X171057354Y-115487053D01*
X171057354Y-115390135D01*
X171357413Y-115390135D01*
X171657472Y-115390135D01*
X171657472Y-116320318D01*
X171657472Y-117250502D01*
X171349912Y-117250502D01*
X171042351Y-117250502D01*
X171042351Y-116681244D01*
X171042351Y-116111987D01*
X170959992Y-116023030D01*
X170914791Y-115978191D01*
X170827349Y-115914168D01*
X170739010Y-115879549D01*
X170648950Y-115873940D01*
X170592501Y-115885276D01*
X170537329Y-115916834D01*
X170531922Y-115921846D01*
X170513654Y-115939985D01*
X170498637Y-115958993D01*
X170486552Y-115981782D01*
X170477081Y-116011267D01*
X170469906Y-116050362D01*
X170464708Y-116101980D01*
X170461169Y-116169035D01*
X170458971Y-116254441D01*
X170457795Y-116361112D01*
X170457322Y-116491961D01*
X170457236Y-116649902D01*
X170457236Y-117250502D01*
X170149675Y-117250502D01*
X169842115Y-117250502D01*
X169842115Y-116599921D01*
X169842159Y-116547076D01*
X169842745Y-116402779D01*
X169843960Y-116268800D01*
X169845735Y-116148421D01*
X169848004Y-116044923D01*
X169850699Y-115961588D01*
X169853753Y-115901695D01*
X169857100Y-115868527D01*
X169860796Y-115850185D01*
X169898224Y-115733390D01*
X169955859Y-115625370D01*
X170029706Y-115531358D01*
X170115769Y-115456587D01*
X170210052Y-115406290D01*
X170247563Y-115393205D01*
X170397844Y-115359329D01*
X170546982Y-115354551D01*
X170692331Y-115378499D01*
G37*
G36*
X166136385Y-115956754D02*
G01*
X166136385Y-116523374D01*
X166205693Y-116602603D01*
X166242268Y-116641634D01*
X166330559Y-116713406D01*
X166421656Y-116756077D01*
X166516710Y-116770266D01*
X166553107Y-116769686D01*
X166592663Y-116764250D01*
X166622231Y-116749456D01*
X166653941Y-116720943D01*
X166664444Y-116709527D01*
X166698176Y-116661006D01*
X166719870Y-116612172D01*
X166720576Y-116609323D01*
X166725286Y-116571727D01*
X166729203Y-116505291D01*
X166732301Y-116411033D01*
X166734554Y-116289970D01*
X166735936Y-116143120D01*
X166736420Y-115971500D01*
X166736503Y-115390135D01*
X167044064Y-115390135D01*
X167351624Y-115390135D01*
X167351364Y-116031512D01*
X167351355Y-116049354D01*
X167351040Y-116218896D01*
X167350128Y-116361811D01*
X167348351Y-116481178D01*
X167345444Y-116580080D01*
X167341139Y-116661596D01*
X167335167Y-116728806D01*
X167327263Y-116784791D01*
X167317158Y-116832632D01*
X167304586Y-116875409D01*
X167289279Y-116916203D01*
X167270970Y-116958093D01*
X167247347Y-117003194D01*
X167174469Y-117099718D01*
X167081204Y-117180837D01*
X166973305Y-117242096D01*
X166856527Y-117279038D01*
X166774165Y-117290813D01*
X166622795Y-117290381D01*
X166475925Y-117261929D01*
X166337484Y-117206394D01*
X166211400Y-117124719D01*
X166143887Y-117070960D01*
X166131325Y-117160731D01*
X166118763Y-117250502D01*
X165820013Y-117250502D01*
X165521264Y-117250502D01*
X165521264Y-116320318D01*
X165521264Y-115390135D01*
X165828825Y-115390135D01*
X166136385Y-115390135D01*
X166136385Y-115956754D01*
G37*
G36*
X162303131Y-114922054D02*
G01*
X162610691Y-115051007D01*
X162610691Y-115220571D01*
X162610691Y-115390135D01*
X162790727Y-115390135D01*
X162970762Y-115390135D01*
X162970762Y-115637684D01*
X162970762Y-115885233D01*
X162790727Y-115885233D01*
X162610691Y-115885233D01*
X162610431Y-116264057D01*
X162610092Y-116354986D01*
X162608105Y-116485021D01*
X162603919Y-116591681D01*
X162597044Y-116679091D01*
X162586991Y-116751374D01*
X162573273Y-116812655D01*
X162555401Y-116867057D01*
X162532886Y-116918704D01*
X162483738Y-117000407D01*
X162398113Y-117092960D01*
X162290601Y-117167335D01*
X162163638Y-117221534D01*
X162142290Y-117227798D01*
X162111123Y-117234688D01*
X162073702Y-117239959D01*
X162026070Y-117243831D01*
X161964268Y-117246521D01*
X161884336Y-117248249D01*
X161782318Y-117249234D01*
X161654253Y-117249695D01*
X161230420Y-117250502D01*
X161230420Y-117010454D01*
X161230420Y-116770407D01*
X161451713Y-116769944D01*
X161470374Y-116769858D01*
X161560704Y-116768283D01*
X161648788Y-116765081D01*
X161725374Y-116760659D01*
X161781208Y-116755424D01*
X161815651Y-116750695D01*
X161867569Y-116740999D01*
X161908407Y-116726955D01*
X161939495Y-116705354D01*
X161962159Y-116672990D01*
X161977726Y-116626657D01*
X161987524Y-116563148D01*
X161992879Y-116479256D01*
X161995118Y-116371775D01*
X161995570Y-116237499D01*
X161995570Y-115885233D01*
X161763024Y-115885233D01*
X161530479Y-115885233D01*
X161530479Y-115637684D01*
X161530479Y-115390135D01*
X161763024Y-115390135D01*
X161995570Y-115390135D01*
X161995570Y-115091618D01*
X161995570Y-114793100D01*
X162303131Y-114922054D01*
G37*
G36*
X156474483Y-113070920D02*
G01*
X156474483Y-114234908D01*
X156152196Y-114234908D01*
X155829909Y-114234908D01*
X155825882Y-113886089D01*
X155821855Y-113537271D01*
X155574306Y-113528620D01*
X155459996Y-113523270D01*
X155353699Y-113514101D01*
X155264610Y-113500257D01*
X155185987Y-113480343D01*
X155111089Y-113452966D01*
X155033176Y-113416732D01*
X154948109Y-113367018D01*
X154833576Y-113273174D01*
X154740133Y-113161193D01*
X154669560Y-113034532D01*
X154623640Y-112896645D01*
X154604159Y-112751047D01*
X155276971Y-112751047D01*
X155297324Y-112835815D01*
X155322232Y-112885674D01*
X155365074Y-112936200D01*
X155427430Y-112976256D01*
X155440122Y-112982263D01*
X155473478Y-112993350D01*
X155516062Y-113000208D01*
X155574784Y-113003694D01*
X155656556Y-113004666D01*
X155830018Y-113004666D01*
X155825937Y-112723360D01*
X155821855Y-112442055D01*
X155686828Y-112437570D01*
X155568941Y-112439263D01*
X155472376Y-112454237D01*
X155397688Y-112483714D01*
X155342100Y-112528799D01*
X155302834Y-112590600D01*
X155281102Y-112660922D01*
X155276971Y-112751047D01*
X154604159Y-112751047D01*
X154604151Y-112750989D01*
X154612875Y-112601021D01*
X154619559Y-112563138D01*
X154662486Y-112417383D01*
X154729935Y-112288790D01*
X154821644Y-112177627D01*
X154937354Y-112084164D01*
X155076803Y-112008672D01*
X155239733Y-111951420D01*
X155259126Y-111946244D01*
X155291217Y-111938739D01*
X155325372Y-111932652D01*
X155365083Y-111927784D01*
X155413843Y-111923936D01*
X155475145Y-111920911D01*
X155552481Y-111918510D01*
X155649344Y-111916536D01*
X155769227Y-111914790D01*
X155915623Y-111913073D01*
X156474483Y-111906932D01*
X156474483Y-113004666D01*
X156474483Y-113070920D01*
G37*
G36*
X153303437Y-112153248D02*
G01*
X153352326Y-112219623D01*
X153425089Y-112320309D01*
X153498696Y-112424022D01*
X153566803Y-112521798D01*
X153623062Y-112604676D01*
X153657651Y-112656240D01*
X153699631Y-112717632D01*
X153733608Y-112765920D01*
X153756758Y-112797112D01*
X153766259Y-112807216D01*
X153766695Y-112802549D01*
X153764888Y-112773602D01*
X153759989Y-112722857D01*
X153752530Y-112655592D01*
X153743044Y-112577082D01*
X153733214Y-112485536D01*
X153723538Y-112362979D01*
X153716939Y-112239657D01*
X153714391Y-112130744D01*
X153713940Y-111909450D01*
X154036503Y-111909450D01*
X154359067Y-111909450D01*
X154359067Y-113072179D01*
X154359067Y-114234908D01*
X154036503Y-114234908D01*
X153713940Y-114234908D01*
X153713940Y-113925273D01*
X153713940Y-113615637D01*
X153628762Y-113504431D01*
X153608545Y-113478265D01*
X153572679Y-113433049D01*
X153545446Y-113400308D01*
X153531555Y-113385789D01*
X153527779Y-113388944D01*
X153511675Y-113413867D01*
X153484961Y-113460830D01*
X153449314Y-113526710D01*
X153406410Y-113608386D01*
X153357928Y-113702734D01*
X153305544Y-113806631D01*
X153091562Y-114234908D01*
X152727618Y-114234908D01*
X152653783Y-114234758D01*
X152560219Y-114234099D01*
X152480348Y-114232986D01*
X152418248Y-114231500D01*
X152377997Y-114229722D01*
X152363674Y-114227733D01*
X152364888Y-114224854D01*
X152377188Y-114200245D01*
X152401694Y-114152640D01*
X152437108Y-114084519D01*
X152482133Y-113998364D01*
X152535471Y-113896653D01*
X152595824Y-113781869D01*
X152661894Y-113656491D01*
X152732383Y-113523000D01*
X152789340Y-113414909D01*
X152867828Y-113264644D01*
X152935440Y-113133489D01*
X152991579Y-113022642D01*
X153035650Y-112933301D01*
X153067054Y-112866663D01*
X153085197Y-112823924D01*
X153089481Y-112806283D01*
X153086039Y-112801443D01*
X153066855Y-112775742D01*
X153033212Y-112731183D01*
X152987595Y-112671022D01*
X152932489Y-112598520D01*
X152870380Y-112516933D01*
X152803753Y-112429520D01*
X152735095Y-112339540D01*
X152666889Y-112250251D01*
X152601623Y-112164910D01*
X152541781Y-112086777D01*
X152489848Y-112019110D01*
X152448311Y-111965166D01*
X152419655Y-111928204D01*
X152418534Y-111924748D01*
X152426855Y-111919433D01*
X152451090Y-111915430D01*
X152494056Y-111912583D01*
X152558571Y-111910740D01*
X152647451Y-111909747D01*
X152763515Y-111909450D01*
X153122021Y-111909450D01*
X153303437Y-112153248D01*
G37*
G36*
X169560462Y-116370557D02*
G01*
X169552562Y-116495964D01*
X169535069Y-116605375D01*
X169507967Y-116702224D01*
X169448158Y-116845185D01*
X169369857Y-116973381D01*
X169275743Y-117083849D01*
X169168495Y-117173629D01*
X169050790Y-117239760D01*
X168925309Y-117279283D01*
X168876419Y-117287050D01*
X168736856Y-117291811D01*
X168599877Y-117272785D01*
X168531688Y-117254467D01*
X168466132Y-117229209D01*
X168403027Y-117194028D01*
X168330567Y-117143249D01*
X168251802Y-117084497D01*
X168251802Y-117167499D01*
X168251802Y-117250502D01*
X167951743Y-117250502D01*
X167651684Y-117250502D01*
X167651684Y-116388872D01*
X168268631Y-116388872D01*
X168270498Y-116465316D01*
X168274432Y-116524618D01*
X168280176Y-116560366D01*
X168289931Y-116586128D01*
X168329875Y-116651886D01*
X168384627Y-116711516D01*
X168444541Y-116753674D01*
X168455146Y-116758781D01*
X168547984Y-116787266D01*
X168638147Y-116787288D01*
X168722731Y-116760227D01*
X168798834Y-116707465D01*
X168863555Y-116630383D01*
X168913989Y-116530360D01*
X168924003Y-116499087D01*
X168939849Y-116414451D01*
X168946410Y-116319271D01*
X168943173Y-116226115D01*
X168929624Y-116147554D01*
X168918668Y-116114884D01*
X168877248Y-116032926D01*
X168821850Y-115959260D01*
X168760049Y-115904730D01*
X168731391Y-115887137D01*
X168694460Y-115871659D01*
X168651016Y-115864481D01*
X168589368Y-115862728D01*
X168544422Y-115863496D01*
X168496421Y-115868702D01*
X168458696Y-115881297D01*
X168419617Y-115904115D01*
X168404614Y-115914930D01*
X168355514Y-115959635D01*
X168315692Y-116007968D01*
X168310396Y-116016038D01*
X168295670Y-116040901D01*
X168285400Y-116066120D01*
X168278611Y-116097625D01*
X168274324Y-116141344D01*
X168271562Y-116203208D01*
X168269347Y-116289145D01*
X168269087Y-116301698D01*
X168268631Y-116388872D01*
X167651684Y-116388872D01*
X167651684Y-116020259D01*
X167651684Y-114790017D01*
X167958986Y-114790017D01*
X168266289Y-114790017D01*
X168270298Y-115167290D01*
X168274306Y-115544563D01*
X168321605Y-115504752D01*
X168388639Y-115459148D01*
X168476680Y-115415996D01*
X168572385Y-115381737D01*
X168664383Y-115361134D01*
X168666024Y-115360904D01*
X168814618Y-115354216D01*
X168955246Y-115375501D01*
X169086063Y-115423369D01*
X169205225Y-115496427D01*
X169310889Y-115593287D01*
X169401209Y-115712555D01*
X169474341Y-115852843D01*
X169528441Y-116012758D01*
X169547981Y-116116616D01*
X169558893Y-116240370D01*
X169559844Y-116319271D01*
X169560462Y-116370557D01*
G37*
G36*
X156496997Y-116057767D02*
G01*
X156501317Y-116080725D01*
X156512588Y-116176411D01*
X156517769Y-116286997D01*
X156516865Y-116401412D01*
X156509880Y-116508584D01*
X156496816Y-116597443D01*
X156475319Y-116680654D01*
X156415155Y-116828489D01*
X156331548Y-116958640D01*
X156225955Y-117069708D01*
X156099836Y-117160292D01*
X155954648Y-117228991D01*
X155791849Y-117274406D01*
X155780430Y-117276537D01*
X155657624Y-117290161D01*
X155522478Y-117290967D01*
X155383241Y-117279912D01*
X155248166Y-117257955D01*
X155125501Y-117226055D01*
X155023498Y-117185168D01*
X154915471Y-117120732D01*
X154811417Y-117031328D01*
X154729167Y-116924175D01*
X154666861Y-116796775D01*
X154622642Y-116646633D01*
X154613545Y-116605375D01*
X154919572Y-116605375D01*
X155225598Y-116605375D01*
X155244966Y-116652133D01*
X155250910Y-116664824D01*
X155295107Y-116720206D01*
X155360290Y-116764097D01*
X155439970Y-116793902D01*
X155527660Y-116807027D01*
X155616872Y-116800876D01*
X155696673Y-116775889D01*
X155777621Y-116723337D01*
X155840388Y-116647851D01*
X155883131Y-116551156D01*
X155889207Y-116532215D01*
X155898498Y-116505189D01*
X155904714Y-116483103D01*
X155905408Y-116465463D01*
X155898132Y-116451776D01*
X155880438Y-116441548D01*
X155849878Y-116434286D01*
X155804004Y-116429495D01*
X155740368Y-116426682D01*
X155656522Y-116425354D01*
X155550018Y-116425017D01*
X155418408Y-116425176D01*
X155259244Y-116425339D01*
X154614117Y-116425339D01*
X154614117Y-116255205D01*
X154615474Y-116189544D01*
X154634339Y-116014977D01*
X155244241Y-116014977D01*
X155244241Y-116050265D01*
X155559303Y-116050265D01*
X155590611Y-116050225D01*
X155681074Y-116049632D01*
X155759064Y-116048417D01*
X155820198Y-116046693D01*
X155860093Y-116044571D01*
X155874365Y-116042166D01*
X155872459Y-116031622D01*
X155856324Y-115996085D01*
X155828747Y-115951765D01*
X155795818Y-115907920D01*
X155763630Y-115873811D01*
X155760070Y-115870757D01*
X155690900Y-115829948D01*
X155607065Y-115806438D01*
X155517855Y-115800867D01*
X155432561Y-115813873D01*
X155360473Y-115846095D01*
X155329206Y-115871096D01*
X155286367Y-115919135D01*
X155255864Y-115970266D01*
X155244241Y-116014977D01*
X154634339Y-116014977D01*
X154634392Y-116014485D01*
X154675498Y-115859334D01*
X154738668Y-115724270D01*
X154823778Y-115609474D01*
X154930707Y-115515123D01*
X155059330Y-115441397D01*
X155209525Y-115388476D01*
X155255964Y-115378041D01*
X155369107Y-115362689D01*
X155495445Y-115356051D01*
X155624503Y-115358127D01*
X155745803Y-115368918D01*
X155848867Y-115388425D01*
X155875805Y-115395923D01*
X156029942Y-115455532D01*
X156166217Y-115537877D01*
X156282845Y-115641117D01*
X156378042Y-115763408D01*
X156450021Y-115902906D01*
X156492265Y-116042166D01*
X156496997Y-116057767D01*
G37*
G36*
X146419268Y-116386096D02*
G01*
X146404774Y-116487501D01*
X146375935Y-116585735D01*
X146329819Y-116693475D01*
X146280769Y-116781738D01*
X146186245Y-116902593D01*
X146070857Y-117003597D01*
X145937225Y-117082605D01*
X145787967Y-117137469D01*
X145774357Y-117140786D01*
X145701555Y-117151826D01*
X145612409Y-117157833D01*
X145517656Y-117158643D01*
X145428034Y-117154095D01*
X145354283Y-117144026D01*
X145322400Y-117136613D01*
X145187552Y-117087392D01*
X145059542Y-117012235D01*
X144944258Y-116914436D01*
X144882466Y-116846704D01*
X144796969Y-116724737D01*
X144737968Y-116594019D01*
X144703852Y-116450546D01*
X144693810Y-116302162D01*
X145267607Y-116302162D01*
X145273939Y-116372506D01*
X145304044Y-116455144D01*
X145358327Y-116520420D01*
X145436128Y-116567295D01*
X145506731Y-116586055D01*
X145589523Y-116587294D01*
X145669835Y-116570043D01*
X145739470Y-116536149D01*
X145790232Y-116487461D01*
X145819399Y-116437799D01*
X145847544Y-116347254D01*
X145846188Y-116254489D01*
X145815141Y-116161982D01*
X145805006Y-116143089D01*
X145751276Y-116074582D01*
X145681725Y-116030864D01*
X145593460Y-116009948D01*
X145541849Y-116007845D01*
X145449852Y-116023028D01*
X145374038Y-116062195D01*
X145316798Y-116123203D01*
X145280524Y-116203907D01*
X145267607Y-116302162D01*
X144693810Y-116302162D01*
X144693008Y-116290313D01*
X144693116Y-116277650D01*
X144709416Y-116121399D01*
X144752125Y-115974652D01*
X144819395Y-115840431D01*
X144909379Y-115721756D01*
X145020229Y-115621647D01*
X145150096Y-115543126D01*
X145265460Y-115487655D01*
X145266369Y-114006113D01*
X145267277Y-112524571D01*
X146047431Y-112524571D01*
X146105089Y-112524541D01*
X146251676Y-112524184D01*
X146387756Y-112523455D01*
X146510542Y-112522394D01*
X146617249Y-112521041D01*
X146705093Y-112519435D01*
X146771287Y-112517615D01*
X146813046Y-112515622D01*
X146827584Y-112513495D01*
X146826333Y-112511075D01*
X146809547Y-112491101D01*
X146775617Y-112454395D01*
X146727646Y-112404214D01*
X146668734Y-112343818D01*
X146601984Y-112276465D01*
X146376383Y-112050512D01*
X146590617Y-111852366D01*
X146804851Y-111654219D01*
X147382555Y-112231923D01*
X147960259Y-112809627D01*
X147382553Y-113387333D01*
X146804847Y-113965039D01*
X146604839Y-113764619D01*
X146404831Y-113564199D01*
X146612457Y-113342964D01*
X146625496Y-113329053D01*
X146687611Y-113262322D01*
X146741811Y-113203340D01*
X146784921Y-113155618D01*
X146813761Y-113122668D01*
X146825153Y-113107999D01*
X146824029Y-113106765D01*
X146801588Y-113103430D01*
X146752412Y-113100794D01*
X146678961Y-113098907D01*
X146583695Y-113097817D01*
X146469074Y-113097574D01*
X146337557Y-113098227D01*
X145844891Y-113102185D01*
X145841050Y-114290079D01*
X145837209Y-115477973D01*
X145952306Y-115533332D01*
X146021578Y-115570822D01*
X146096839Y-115624596D01*
X146174885Y-115696173D01*
X146202971Y-115725411D01*
X146299524Y-115850491D01*
X146368072Y-115986195D01*
X146408953Y-116133335D01*
X146422505Y-116292726D01*
X146420615Y-116347254D01*
X146419268Y-116386096D01*
G37*
G36*
X150473511Y-112979338D02*
G01*
X150432161Y-113128176D01*
X150365854Y-113264078D01*
X150276208Y-113384370D01*
X150164837Y-113486379D01*
X150033358Y-113567432D01*
X149918193Y-113624350D01*
X149918193Y-115107361D01*
X149918193Y-116590372D01*
X149134470Y-116590372D01*
X148350747Y-116590372D01*
X148580212Y-116820195D01*
X148809676Y-117050018D01*
X148595033Y-117254305D01*
X148380390Y-117458591D01*
X147799026Y-116878275D01*
X147217661Y-116297958D01*
X147791451Y-115724023D01*
X147850225Y-115665295D01*
X147955548Y-115560369D01*
X148053542Y-115463147D01*
X148142228Y-115375564D01*
X148219632Y-115299561D01*
X148283775Y-115237073D01*
X148332682Y-115190040D01*
X148364376Y-115160399D01*
X148376880Y-115150088D01*
X148377262Y-115150157D01*
X148392944Y-115161518D01*
X148426527Y-115190130D01*
X148474455Y-115232828D01*
X148533171Y-115286449D01*
X148599119Y-115347827D01*
X148809720Y-115545566D01*
X148580233Y-115775411D01*
X148350747Y-116005256D01*
X148841912Y-116005256D01*
X149333078Y-116005256D01*
X149333013Y-114816272D01*
X149332949Y-113627288D01*
X149216740Y-113567690D01*
X149138410Y-113521945D01*
X149017305Y-113424894D01*
X148916302Y-113307855D01*
X148838185Y-113174318D01*
X148785738Y-113027769D01*
X148779104Y-112997297D01*
X148767566Y-112905338D01*
X148763645Y-112801959D01*
X148764305Y-112784622D01*
X149335334Y-112784622D01*
X149340850Y-112871287D01*
X149368728Y-112952504D01*
X149416901Y-113021663D01*
X149483305Y-113072152D01*
X149498590Y-113078683D01*
X149542896Y-113091218D01*
X149594283Y-113100735D01*
X149640837Y-113105278D01*
X149670644Y-113102893D01*
X149690419Y-113097046D01*
X149725749Y-113088499D01*
X149742887Y-113083828D01*
X149806288Y-113048889D01*
X149857414Y-112992997D01*
X149893799Y-112922264D01*
X149912976Y-112842797D01*
X149912477Y-112760706D01*
X149889836Y-112682102D01*
X149850648Y-112616178D01*
X149793489Y-112563853D01*
X149719685Y-112534034D01*
X149625635Y-112524571D01*
X149542171Y-112531780D01*
X149466031Y-112558935D01*
X149406986Y-112608326D01*
X149361434Y-112682102D01*
X149354245Y-112699120D01*
X149335334Y-112784622D01*
X148764305Y-112784622D01*
X148767533Y-112699819D01*
X148779423Y-112611577D01*
X148811963Y-112503699D01*
X148871970Y-112380247D01*
X148951432Y-112263494D01*
X149045200Y-112160868D01*
X149148124Y-112079795D01*
X149150954Y-112078002D01*
X149206134Y-112047743D01*
X149274939Y-112015997D01*
X149343162Y-111989353D01*
X149371846Y-111979706D01*
X149427821Y-111963812D01*
X149481643Y-111954367D01*
X149544015Y-111949831D01*
X149625635Y-111948661D01*
X149665359Y-111948868D01*
X149737011Y-111951359D01*
X149794219Y-111957910D01*
X149847684Y-111970060D01*
X149908108Y-111989353D01*
X149971068Y-112013512D01*
X150113313Y-112088662D01*
X150234814Y-112184743D01*
X150334510Y-112300815D01*
X150411341Y-112435937D01*
X150426168Y-112470323D01*
X150462353Y-112577808D01*
X150482233Y-112688510D01*
X150488305Y-112814715D01*
X150488289Y-112820238D01*
X150486194Y-112842797D01*
X150473511Y-112979338D01*
G37*
G36*
X164343323Y-115355895D02*
G01*
X164497276Y-115376599D01*
X164639097Y-115415986D01*
X164765746Y-115472795D01*
X164874183Y-115545768D01*
X164961368Y-115633645D01*
X165024263Y-115735168D01*
X165041959Y-115777770D01*
X165054650Y-115824445D01*
X165061010Y-115879119D01*
X165062990Y-115952746D01*
X165063030Y-115973251D01*
X165061356Y-116037254D01*
X165055280Y-116084723D01*
X165042814Y-116126317D01*
X165021969Y-116172698D01*
X165011542Y-116193093D01*
X164975889Y-116251065D01*
X164933193Y-116301764D01*
X164880610Y-116346553D01*
X164815298Y-116386794D01*
X164734413Y-116423849D01*
X164635114Y-116459082D01*
X164514557Y-116493855D01*
X164369899Y-116529530D01*
X164198299Y-116567469D01*
X164163870Y-116575543D01*
X164076547Y-116605011D01*
X164013214Y-116641450D01*
X163975369Y-116683401D01*
X163964512Y-116729404D01*
X163982141Y-116777999D01*
X163983237Y-116779626D01*
X164016587Y-116813251D01*
X164059161Y-116839173D01*
X164106246Y-116851383D01*
X164174664Y-116858465D01*
X164251321Y-116859372D01*
X164325310Y-116853999D01*
X164385726Y-116842245D01*
X164420872Y-116828239D01*
X164481304Y-116787006D01*
X164527760Y-116733039D01*
X164552314Y-116674328D01*
X164562435Y-116620377D01*
X164833892Y-116620377D01*
X165105349Y-116620377D01*
X165097266Y-116709516D01*
X165097200Y-116710240D01*
X165071778Y-116828141D01*
X165019447Y-116937092D01*
X164942458Y-117035158D01*
X164843067Y-117120404D01*
X164723527Y-117190895D01*
X164586092Y-117244696D01*
X164433014Y-117279870D01*
X164397481Y-117284150D01*
X164316672Y-117288525D01*
X164221960Y-117288878D01*
X164122110Y-117285567D01*
X164025888Y-117278951D01*
X163942058Y-117269388D01*
X163879385Y-117257237D01*
X163742680Y-117209412D01*
X163620790Y-117142028D01*
X163522721Y-117058142D01*
X163449274Y-116958622D01*
X163401253Y-116844337D01*
X163379460Y-116716155D01*
X163377339Y-116652399D01*
X163385251Y-116548553D01*
X163410048Y-116460046D01*
X163453300Y-116379731D01*
X163491513Y-116329887D01*
X163548642Y-116275170D01*
X163618813Y-116228229D01*
X163705419Y-116187524D01*
X163811854Y-116151519D01*
X163941509Y-116118673D01*
X164097777Y-116087448D01*
X164149211Y-116077859D01*
X164258974Y-116054654D01*
X164342634Y-116031814D01*
X164402931Y-116008106D01*
X164442606Y-115982294D01*
X164464402Y-115953147D01*
X164471057Y-115919429D01*
X164471046Y-115917264D01*
X164461258Y-115867745D01*
X164430250Y-115831062D01*
X164373675Y-115801971D01*
X164361471Y-115797742D01*
X164288053Y-115784220D01*
X164205619Y-115783886D01*
X164126471Y-115796030D01*
X164062915Y-115819939D01*
X164057961Y-115822960D01*
X164016560Y-115860835D01*
X163983461Y-115911196D01*
X163953456Y-115974163D01*
X163681700Y-115974707D01*
X163409944Y-115975250D01*
X163424073Y-115896485D01*
X163446815Y-115806382D01*
X163501111Y-115687997D01*
X163579599Y-115586357D01*
X163681446Y-115502103D01*
X163805822Y-115435880D01*
X163951892Y-115388329D01*
X164118825Y-115360094D01*
X164180275Y-115355131D01*
X164343323Y-115355895D01*
G37*
G36*
X153512702Y-115360302D02*
G01*
X153675622Y-115382099D01*
X153818564Y-115424237D01*
X153943438Y-115487359D01*
X154052154Y-115572110D01*
X154102339Y-115625219D01*
X154164247Y-115719774D01*
X154199945Y-115825181D01*
X154211406Y-115946073D01*
X154206234Y-116036418D01*
X154180006Y-116150313D01*
X154130701Y-116246157D01*
X154057305Y-116325738D01*
X153958802Y-116390842D01*
X153934641Y-116403254D01*
X153883557Y-116427200D01*
X153830184Y-116448265D01*
X153769081Y-116468128D01*
X153694808Y-116488474D01*
X153601925Y-116510983D01*
X153484989Y-116537339D01*
X153435543Y-116548456D01*
X153356892Y-116567048D01*
X153289995Y-116583976D01*
X153240720Y-116597732D01*
X153214936Y-116606805D01*
X153194306Y-116618423D01*
X153143312Y-116660586D01*
X153117667Y-116706791D01*
X153118660Y-116753406D01*
X153147578Y-116796798D01*
X153181706Y-116823325D01*
X153231196Y-116845250D01*
X153295510Y-116856960D01*
X153381906Y-116860425D01*
X153410620Y-116860145D01*
X153473224Y-116855809D01*
X153523048Y-116844333D01*
X153572507Y-116823300D01*
X153577694Y-116820661D01*
X153643038Y-116775010D01*
X153684459Y-116719924D01*
X153698937Y-116659321D01*
X153698937Y-116620377D01*
X153978557Y-116620377D01*
X154258177Y-116620377D01*
X154248143Y-116706644D01*
X154225433Y-116812612D01*
X154173895Y-116927326D01*
X154097178Y-117029314D01*
X153996943Y-117117164D01*
X153874854Y-117189461D01*
X153732573Y-117244792D01*
X153571764Y-117281743D01*
X153529855Y-117286349D01*
X153452283Y-117289412D01*
X153361008Y-117288808D01*
X153264762Y-117284930D01*
X153172277Y-117278169D01*
X153092285Y-117268918D01*
X153033518Y-117257568D01*
X152969684Y-117238423D01*
X152832761Y-117181391D01*
X152721554Y-117109183D01*
X152635696Y-117021366D01*
X152574823Y-116917510D01*
X152538567Y-116797182D01*
X152526563Y-116659953D01*
X152526692Y-116631351D01*
X152529035Y-116570681D01*
X152536133Y-116524464D01*
X152550312Y-116481400D01*
X152573902Y-116430188D01*
X152578620Y-116420804D01*
X152621768Y-116350764D01*
X152675402Y-116291356D01*
X152742777Y-116240876D01*
X152827144Y-116197618D01*
X152931755Y-116159875D01*
X153059865Y-116125941D01*
X153214725Y-116094112D01*
X153254228Y-116086693D01*
X153366691Y-116063862D01*
X153453619Y-116042768D01*
X153518306Y-116022235D01*
X153564050Y-116001086D01*
X153594144Y-115978142D01*
X153611885Y-115952228D01*
X153614577Y-115945809D01*
X153619675Y-115898270D01*
X153599722Y-115856264D01*
X153558943Y-115821723D01*
X153501563Y-115796580D01*
X153431806Y-115782765D01*
X153353896Y-115782209D01*
X153272057Y-115796845D01*
X153253269Y-115803366D01*
X153203781Y-115830913D01*
X153158924Y-115868244D01*
X153126377Y-115908232D01*
X153113822Y-115943744D01*
X153113776Y-115947378D01*
X153111823Y-115957514D01*
X153104015Y-115964837D01*
X153086327Y-115969804D01*
X153054733Y-115972872D01*
X153005208Y-115974498D01*
X152933728Y-115975139D01*
X152836267Y-115975250D01*
X152748945Y-115974906D01*
X152672723Y-115973943D01*
X152612497Y-115972477D01*
X152572937Y-115970620D01*
X152558713Y-115968487D01*
X152560083Y-115959374D01*
X152566212Y-115927554D01*
X152575595Y-115882220D01*
X152588110Y-115833178D01*
X152639770Y-115711231D01*
X152716563Y-115604029D01*
X152816684Y-115513762D01*
X152938329Y-115442615D01*
X152966340Y-115430156D01*
X153063064Y-115395185D01*
X153164495Y-115372269D01*
X153278734Y-115359945D01*
X153413881Y-115356750D01*
X153512702Y-115360302D01*
G37*
%LPC*%
D16*
X136050000Y-129500000D03*
D17*
X135650000Y-129200000D03*
X135650000Y-121200000D03*
D16*
X136050000Y-120900000D03*
D18*
X131450000Y-119700000D03*
X131450000Y-130700000D03*
D19*
X140200000Y-117400000D03*
D20*
X140200000Y-114900000D03*
D21*
X184800000Y-126200000D03*
X181000000Y-126200000D03*
D22*
X178200000Y-109250000D03*
X178200000Y-122150000D03*
D23*
X179000000Y-113200000D03*
X179000000Y-118200000D03*
X181500000Y-115700000D03*
X181500000Y-113200000D03*
D24*
X181500000Y-118200000D03*
D21*
X181000000Y-129800000D03*
X184800000Y-129800000D03*
X149200000Y-130600000D03*
X149200000Y-134400000D03*
D25*
X157630000Y-107950000D03*
X160170000Y-107950000D03*
X162710000Y-107950000D03*
X165250000Y-107950000D03*
D26*
X144700000Y-142200000D03*
D27*
X142160000Y-142200000D03*
X139620000Y-142200000D03*
X137080000Y-142200000D03*
X134540000Y-142200000D03*
X132000000Y-142200000D03*
%LPD*%
M02*
