G04 #@! TF.GenerationSoftware,KiCad,Pcbnew,9.0.1*
G04 #@! TF.CreationDate,2025-10-21T09:50:54-05:00*
G04 #@! TF.ProjectId,STM32 Cyber Watch,53544d33-3220-4437-9962-657220576174,rev?*
G04 #@! TF.SameCoordinates,Original*
G04 #@! TF.FileFunction,Soldermask,Top*
G04 #@! TF.FilePolarity,Negative*
%FSLAX46Y46*%
G04 Gerber Fmt 4.6, Leading zero omitted, Abs format (unit mm)*
G04 Created by KiCad (PCBNEW 9.0.1) date 2025-10-21 09:50:54*
%MOMM*%
%LPD*%
G01*
G04 APERTURE LIST*
G04 Aperture macros list*
%AMRoundRect*
0 Rectangle with rounded corners*
0 $1 Rounding radius*
0 $2 $3 $4 $5 $6 $7 $8 $9 X,Y pos of 4 corners*
0 Add a 4 corners polygon primitive as box body*
4,1,4,$2,$3,$4,$5,$6,$7,$8,$9,$2,$3,0*
0 Add four circle primitives for the rounded corners*
1,1,$1+$1,$2,$3*
1,1,$1+$1,$4,$5*
1,1,$1+$1,$6,$7*
1,1,$1+$1,$8,$9*
0 Add four rect primitives between the rounded corners*
20,1,$1+$1,$2,$3,$4,$5,0*
20,1,$1+$1,$4,$5,$6,$7,0*
20,1,$1+$1,$6,$7,$8,$9,0*
20,1,$1+$1,$8,$9,$2,$3,0*%
%AMFreePoly0*
4,1,23,0.000000,0.745722,0.065263,0.745722,0.191342,0.711940,0.304381,0.646677,0.396677,0.554381,0.461940,0.441342,0.495722,0.315263,0.495722,0.250000,0.500000,0.250000,0.500000,-0.250000,0.495722,-0.250000,0.495722,-0.315263,0.461940,-0.441342,0.396677,-0.554381,0.304381,-0.646677,0.191342,-0.711940,0.065263,-0.745722,0.000000,-0.745722,0.000000,-0.750000,-0.500000,-0.750000,
-0.500000,0.750000,0.000000,0.750000,0.000000,0.745722,0.000000,0.745722,$1*%
%AMFreePoly1*
4,1,23,0.500000,-0.750000,0.000000,-0.750000,0.000000,-0.745722,-0.065263,-0.745722,-0.191342,-0.711940,-0.304381,-0.646677,-0.396677,-0.554381,-0.461940,-0.441342,-0.495722,-0.315263,-0.495722,-0.250000,-0.500000,-0.250000,-0.500000,0.250000,-0.495722,0.250000,-0.495722,0.315263,-0.461940,0.441342,-0.396677,0.554381,-0.304381,0.646677,-0.191342,0.711940,-0.065263,0.745722,0.000000,0.745722,
0.000000,0.750000,0.500000,0.750000,0.500000,-0.750000,0.500000,-0.750000,$1*%
G04 Aperture macros list end*
%ADD10C,0.010000*%
%ADD11C,0.200000*%
%ADD12RoundRect,0.225000X0.250000X-0.225000X0.250000X0.225000X-0.250000X0.225000X-0.250000X-0.225000X0*%
%ADD13RoundRect,0.225000X-0.250000X0.225000X-0.250000X-0.225000X0.250000X-0.225000X0.250000X0.225000X0*%
%ADD14RoundRect,0.225000X-0.225000X-0.250000X0.225000X-0.250000X0.225000X0.250000X-0.225000X0.250000X0*%
%ADD15RoundRect,0.225000X0.225000X0.250000X-0.225000X0.250000X-0.225000X-0.250000X0.225000X-0.250000X0*%
%ADD16RoundRect,0.218750X-0.218750X-0.256250X0.218750X-0.256250X0.218750X0.256250X-0.218750X0.256250X0*%
%ADD17RoundRect,0.218750X-0.256250X0.218750X-0.256250X-0.218750X0.256250X-0.218750X0.256250X0.218750X0*%
%ADD18RoundRect,0.050000X-0.375000X0.100000X-0.375000X-0.100000X0.375000X-0.100000X0.375000X0.100000X0*%
%ADD19RoundRect,0.050000X-0.450000X0.100000X-0.450000X-0.100000X0.450000X-0.100000X0.450000X0.100000X0*%
%ADD20O,2.000000X1.100000*%
%ADD21O,1.100000X1.700000*%
%ADD22O,1.800000X1.100000*%
%ADD23O,2.000000X1.700000*%
%ADD24RoundRect,0.250000X-0.750000X0.600000X-0.750000X-0.600000X0.750000X-0.600000X0.750000X0.600000X0*%
%ADD25FreePoly0,0.000000*%
%ADD26FreePoly1,0.000000*%
%ADD27RoundRect,0.250000X-0.850000X0.375000X-0.850000X-0.375000X0.850000X-0.375000X0.850000X0.375000X0*%
%ADD28R,2.489200X1.752600*%
%ADD29R,0.406400X0.812800*%
%ADD30RoundRect,0.200000X-0.275000X0.200000X-0.275000X-0.200000X0.275000X-0.200000X0.275000X0.200000X0*%
%ADD31RoundRect,0.200000X0.200000X0.275000X-0.200000X0.275000X-0.200000X-0.275000X0.200000X-0.275000X0*%
%ADD32RoundRect,0.200000X-0.200000X-0.275000X0.200000X-0.275000X0.200000X0.275000X-0.200000X0.275000X0*%
%ADD33RoundRect,0.200000X0.275000X-0.200000X0.275000X0.200000X-0.275000X0.200000X-0.275000X-0.200000X0*%
%ADD34RoundRect,0.725000X-0.975000X-0.725000X0.975000X-0.725000X0.975000X0.725000X-0.975000X0.725000X0*%
%ADD35C,1.524000*%
%ADD36RoundRect,0.250000X0.512000X-0.512000X0.512000X0.512000X-0.512000X0.512000X-0.512000X-0.512000X0*%
%ADD37C,4.000000*%
%ADD38RoundRect,0.375000X0.875000X0.875000X-0.875000X0.875000X-0.875000X-0.875000X0.875000X-0.875000X0*%
%ADD39R,0.375000X0.350000*%
%ADD40R,0.350000X0.375000*%
%ADD41RoundRect,0.102000X0.250000X-0.400000X0.250000X0.400000X-0.250000X0.400000X-0.250000X-0.400000X0*%
%ADD42RoundRect,0.125000X-0.625000X-0.125000X0.625000X-0.125000X0.625000X0.125000X-0.625000X0.125000X0*%
%ADD43RoundRect,0.125000X-0.125000X-0.625000X0.125000X-0.625000X0.125000X0.625000X-0.125000X0.625000X0*%
%ADD44RoundRect,0.150000X-0.150000X0.512500X-0.150000X-0.512500X0.150000X-0.512500X0.150000X0.512500X0*%
%ADD45C,1.800000*%
%ADD46RoundRect,0.102000X-0.237500X-0.125000X0.237500X-0.125000X0.237500X0.125000X-0.237500X0.125000X0*%
%ADD47RoundRect,0.102000X-0.125000X-0.237500X0.125000X-0.237500X0.125000X0.237500X-0.125000X0.237500X0*%
%ADD48R,1.700000X1.700000*%
%ADD49C,1.700000*%
G04 APERTURE END LIST*
G36*
X148100000Y-141950000D02*
G01*
X148400000Y-141950000D01*
X148400000Y-143450000D01*
X148100000Y-143450000D01*
X148100000Y-141950000D01*
G37*
D10*
X146325000Y-127100000D02*
X145625000Y-127100000D01*
X145625000Y-126700000D01*
X146325000Y-126700000D01*
X146325000Y-127100000D01*
G36*
X146325000Y-127100000D02*
G01*
X145625000Y-127100000D01*
X145625000Y-126700000D01*
X146325000Y-126700000D01*
X146325000Y-127100000D01*
G37*
X146325000Y-126600000D02*
X145625000Y-126600000D01*
X145625000Y-126200000D01*
X146325000Y-126200000D01*
X146325000Y-126600000D01*
G36*
X146325000Y-126600000D02*
G01*
X145625000Y-126600000D01*
X145625000Y-126200000D01*
X146325000Y-126200000D01*
X146325000Y-126600000D01*
G37*
X146325000Y-126100000D02*
X145625000Y-126100000D01*
X145625000Y-125700000D01*
X146325000Y-125700000D01*
X146325000Y-126100000D01*
G36*
X146325000Y-126100000D02*
G01*
X145625000Y-126100000D01*
X145625000Y-125700000D01*
X146325000Y-125700000D01*
X146325000Y-126100000D01*
G37*
X146325000Y-125600000D02*
X145625000Y-125600000D01*
X145625000Y-125200000D01*
X146325000Y-125200000D01*
X146325000Y-125600000D01*
G36*
X146325000Y-125600000D02*
G01*
X145625000Y-125600000D01*
X145625000Y-125200000D01*
X146325000Y-125200000D01*
X146325000Y-125600000D01*
G37*
X145375000Y-124950000D02*
X144975000Y-124950000D01*
X144975000Y-124250000D01*
X145375000Y-124250000D01*
X145375000Y-124950000D01*
G36*
X145375000Y-124950000D02*
G01*
X144975000Y-124950000D01*
X144975000Y-124250000D01*
X145375000Y-124250000D01*
X145375000Y-124950000D01*
G37*
X145300000Y-127025000D02*
X143550000Y-127025000D01*
X143550000Y-125275000D01*
X145300000Y-125275000D01*
X145300000Y-127025000D01*
G36*
X145300000Y-127025000D02*
G01*
X143550000Y-127025000D01*
X143550000Y-125275000D01*
X145300000Y-125275000D01*
X145300000Y-127025000D01*
G37*
X145375000Y-128050000D02*
X144975000Y-128050000D01*
X144975000Y-127350000D01*
X145375000Y-127350000D01*
X145375000Y-128050000D01*
G36*
X145375000Y-128050000D02*
G01*
X144975000Y-128050000D01*
X144975000Y-127350000D01*
X145375000Y-127350000D01*
X145375000Y-128050000D01*
G37*
X144875000Y-124950000D02*
X144475000Y-124950000D01*
X144475000Y-124250000D01*
X144875000Y-124250000D01*
X144875000Y-124950000D01*
G36*
X144875000Y-124950000D02*
G01*
X144475000Y-124950000D01*
X144475000Y-124250000D01*
X144875000Y-124250000D01*
X144875000Y-124950000D01*
G37*
X144875000Y-128050000D02*
X144475000Y-128050000D01*
X144475000Y-127350000D01*
X144875000Y-127350000D01*
X144875000Y-128050000D01*
G36*
X144875000Y-128050000D02*
G01*
X144475000Y-128050000D01*
X144475000Y-127350000D01*
X144875000Y-127350000D01*
X144875000Y-128050000D01*
G37*
X144375000Y-124950000D02*
X143975000Y-124950000D01*
X143975000Y-124250000D01*
X144375000Y-124250000D01*
X144375000Y-124950000D01*
G36*
X144375000Y-124950000D02*
G01*
X143975000Y-124950000D01*
X143975000Y-124250000D01*
X144375000Y-124250000D01*
X144375000Y-124950000D01*
G37*
X144375000Y-128050000D02*
X143975000Y-128050000D01*
X143975000Y-127350000D01*
X144375000Y-127350000D01*
X144375000Y-128050000D01*
G36*
X144375000Y-128050000D02*
G01*
X143975000Y-128050000D01*
X143975000Y-127350000D01*
X144375000Y-127350000D01*
X144375000Y-128050000D01*
G37*
X143875000Y-124950000D02*
X143475000Y-124950000D01*
X143475000Y-124250000D01*
X143875000Y-124250000D01*
X143875000Y-124950000D01*
G36*
X143875000Y-124950000D02*
G01*
X143475000Y-124950000D01*
X143475000Y-124250000D01*
X143875000Y-124250000D01*
X143875000Y-124950000D01*
G37*
X143875000Y-128050000D02*
X143475000Y-128050000D01*
X143475000Y-127350000D01*
X143875000Y-127350000D01*
X143875000Y-128050000D01*
G36*
X143875000Y-128050000D02*
G01*
X143475000Y-128050000D01*
X143475000Y-127350000D01*
X143875000Y-127350000D01*
X143875000Y-128050000D01*
G37*
X143225000Y-127100000D02*
X142525000Y-127100000D01*
X142525000Y-126700000D01*
X143225000Y-126700000D01*
X143225000Y-127100000D01*
G36*
X143225000Y-127100000D02*
G01*
X142525000Y-127100000D01*
X142525000Y-126700000D01*
X143225000Y-126700000D01*
X143225000Y-127100000D01*
G37*
X143225000Y-126600000D02*
X142525000Y-126600000D01*
X142525000Y-126200000D01*
X143225000Y-126200000D01*
X143225000Y-126600000D01*
G36*
X143225000Y-126600000D02*
G01*
X142525000Y-126600000D01*
X142525000Y-126200000D01*
X143225000Y-126200000D01*
X143225000Y-126600000D01*
G37*
X143225000Y-126100000D02*
X142525000Y-126100000D01*
X142525000Y-125700000D01*
X143225000Y-125700000D01*
X143225000Y-126100000D01*
G36*
X143225000Y-126100000D02*
G01*
X142525000Y-126100000D01*
X142525000Y-125700000D01*
X143225000Y-125700000D01*
X143225000Y-126100000D01*
G37*
X143225000Y-125600000D02*
X142525000Y-125600000D01*
X142525000Y-125200000D01*
X143225000Y-125200000D01*
X143225000Y-125600000D01*
G36*
X143225000Y-125600000D02*
G01*
X142525000Y-125600000D01*
X142525000Y-125200000D01*
X143225000Y-125200000D01*
X143225000Y-125600000D01*
G37*
D11*
X145725000Y-126900000D02*
G75*
G02*
X145525000Y-126900000I-100000J0D01*
G01*
X145525000Y-126900000D02*
G75*
G02*
X145725000Y-126900000I100000J0D01*
G01*
X145725000Y-126400000D02*
G75*
G02*
X145525000Y-126400000I-100000J0D01*
G01*
X145525000Y-126400000D02*
G75*
G02*
X145725000Y-126400000I100000J0D01*
G01*
X145725000Y-125900000D02*
G75*
G02*
X145525000Y-125900000I-100000J0D01*
G01*
X145525000Y-125900000D02*
G75*
G02*
X145725000Y-125900000I100000J0D01*
G01*
X145725000Y-125400000D02*
G75*
G02*
X145525000Y-125400000I-100000J0D01*
G01*
X145525000Y-125400000D02*
G75*
G02*
X145725000Y-125400000I100000J0D01*
G01*
X145275000Y-127350000D02*
G75*
G02*
X145075000Y-127350000I-100000J0D01*
G01*
X145075000Y-127350000D02*
G75*
G02*
X145275000Y-127350000I100000J0D01*
G01*
X145275000Y-124950000D02*
G75*
G02*
X145075000Y-124950000I-100000J0D01*
G01*
X145075000Y-124950000D02*
G75*
G02*
X145275000Y-124950000I100000J0D01*
G01*
X144775000Y-127350000D02*
G75*
G02*
X144575000Y-127350000I-100000J0D01*
G01*
X144575000Y-127350000D02*
G75*
G02*
X144775000Y-127350000I100000J0D01*
G01*
X144775000Y-124950000D02*
G75*
G02*
X144575000Y-124950000I-100000J0D01*
G01*
X144575000Y-124950000D02*
G75*
G02*
X144775000Y-124950000I100000J0D01*
G01*
X144275000Y-127350000D02*
G75*
G02*
X144075000Y-127350000I-100000J0D01*
G01*
X144075000Y-127350000D02*
G75*
G02*
X144275000Y-127350000I100000J0D01*
G01*
X144275000Y-124950000D02*
G75*
G02*
X144075000Y-124950000I-100000J0D01*
G01*
X144075000Y-124950000D02*
G75*
G02*
X144275000Y-124950000I100000J0D01*
G01*
X143775000Y-127350000D02*
G75*
G02*
X143575000Y-127350000I-100000J0D01*
G01*
X143575000Y-127350000D02*
G75*
G02*
X143775000Y-127350000I100000J0D01*
G01*
X143775000Y-124950000D02*
G75*
G02*
X143575000Y-124950000I-100000J0D01*
G01*
X143575000Y-124950000D02*
G75*
G02*
X143775000Y-124950000I100000J0D01*
G01*
X143325000Y-126900000D02*
G75*
G02*
X143125000Y-126900000I-100000J0D01*
G01*
X143125000Y-126900000D02*
G75*
G02*
X143325000Y-126900000I100000J0D01*
G01*
X143325000Y-126400000D02*
G75*
G02*
X143125000Y-126400000I-100000J0D01*
G01*
X143125000Y-126400000D02*
G75*
G02*
X143325000Y-126400000I100000J0D01*
G01*
X143325000Y-125900000D02*
G75*
G02*
X143125000Y-125900000I-100000J0D01*
G01*
X143125000Y-125900000D02*
G75*
G02*
X143325000Y-125900000I100000J0D01*
G01*
X143325000Y-125400000D02*
G75*
G02*
X143125000Y-125400000I-100000J0D01*
G01*
X143125000Y-125400000D02*
G75*
G02*
X143325000Y-125400000I100000J0D01*
G01*
D10*
X140410000Y-130410000D02*
X139650000Y-130410000D01*
X139650000Y-129990000D01*
X140410000Y-129990000D01*
X140410000Y-130410000D01*
G36*
X140410000Y-130410000D02*
G01*
X139650000Y-130410000D01*
X139650000Y-129990000D01*
X140410000Y-129990000D01*
X140410000Y-130410000D01*
G37*
X140410000Y-130910000D02*
X139650000Y-130910000D01*
X139650000Y-130490000D01*
X140410000Y-130490000D01*
X140410000Y-130910000D01*
G36*
X140410000Y-130910000D02*
G01*
X139650000Y-130910000D01*
X139650000Y-130490000D01*
X140410000Y-130490000D01*
X140410000Y-130910000D01*
G37*
X140410000Y-131410000D02*
X139650000Y-131410000D01*
X139650000Y-130990000D01*
X140410000Y-130990000D01*
X140410000Y-131410000D01*
G36*
X140410000Y-131410000D02*
G01*
X139650000Y-131410000D01*
X139650000Y-130990000D01*
X140410000Y-130990000D01*
X140410000Y-131410000D01*
G37*
X140410000Y-131910000D02*
X139650000Y-131910000D01*
X139650000Y-131490000D01*
X140410000Y-131490000D01*
X140410000Y-131910000D01*
G36*
X140410000Y-131910000D02*
G01*
X139650000Y-131910000D01*
X139650000Y-131490000D01*
X140410000Y-131490000D01*
X140410000Y-131910000D01*
G37*
X141880000Y-130410000D02*
X141120000Y-130410000D01*
X141120000Y-129990000D01*
X141880000Y-129990000D01*
X141880000Y-130410000D01*
G36*
X141880000Y-130410000D02*
G01*
X141120000Y-130410000D01*
X141120000Y-129990000D01*
X141880000Y-129990000D01*
X141880000Y-130410000D01*
G37*
X141880000Y-130910000D02*
X141120000Y-130910000D01*
X141120000Y-130490000D01*
X141880000Y-130490000D01*
X141880000Y-130910000D01*
G36*
X141880000Y-130910000D02*
G01*
X141120000Y-130910000D01*
X141120000Y-130490000D01*
X141880000Y-130490000D01*
X141880000Y-130910000D01*
G37*
X141880000Y-131410000D02*
X141120000Y-131410000D01*
X141120000Y-130990000D01*
X141880000Y-130990000D01*
X141880000Y-131410000D01*
G36*
X141880000Y-131410000D02*
G01*
X141120000Y-131410000D01*
X141120000Y-130990000D01*
X141880000Y-130990000D01*
X141880000Y-131410000D01*
G37*
X141880000Y-131910000D02*
X141120000Y-131910000D01*
X141120000Y-131490000D01*
X141880000Y-131490000D01*
X141880000Y-131910000D01*
G36*
X141880000Y-131910000D02*
G01*
X141120000Y-131910000D01*
X141120000Y-131490000D01*
X141880000Y-131490000D01*
X141880000Y-131910000D01*
G37*
D12*
X143150000Y-122150000D03*
X143150000Y-120600000D03*
D13*
X172800000Y-136800000D03*
X172800000Y-135250000D03*
D14*
X152400000Y-142600000D03*
X150850000Y-142600000D03*
D15*
X153900000Y-142600000D03*
X155450000Y-142600000D03*
D12*
X158600000Y-139950000D03*
X158600000Y-141500000D03*
D14*
X156275000Y-140200000D03*
X154725000Y-140200000D03*
X131800000Y-112900000D03*
X130250000Y-112900000D03*
D12*
X174400000Y-135250000D03*
X174400000Y-136800000D03*
D15*
X154725000Y-138700000D03*
X156275000Y-138700000D03*
X139250000Y-124200000D03*
X140800000Y-124200000D03*
D14*
X140800000Y-122700000D03*
X139250000Y-122700000D03*
D15*
X139125000Y-128825000D03*
X140675000Y-128825000D03*
D14*
X144650000Y-133900000D03*
X143100000Y-133900000D03*
D16*
X132600000Y-136900000D03*
X131025000Y-136900000D03*
X132600000Y-138600000D03*
X131025000Y-138600000D03*
X144660000Y-136900000D03*
X143085000Y-136900000D03*
D17*
X185300000Y-125787500D03*
X185300000Y-124212500D03*
D18*
X134980000Y-122325000D03*
X134980000Y-122820000D03*
X134980000Y-123320000D03*
X134980000Y-123815000D03*
X134980000Y-124310000D03*
X134980000Y-124810000D03*
X134980000Y-125310000D03*
X134980000Y-125800000D03*
X134980000Y-126305000D03*
X134980000Y-126805000D03*
X134980000Y-127305000D03*
X134980000Y-127805000D03*
D19*
X136580000Y-128075000D03*
X136580000Y-127575000D03*
X136580000Y-127075000D03*
X136580000Y-126575000D03*
X136580000Y-126075000D03*
X136580000Y-125575000D03*
X136580000Y-125075000D03*
X136580000Y-124575000D03*
X136580000Y-124075000D03*
X136580000Y-123575000D03*
X136580000Y-123075000D03*
X136580000Y-122575000D03*
D20*
X136050000Y-129500000D03*
D21*
X135650000Y-129200000D03*
X135650000Y-121200000D03*
D20*
X136050000Y-120900000D03*
D22*
X131450000Y-119700000D03*
X131450000Y-130700000D03*
D23*
X140200000Y-117400000D03*
D24*
X140200000Y-114900000D03*
D25*
X148900000Y-142700000D03*
D26*
X147600000Y-142700000D03*
D27*
X144000000Y-132000000D03*
X144000000Y-129850000D03*
D28*
X138000000Y-109697000D03*
D29*
X138950001Y-111094000D03*
X138000000Y-111094000D03*
X137049999Y-111094000D03*
X137049999Y-108300000D03*
X138000000Y-108300000D03*
X138950001Y-108300000D03*
D30*
X181200000Y-130200000D03*
X181200000Y-128550000D03*
X178900000Y-130200000D03*
X178900000Y-128550000D03*
D31*
X132675000Y-134050000D03*
X134325000Y-134050000D03*
X132675000Y-132550000D03*
X134325000Y-132550000D03*
D30*
X135399999Y-110175901D03*
X135399999Y-108525901D03*
D31*
X134800000Y-113050901D03*
X136450000Y-113050901D03*
D30*
X172800000Y-139850000D03*
X172800000Y-138200000D03*
D32*
X177500000Y-130700000D03*
X175850000Y-130700000D03*
D31*
X135650000Y-136900000D03*
X134000000Y-136900000D03*
X134000000Y-138600000D03*
X135650000Y-138600000D03*
D30*
X146400000Y-122200000D03*
X146400000Y-120550000D03*
D33*
X146450000Y-129650000D03*
X146450000Y-131300000D03*
D32*
X141700000Y-135400000D03*
X140050000Y-135400000D03*
D31*
X140050000Y-136900000D03*
X141700000Y-136900000D03*
X138625000Y-127300000D03*
X140275000Y-127300000D03*
D32*
X144700000Y-135400000D03*
X143050000Y-135400000D03*
D33*
X183600000Y-127187500D03*
X183600000Y-128837500D03*
X185300000Y-127187500D03*
X185300000Y-128837500D03*
X144900000Y-120550000D03*
X144900000Y-122200000D03*
D34*
X178200000Y-109250000D03*
X178200000Y-122150000D03*
D35*
X179000000Y-113200000D03*
X179000000Y-118200000D03*
X181500000Y-115700000D03*
X181500000Y-113200000D03*
D36*
X181500000Y-118200000D03*
D37*
X144800000Y-109700000D03*
X144800000Y-115300000D03*
D38*
X136100000Y-116400000D03*
X131100000Y-116400000D03*
D17*
X183600000Y-124212500D03*
X183600000Y-125787500D03*
D39*
X158375000Y-137200000D03*
X158375000Y-137700000D03*
X158375000Y-138200000D03*
X158375000Y-138700000D03*
D40*
X158887500Y-138712500D03*
X159387500Y-138712500D03*
D39*
X159900000Y-138700000D03*
X159900000Y-138200000D03*
X159900000Y-137700000D03*
X159900000Y-137200000D03*
D40*
X159387500Y-137187500D03*
X158887500Y-137187500D03*
D13*
X169700000Y-136900000D03*
X169700000Y-138450000D03*
D41*
X165500000Y-138500000D03*
X166400000Y-138500000D03*
X167300000Y-138500000D03*
X168200000Y-138500000D03*
X168200000Y-137300000D03*
X167300000Y-137300000D03*
X166400000Y-137300000D03*
X165500000Y-137300000D03*
D42*
X176325000Y-135000000D03*
X176325000Y-135800000D03*
X176325000Y-136600000D03*
X176325000Y-137400000D03*
X176325000Y-138200000D03*
X176325000Y-139000000D03*
X176325000Y-139800000D03*
X176325000Y-140600000D03*
D43*
X177700000Y-141975000D03*
X178500000Y-141975000D03*
X179300000Y-141975000D03*
X180100000Y-141975000D03*
X180900000Y-141975000D03*
X181700000Y-141975000D03*
X182500000Y-141975000D03*
X183300000Y-141975000D03*
D42*
X184675000Y-140600000D03*
X184675000Y-139800000D03*
X184675000Y-139000000D03*
X184675000Y-138200000D03*
X184675000Y-137400000D03*
X184675000Y-136600000D03*
X184675000Y-135800000D03*
X184675000Y-135000000D03*
D43*
X183300000Y-133625000D03*
X182500000Y-133625000D03*
X181700000Y-133625000D03*
X180900000Y-133625000D03*
X180100000Y-133625000D03*
X179300000Y-133625000D03*
X178500000Y-133625000D03*
X177700000Y-133625000D03*
D44*
X133599999Y-108713401D03*
X132649999Y-108713401D03*
X131699999Y-108713401D03*
X131699999Y-110988401D03*
X132649999Y-110988401D03*
X133599999Y-110988401D03*
D45*
X157630000Y-107950000D03*
X160170000Y-107950000D03*
X162710000Y-107950000D03*
X165250000Y-107950000D03*
D46*
X150475000Y-137900000D03*
X150475000Y-138400000D03*
X150475000Y-138900000D03*
X150475000Y-139400000D03*
D47*
X151137500Y-139562500D03*
X151637500Y-139562500D03*
X152137500Y-139562500D03*
D46*
X152800000Y-139400000D03*
X152800000Y-138900000D03*
X152800000Y-138400000D03*
X152800000Y-137900000D03*
D47*
X152137500Y-137737500D03*
X151637500Y-137737500D03*
X151137500Y-137737500D03*
D48*
X144700000Y-142200000D03*
D49*
X142160000Y-142200000D03*
X139620000Y-142200000D03*
X137080000Y-142200000D03*
X134540000Y-142200000D03*
X132000000Y-142200000D03*
M02*
