%TF.GenerationSoftware,KiCad,Pcbnew,9.0.1*%
%TF.CreationDate,2025-10-21T09:50:46-05:00*%
%TF.ProjectId,STM32 Cyber Watch,53544d33-3220-4437-9962-657220576174,rev?*%
%TF.SameCoordinates,Original*%
%TF.FileFunction,Drillmap*%
%TF.FilePolarity,Positive*%
%FSLAX45Y45*%
G04 Gerber Fmt 4.5, Leading zero omitted, Abs format (unit mm)*
G04 Created by KiCad (PCBNEW 9.0.1) date 2025-10-21 09:50:46*
%MOMM*%
%LPD*%
G01*
G04 APERTURE LIST*
%ADD10C,0.050000*%
%ADD11C,0.200000*%
%ADD12C,0.100000*%
%ADD13C,0.210000*%
G04 APERTURE END LIST*
D10*
X16650000Y-15020000D02*
X17250000Y-14420000D01*
X16650000Y-10020000D02*
X14950000Y-10020000D01*
X16650000Y-10020000D02*
X17250000Y-10620000D01*
X16900000Y-10620000D02*
X14700000Y-10620000D01*
X18500000Y-10620000D02*
G75*
G02*
X18700000Y-10820000I0J-200000D01*
G01*
X13100000Y-14420000D02*
G75*
G02*
X12900000Y-14220000I0J200000D01*
G01*
X14350000Y-10620000D02*
X14950000Y-10020000D01*
X16650000Y-15020000D02*
X14950000Y-15020000D01*
X18700000Y-14220000D02*
X18700000Y-10820000D01*
X14700000Y-10620000D02*
X15000000Y-10320000D01*
X14350000Y-10620000D02*
X13100000Y-10620000D01*
X14700000Y-14420000D02*
X16900000Y-14420000D01*
X14350000Y-14420000D02*
X14950000Y-15020000D01*
X17250000Y-14420000D02*
X18500000Y-14420000D01*
X12900000Y-14220000D02*
X12900000Y-13170000D01*
X12900000Y-10820000D02*
X12900000Y-11870000D01*
X16900000Y-14420000D02*
X16600000Y-14720000D01*
X16600000Y-14720000D02*
X15000000Y-14720000D01*
X18700000Y-14220000D02*
G75*
G02*
X18500000Y-14420000I-200000J0D01*
G01*
X12900000Y-10820000D02*
G75*
G02*
X13100000Y-10620000I200000J0D01*
G01*
X14700000Y-14420000D02*
X15000000Y-14720000D01*
X16600000Y-10320000D02*
X15000000Y-10320000D01*
X13100000Y-14420000D02*
X14350000Y-14420000D01*
X18500000Y-10620000D02*
X17250000Y-10620000D01*
X16900000Y-10620000D02*
X16600000Y-10320000D01*
X13425000Y-12992500D02*
G75*
G02*
X13325000Y-12992500I-50000J0D01*
G01*
X13325000Y-12047500D02*
G75*
G02*
X13425000Y-12047500I50000J0D01*
G01*
X13425000Y-12047500D02*
X13425000Y-12992500D01*
X13325000Y-12992500D02*
X12900000Y-12992500D01*
X12900000Y-12992500D02*
X12900000Y-13170000D01*
X12900000Y-12047500D02*
X13325000Y-12047500D01*
X12900000Y-11870000D02*
X12900000Y-12047500D01*
D11*
D12*
X12975000Y-13735000D02*
X13005000Y-13765000D01*
X13005000Y-13735000D02*
X12975000Y-13765000D01*
X13100000Y-13950000D02*
X13130000Y-13980000D01*
X13130000Y-13950000D02*
X13100000Y-13980000D01*
X13360000Y-11220090D02*
X13390000Y-11250090D01*
X13390000Y-11220090D02*
X13360000Y-11250090D01*
X13505000Y-13985000D02*
X13535000Y-14015000D01*
X13535000Y-13985000D02*
X13505000Y-14015000D01*
X13525000Y-11084480D02*
X13555000Y-11114480D01*
X13555000Y-11084480D02*
X13525000Y-11114480D01*
X13535000Y-13095000D02*
X13565000Y-13125000D01*
X13565000Y-13095000D02*
X13535000Y-13125000D01*
X13552471Y-12560500D02*
X13582471Y-12590500D01*
X13582471Y-12560500D02*
X13552471Y-12590500D01*
X13585000Y-11885000D02*
X13615000Y-11915000D01*
X13615000Y-11885000D02*
X13585000Y-11915000D01*
X13585000Y-13425000D02*
X13615000Y-13455000D01*
X13615000Y-13425000D02*
X13585000Y-13455000D01*
X13605000Y-10935000D02*
X13635000Y-10965000D01*
X13635000Y-10935000D02*
X13605000Y-10965000D01*
X13613579Y-13171428D02*
X13643579Y-13201428D01*
X13643579Y-13171428D02*
X13613579Y-13201428D01*
X13645000Y-13245000D02*
X13675000Y-13275000D01*
X13675000Y-13245000D02*
X13645000Y-13275000D01*
X13665000Y-12185000D02*
X13695000Y-12215000D01*
X13695000Y-12185000D02*
X13665000Y-12215000D01*
X13685000Y-13625000D02*
X13715000Y-13655000D01*
X13715000Y-13625000D02*
X13685000Y-13655000D01*
X13743000Y-12582500D02*
X13773000Y-12612500D01*
X13773000Y-12582500D02*
X13743000Y-12612500D01*
X13815000Y-14025000D02*
X13845000Y-14055000D01*
X13845000Y-14025000D02*
X13815000Y-14055000D01*
X13841213Y-12358787D02*
X13871213Y-12388787D01*
X13871213Y-12358787D02*
X13841213Y-12388787D01*
X13877874Y-13622727D02*
X13907874Y-13652727D01*
X13907874Y-13622727D02*
X13877874Y-13652727D01*
X13895000Y-13805000D02*
X13925000Y-13835000D01*
X13925000Y-13805000D02*
X13895000Y-13835000D01*
X13915300Y-12965000D02*
X13945300Y-12995000D01*
X13945300Y-12965000D02*
X13915300Y-12995000D01*
X13918750Y-12605000D02*
X13948750Y-12635000D01*
X13948750Y-12605000D02*
X13918750Y-12635000D01*
X13925000Y-13265000D02*
X13955000Y-13295000D01*
X13955000Y-13265000D02*
X13925000Y-13295000D01*
X14005000Y-12135000D02*
X14035000Y-12165000D01*
X14035000Y-12135000D02*
X14005000Y-12165000D01*
X14015000Y-12575000D02*
X14045000Y-12605000D01*
X14045000Y-12575000D02*
X14015000Y-12605000D01*
X14055000Y-11115000D02*
X14085000Y-11145000D01*
X14085000Y-11115000D02*
X14055000Y-11145000D01*
X14075000Y-14075000D02*
X14105000Y-14105000D01*
X14105000Y-14075000D02*
X14075000Y-14105000D01*
X14085000Y-13275000D02*
X14115000Y-13305000D01*
X14115000Y-13275000D02*
X14085000Y-13305000D01*
X14175000Y-12475000D02*
X14205000Y-12505000D01*
X14205000Y-12475000D02*
X14175000Y-12505000D01*
X14175000Y-12625000D02*
X14205000Y-12655000D01*
X14205000Y-12625000D02*
X14175000Y-12655000D01*
X14185000Y-10745000D02*
X14215000Y-10775000D01*
X14215000Y-10745000D02*
X14185000Y-10775000D01*
X14185000Y-10825000D02*
X14215000Y-10855000D01*
X14215000Y-10825000D02*
X14185000Y-10855000D01*
X14185000Y-12705000D02*
X14215000Y-12735000D01*
X14215000Y-12705000D02*
X14185000Y-12735000D01*
X14285000Y-11195000D02*
X14315000Y-11225000D01*
X14315000Y-11195000D02*
X14285000Y-11225000D01*
X14285000Y-11265000D02*
X14315000Y-11295000D01*
X14315000Y-11265000D02*
X14285000Y-11295000D01*
X14285000Y-12780000D02*
X14315000Y-12810000D01*
X14315000Y-12780000D02*
X14285000Y-12810000D01*
X14295000Y-12395000D02*
X14325000Y-12425000D01*
X14325000Y-12395000D02*
X14295000Y-12425000D01*
X14485000Y-14045000D02*
X14515000Y-14075000D01*
X14515000Y-14045000D02*
X14485000Y-14075000D01*
X14565000Y-13585000D02*
X14595000Y-13615000D01*
X14595000Y-13585000D02*
X14565000Y-13615000D01*
X14595000Y-13235000D02*
X14625000Y-13265000D01*
X14625000Y-13235000D02*
X14595000Y-13265000D01*
X14605426Y-13885426D02*
X14635426Y-13915426D01*
X14635426Y-13885426D02*
X14605426Y-13915426D01*
X14610451Y-13969278D02*
X14640451Y-13999278D01*
X14640451Y-13969278D02*
X14610451Y-13999278D01*
X14615000Y-14115000D02*
X14645000Y-14145000D01*
X14645000Y-14115000D02*
X14615000Y-14145000D01*
X14635000Y-12745000D02*
X14665000Y-12775000D01*
X14665000Y-12745000D02*
X14635000Y-12775000D01*
X14674711Y-14029278D02*
X14704711Y-14059278D01*
X14704711Y-14029278D02*
X14674711Y-14059278D01*
X14685000Y-12645000D02*
X14715000Y-12675000D01*
X14715000Y-12645000D02*
X14685000Y-12675000D01*
X14705000Y-13385000D02*
X14735000Y-13415000D01*
X14735000Y-13385000D02*
X14705000Y-13415000D01*
X14726770Y-13788376D02*
X14756770Y-13818376D01*
X14756770Y-13788376D02*
X14726770Y-13818376D01*
X14745000Y-13215000D02*
X14775000Y-13245000D01*
X14775000Y-13215000D02*
X14745000Y-13245000D01*
X14815000Y-13805000D02*
X14845000Y-13835000D01*
X14845000Y-13805000D02*
X14815000Y-13835000D01*
X14835000Y-14085000D02*
X14865000Y-14115000D01*
X14865000Y-14085000D02*
X14835000Y-14115000D01*
X14865000Y-13875000D02*
X14895000Y-13905000D01*
X14895000Y-13875000D02*
X14865000Y-13905000D01*
X14935000Y-13965000D02*
X14965000Y-13995000D01*
X14965000Y-13965000D02*
X14935000Y-13995000D01*
X14985000Y-14325000D02*
X15015000Y-14355000D01*
X15015000Y-14325000D02*
X14985000Y-14355000D01*
X15005000Y-13605000D02*
X15035000Y-13635000D01*
X15035000Y-13605000D02*
X15005000Y-13635000D01*
X15042426Y-14107573D02*
X15072426Y-14137573D01*
X15072426Y-14107573D02*
X15042426Y-14137573D01*
X15045000Y-11645000D02*
X15075000Y-11675000D01*
X15075000Y-11645000D02*
X15045000Y-11675000D01*
X15085000Y-13155000D02*
X15115000Y-13185000D01*
X15115000Y-13155000D02*
X15085000Y-13185000D01*
X15145000Y-13855000D02*
X15175000Y-13885000D01*
X15175000Y-13855000D02*
X15145000Y-13885000D01*
X15152466Y-13477445D02*
X15182466Y-13507445D01*
X15182466Y-13477445D02*
X15152466Y-13507445D01*
X15165000Y-13085000D02*
X15195000Y-13115000D01*
X15195000Y-13085000D02*
X15165000Y-13115000D01*
X15169218Y-13399218D02*
X15199218Y-13429218D01*
X15199218Y-13399218D02*
X15169218Y-13429218D01*
X15175000Y-14015000D02*
X15205000Y-14045000D01*
X15205000Y-14015000D02*
X15175000Y-14045000D01*
X15305000Y-13675000D02*
X15335000Y-13705000D01*
X15335000Y-13675000D02*
X15305000Y-13705000D01*
X15345000Y-14035000D02*
X15375000Y-14065000D01*
X15375000Y-14035000D02*
X15345000Y-14065000D01*
X15375000Y-13195000D02*
X15405000Y-13225000D01*
X15405000Y-13195000D02*
X15375000Y-13225000D01*
X15445000Y-13145000D02*
X15475000Y-13175000D01*
X15475000Y-13145000D02*
X15445000Y-13175000D01*
X15545000Y-13045000D02*
X15575000Y-13075000D01*
X15575000Y-13045000D02*
X15545000Y-13075000D01*
X15599853Y-13315000D02*
X15629853Y-13345000D01*
X15629853Y-13315000D02*
X15599853Y-13345000D01*
X15735000Y-12855000D02*
X15765000Y-12885000D01*
X15765000Y-12855000D02*
X15735000Y-12885000D01*
X15735000Y-14145000D02*
X15765000Y-14175000D01*
X15765000Y-14145000D02*
X15735000Y-14175000D01*
X15775000Y-13505000D02*
X15805000Y-13535000D01*
X15805000Y-13505000D02*
X15775000Y-13535000D01*
X15875000Y-13195300D02*
X15905000Y-13225300D01*
X15905000Y-13195300D02*
X15875000Y-13225300D01*
X15955000Y-13635000D02*
X15985000Y-13665000D01*
X15985000Y-13635000D02*
X15955000Y-13665000D01*
X15985000Y-13985000D02*
X16015000Y-14015000D01*
X16015000Y-13985000D02*
X15985000Y-14015000D01*
X16055000Y-13745000D02*
X16085000Y-13775000D01*
X16085000Y-13745000D02*
X16055000Y-13775000D01*
X16115000Y-14155000D02*
X16145000Y-14185000D01*
X16145000Y-14155000D02*
X16115000Y-14185000D01*
X16155000Y-13915000D02*
X16185000Y-13945000D01*
X16185000Y-13915000D02*
X16155000Y-13945000D01*
X16165000Y-14015000D02*
X16195000Y-14045000D01*
X16195000Y-14015000D02*
X16165000Y-14045000D01*
X16245000Y-13205000D02*
X16275000Y-13235000D01*
X16275000Y-13205000D02*
X16245000Y-13235000D01*
X16275000Y-13645000D02*
X16305000Y-13675000D01*
X16305000Y-13645000D02*
X16275000Y-13675000D01*
X16295000Y-13475000D02*
X16325000Y-13505000D01*
X16325000Y-13475000D02*
X16295000Y-13505000D01*
X16404573Y-13535000D02*
X16434573Y-13565000D01*
X16434573Y-13535000D02*
X16404573Y-13565000D01*
X16505000Y-14125000D02*
X16535000Y-14155000D01*
X16535000Y-14125000D02*
X16505000Y-14155000D01*
X16535000Y-13915000D02*
X16565000Y-13945000D01*
X16565000Y-13915000D02*
X16535000Y-13945000D01*
X16588355Y-13261645D02*
X16618355Y-13291645D01*
X16618355Y-13261645D02*
X16588355Y-13291645D01*
X16605000Y-13505000D02*
X16635000Y-13535000D01*
X16635000Y-13505000D02*
X16605000Y-13535000D01*
X16775000Y-14175000D02*
X16805000Y-14205000D01*
X16805000Y-14175000D02*
X16775000Y-14205000D01*
X16795000Y-13295000D02*
X16825000Y-13325000D01*
X16825000Y-13295000D02*
X16795000Y-13325000D01*
X16795000Y-13615000D02*
X16825000Y-13645000D01*
X16825000Y-13615000D02*
X16795000Y-13645000D01*
X16915000Y-13525000D02*
X16945000Y-13555000D01*
X16945000Y-13525000D02*
X16915000Y-13555000D01*
X16925000Y-12785000D02*
X16955000Y-12815000D01*
X16955000Y-12785000D02*
X16925000Y-12815000D01*
X16965000Y-13245000D02*
X16995000Y-13275000D01*
X16995000Y-13245000D02*
X16965000Y-13275000D01*
X17012427Y-12722426D02*
X17042427Y-12752426D01*
X17042427Y-12722426D02*
X17012427Y-12752426D01*
X17065000Y-13735000D02*
X17095000Y-13765000D01*
X17095000Y-13735000D02*
X17065000Y-13765000D01*
X17065000Y-13885000D02*
X17095000Y-13915000D01*
X17095000Y-13885000D02*
X17065000Y-13915000D01*
X17075000Y-12615000D02*
X17105000Y-12645000D01*
X17105000Y-12615000D02*
X17075000Y-12645000D01*
X17075000Y-13485000D02*
X17105000Y-13515000D01*
X17105000Y-13485000D02*
X17075000Y-13515000D01*
X17105000Y-14117326D02*
X17135000Y-14147326D01*
X17135000Y-14117326D02*
X17105000Y-14147326D01*
X17145000Y-13305000D02*
X17175000Y-13335000D01*
X17175000Y-13305000D02*
X17145000Y-13335000D01*
X17165000Y-12775000D02*
X17195000Y-12805000D01*
X17195000Y-12775000D02*
X17165000Y-12805000D01*
X17225000Y-12525000D02*
X17255000Y-12555000D01*
X17255000Y-12525000D02*
X17225000Y-12555000D01*
X17225000Y-12615000D02*
X17255000Y-12645000D01*
X17255000Y-12615000D02*
X17225000Y-12645000D01*
X17225000Y-13305000D02*
X17255000Y-13335000D01*
X17255000Y-13305000D02*
X17225000Y-13335000D01*
X17285000Y-13025000D02*
X17315000Y-13055000D01*
X17315000Y-13025000D02*
X17285000Y-13055000D01*
X17305000Y-13305000D02*
X17335000Y-13335000D01*
X17335000Y-13305000D02*
X17305000Y-13335000D01*
X17367427Y-13027426D02*
X17397427Y-13057426D01*
X17397427Y-13027426D02*
X17367427Y-13057426D01*
X17375000Y-13775000D02*
X17405000Y-13805000D01*
X17405000Y-13775000D02*
X17375000Y-13805000D01*
X17434965Y-14017051D02*
X17464965Y-14047051D01*
X17464965Y-14017051D02*
X17434965Y-14047051D01*
X17435000Y-13325000D02*
X17465000Y-13355000D01*
X17465000Y-13325000D02*
X17435000Y-13355000D01*
X17435000Y-13932233D02*
X17465000Y-13962233D01*
X17465000Y-13932233D02*
X17435000Y-13962233D01*
X17447356Y-13024064D02*
X17477356Y-13054064D01*
X17477356Y-13024064D02*
X17447356Y-13054064D01*
X17485240Y-13867113D02*
X17515240Y-13897113D01*
X17515240Y-13867113D02*
X17485240Y-13897113D01*
X17525000Y-12485000D02*
X17555000Y-12515000D01*
X17555000Y-12485000D02*
X17525000Y-12515000D01*
X17525000Y-12605000D02*
X17555000Y-12635000D01*
X17555000Y-12605000D02*
X17525000Y-12635000D01*
X17535000Y-13295000D02*
X17565000Y-13325000D01*
X17565000Y-13295000D02*
X17535000Y-13325000D01*
X17565000Y-12325000D02*
X17595000Y-12355000D01*
X17595000Y-12325000D02*
X17565000Y-12355000D01*
X17565000Y-12805000D02*
X17595000Y-12835000D01*
X17595000Y-12805000D02*
X17565000Y-12835000D01*
X17665000Y-13405000D02*
X17695000Y-13435000D01*
X17695000Y-13405000D02*
X17665000Y-13435000D01*
X17675000Y-12615000D02*
X17705000Y-12645000D01*
X17705000Y-12615000D02*
X17675000Y-12645000D01*
X17705000Y-12485000D02*
X17735000Y-12515000D01*
X17735000Y-12485000D02*
X17705000Y-12515000D01*
X17725000Y-12795000D02*
X17755000Y-12825000D01*
X17755000Y-12795000D02*
X17725000Y-12825000D01*
X17725000Y-13155000D02*
X17755000Y-13185000D01*
X17755000Y-13155000D02*
X17725000Y-13185000D01*
X17765000Y-13985000D02*
X17795000Y-14015000D01*
X17795000Y-13985000D02*
X17765000Y-14015000D01*
X17775000Y-13223233D02*
X17805000Y-13253233D01*
X17805000Y-13223233D02*
X17775000Y-13253233D01*
X17825000Y-13585000D02*
X17855000Y-13615000D01*
X17855000Y-13585000D02*
X17825000Y-13615000D01*
X17885000Y-13845000D02*
X17915000Y-13875000D01*
X17915000Y-13845000D02*
X17885000Y-13875000D01*
X17975830Y-14284900D02*
X18005830Y-14314900D01*
X18005830Y-14284900D02*
X17975830Y-14314900D01*
X17995000Y-13765000D02*
X18025000Y-13795000D01*
X18025000Y-13765000D02*
X17995000Y-13795000D01*
X18065000Y-14300000D02*
X18095000Y-14330000D01*
X18095000Y-14300000D02*
X18065000Y-14330000D01*
X18155000Y-13665000D02*
X18185000Y-13695000D01*
X18185000Y-13665000D02*
X18155000Y-13695000D01*
X18155000Y-14315000D02*
X18185000Y-14345000D01*
X18185000Y-14315000D02*
X18155000Y-14345000D01*
X18230000Y-13990000D02*
X18260000Y-14020000D01*
X18260000Y-13990000D02*
X18230000Y-14020000D01*
X18245000Y-14305000D02*
X18275000Y-14335000D01*
X18275000Y-14305000D02*
X18245000Y-14335000D01*
X18335000Y-13484999D02*
X18365000Y-13514999D01*
X18365000Y-13484999D02*
X18335000Y-13514999D01*
X18335000Y-13565000D02*
X18365000Y-13595000D01*
X18365000Y-13565000D02*
X18335000Y-13595000D01*
X18335000Y-13645000D02*
X18365000Y-13675000D01*
X18365000Y-13645000D02*
X18335000Y-13675000D01*
X18335000Y-13725000D02*
X18365000Y-13755000D01*
X18365000Y-13725000D02*
X18335000Y-13755000D01*
X18335000Y-13805000D02*
X18365000Y-13835000D01*
X18365000Y-13805000D02*
X18335000Y-13835000D01*
X18335001Y-13885000D02*
X18365001Y-13915000D01*
X18365001Y-13885000D02*
X18335001Y-13915000D01*
X18425000Y-14225000D02*
X18455000Y-14255000D01*
X18455000Y-14225000D02*
X18425000Y-14255000D01*
X13175000Y-11970000D02*
G75*
G02*
X13115000Y-11970000I-30000J0D01*
G01*
X13115000Y-11970000D02*
G75*
G02*
X13175000Y-11970000I30000J0D01*
G01*
X13180000Y-11940000D02*
X13110000Y-11940000D01*
X13110000Y-12000000D02*
G75*
G02*
X13110000Y-11940000I0J30000D01*
G01*
X13110000Y-12000000D02*
X13180000Y-12000000D01*
X13180000Y-12000000D02*
G75*
G03*
X13180000Y-11940000I0J30000D01*
G01*
X13175000Y-13070000D02*
G75*
G02*
X13115000Y-13070000I-30000J0D01*
G01*
X13115000Y-13070000D02*
G75*
G02*
X13175000Y-13070000I30000J0D01*
G01*
X13180000Y-13040000D02*
X13110000Y-13040000D01*
X13110000Y-13100000D02*
G75*
G02*
X13110000Y-13040000I0J30000D01*
G01*
X13110000Y-13100000D02*
X13180000Y-13100000D01*
X13180000Y-13100000D02*
G75*
G03*
X13180000Y-13040000I0J30000D01*
G01*
X13595000Y-12120000D02*
G75*
G02*
X13535000Y-12120000I-30000J0D01*
G01*
X13535000Y-12120000D02*
G75*
G02*
X13595000Y-12120000I30000J0D01*
G01*
X13535000Y-12090000D02*
X13535000Y-12150000D01*
X13595000Y-12150000D02*
G75*
G02*
X13535000Y-12150000I-30000J0D01*
G01*
X13595000Y-12150000D02*
X13595000Y-12090000D01*
X13595000Y-12090000D02*
G75*
G03*
X13535000Y-12090000I-30000J0D01*
G01*
X13595000Y-12920000D02*
G75*
G02*
X13535000Y-12920000I-30000J0D01*
G01*
X13535000Y-12920000D02*
G75*
G02*
X13595000Y-12920000I30000J0D01*
G01*
X13535000Y-12890000D02*
X13535000Y-12950000D01*
X13595000Y-12950000D02*
G75*
G02*
X13535000Y-12950000I-30000J0D01*
G01*
X13595000Y-12950000D02*
X13595000Y-12890000D01*
X13595000Y-12890000D02*
G75*
G03*
X13535000Y-12890000I-30000J0D01*
G01*
X13635000Y-12090000D02*
G75*
G02*
X13575000Y-12090000I-30000J0D01*
G01*
X13575000Y-12090000D02*
G75*
G02*
X13635000Y-12090000I30000J0D01*
G01*
X13655000Y-12060000D02*
X13555000Y-12060000D01*
X13555000Y-12120000D02*
G75*
G02*
X13555000Y-12060000I0J30000D01*
G01*
X13555000Y-12120000D02*
X13655000Y-12120000D01*
X13655000Y-12120000D02*
G75*
G03*
X13655000Y-12060000I0J30000D01*
G01*
X13635000Y-12950000D02*
G75*
G02*
X13575000Y-12950000I-30000J0D01*
G01*
X13575000Y-12950000D02*
G75*
G02*
X13635000Y-12950000I30000J0D01*
G01*
X13655000Y-12920000D02*
X13555000Y-12920000D01*
X13555000Y-12980000D02*
G75*
G02*
X13555000Y-12920000I0J30000D01*
G01*
X13555000Y-12980000D02*
X13655000Y-12980000D01*
X13655000Y-12980000D02*
G75*
G03*
X13655000Y-12920000I0J30000D01*
G01*
X15763000Y-10750000D02*
X15763000Y-10840000D01*
X15718000Y-10795000D02*
X15808000Y-10795000D01*
X16017000Y-10750000D02*
X16017000Y-10840000D01*
X15972000Y-10795000D02*
X16062000Y-10795000D01*
X16271000Y-10750000D02*
X16271000Y-10840000D01*
X16226000Y-10795000D02*
X16316000Y-10795000D01*
X16525000Y-10750000D02*
X16525000Y-10840000D01*
X16480000Y-10795000D02*
X16570000Y-10795000D01*
X13235356Y-14255356D02*
X13235356Y-14184644D01*
X13164644Y-14184644D01*
X13164644Y-14255356D01*
X13235356Y-14255356D01*
X13489356Y-14255356D02*
X13489356Y-14184644D01*
X13418644Y-14184644D01*
X13418644Y-14255356D01*
X13489356Y-14255356D01*
X13743356Y-14255356D02*
X13743356Y-14184644D01*
X13672644Y-14184644D01*
X13672644Y-14255356D01*
X13743356Y-14255356D01*
X13997356Y-14255356D02*
X13997356Y-14184644D01*
X13926644Y-14184644D01*
X13926644Y-14255356D01*
X13997356Y-14255356D01*
X14055356Y-11525356D02*
X14055356Y-11454644D01*
X13984644Y-11454644D01*
X13984644Y-11525356D01*
X14055356Y-11525356D01*
X14055356Y-11775356D02*
X14055356Y-11704644D01*
X13984644Y-11704644D01*
X13984644Y-11775356D01*
X14055356Y-11775356D01*
X14251356Y-14255356D02*
X14251356Y-14184644D01*
X14180644Y-14184644D01*
X14180644Y-14255356D01*
X14251356Y-14255356D01*
X14505356Y-14255356D02*
X14505356Y-14184644D01*
X14434644Y-14184644D01*
X14434644Y-14255356D01*
X14505356Y-14255356D01*
X17935356Y-11355356D02*
X17935356Y-11284644D01*
X17864644Y-11284644D01*
X17864644Y-11355356D01*
X17935356Y-11355356D01*
X17935356Y-11855356D02*
X17935356Y-11784644D01*
X17864644Y-11784644D01*
X17864644Y-11855356D01*
X17935356Y-11855356D01*
X18185356Y-11355356D02*
X18185356Y-11284644D01*
X18114644Y-11284644D01*
X18114644Y-11355356D01*
X18185356Y-11355356D01*
X18185356Y-11605356D02*
X18185356Y-11534644D01*
X18114644Y-11534644D01*
X18114644Y-11605356D01*
X18185356Y-11605356D01*
X18185356Y-11855356D02*
X18185356Y-11784644D01*
X18114644Y-11784644D01*
X18114644Y-11855356D01*
X18185356Y-11855356D01*
D13*
X17800000Y-11030000D02*
X17905000Y-10925000D01*
X17800000Y-10820000D01*
X17695000Y-10925000D01*
X17800000Y-11030000D01*
D12*
X17780000Y-11030000D02*
X17820000Y-11030000D01*
X17820000Y-10820000D02*
G75*
G02*
X17820000Y-11030000I0J-105000D01*
G01*
X17820000Y-10820000D02*
X17780000Y-10820000D01*
X17780000Y-10820000D02*
G75*
G03*
X17780000Y-11030000I0J-105000D01*
G01*
D13*
X17800000Y-12320000D02*
X17905000Y-12215000D01*
X17800000Y-12110000D01*
X17695000Y-12215000D01*
X17800000Y-12320000D01*
D12*
X17780000Y-12320000D02*
X17820000Y-12320000D01*
X17820000Y-12110000D02*
G75*
G02*
X17820000Y-12320000I0J-105000D01*
G01*
X17820000Y-12110000D02*
X17780000Y-12110000D01*
X17780000Y-12110000D02*
G75*
G03*
X17780000Y-12320000I0J-105000D01*
G01*
D11*
X13158277Y-15333984D02*
X13158277Y-15133984D01*
X13158277Y-15133984D02*
X13205896Y-15133984D01*
X13205896Y-15133984D02*
X13234467Y-15143508D01*
X13234467Y-15143508D02*
X13253515Y-15162555D01*
X13253515Y-15162555D02*
X13263039Y-15181603D01*
X13263039Y-15181603D02*
X13272562Y-15219698D01*
X13272562Y-15219698D02*
X13272562Y-15248269D01*
X13272562Y-15248269D02*
X13263039Y-15286365D01*
X13263039Y-15286365D02*
X13253515Y-15305412D01*
X13253515Y-15305412D02*
X13234467Y-15324460D01*
X13234467Y-15324460D02*
X13205896Y-15333984D01*
X13205896Y-15333984D02*
X13158277Y-15333984D01*
X13358277Y-15333984D02*
X13358277Y-15200650D01*
X13358277Y-15238746D02*
X13367801Y-15219698D01*
X13367801Y-15219698D02*
X13377324Y-15210174D01*
X13377324Y-15210174D02*
X13396372Y-15200650D01*
X13396372Y-15200650D02*
X13415420Y-15200650D01*
X13482086Y-15333984D02*
X13482086Y-15200650D01*
X13482086Y-15133984D02*
X13472562Y-15143508D01*
X13472562Y-15143508D02*
X13482086Y-15153031D01*
X13482086Y-15153031D02*
X13491610Y-15143508D01*
X13491610Y-15143508D02*
X13482086Y-15133984D01*
X13482086Y-15133984D02*
X13482086Y-15153031D01*
X13605896Y-15333984D02*
X13586848Y-15324460D01*
X13586848Y-15324460D02*
X13577324Y-15305412D01*
X13577324Y-15305412D02*
X13577324Y-15133984D01*
X13710658Y-15333984D02*
X13691610Y-15324460D01*
X13691610Y-15324460D02*
X13682086Y-15305412D01*
X13682086Y-15305412D02*
X13682086Y-15133984D01*
X13939229Y-15333984D02*
X13939229Y-15133984D01*
X13939229Y-15133984D02*
X14005896Y-15276841D01*
X14005896Y-15276841D02*
X14072562Y-15133984D01*
X14072562Y-15133984D02*
X14072562Y-15333984D01*
X14253515Y-15333984D02*
X14253515Y-15229222D01*
X14253515Y-15229222D02*
X14243991Y-15210174D01*
X14243991Y-15210174D02*
X14224943Y-15200650D01*
X14224943Y-15200650D02*
X14186848Y-15200650D01*
X14186848Y-15200650D02*
X14167801Y-15210174D01*
X14253515Y-15324460D02*
X14234467Y-15333984D01*
X14234467Y-15333984D02*
X14186848Y-15333984D01*
X14186848Y-15333984D02*
X14167801Y-15324460D01*
X14167801Y-15324460D02*
X14158277Y-15305412D01*
X14158277Y-15305412D02*
X14158277Y-15286365D01*
X14158277Y-15286365D02*
X14167801Y-15267317D01*
X14167801Y-15267317D02*
X14186848Y-15257793D01*
X14186848Y-15257793D02*
X14234467Y-15257793D01*
X14234467Y-15257793D02*
X14253515Y-15248269D01*
X14348753Y-15200650D02*
X14348753Y-15400650D01*
X14348753Y-15210174D02*
X14367801Y-15200650D01*
X14367801Y-15200650D02*
X14405896Y-15200650D01*
X14405896Y-15200650D02*
X14424943Y-15210174D01*
X14424943Y-15210174D02*
X14434467Y-15219698D01*
X14434467Y-15219698D02*
X14443991Y-15238746D01*
X14443991Y-15238746D02*
X14443991Y-15295888D01*
X14443991Y-15295888D02*
X14434467Y-15314936D01*
X14434467Y-15314936D02*
X14424943Y-15324460D01*
X14424943Y-15324460D02*
X14405896Y-15333984D01*
X14405896Y-15333984D02*
X14367801Y-15333984D01*
X14367801Y-15333984D02*
X14348753Y-15324460D01*
X14529705Y-15314936D02*
X14539229Y-15324460D01*
X14539229Y-15324460D02*
X14529705Y-15333984D01*
X14529705Y-15333984D02*
X14520182Y-15324460D01*
X14520182Y-15324460D02*
X14529705Y-15314936D01*
X14529705Y-15314936D02*
X14529705Y-15333984D01*
X14529705Y-15210174D02*
X14539229Y-15219698D01*
X14539229Y-15219698D02*
X14529705Y-15229222D01*
X14529705Y-15229222D02*
X14520182Y-15219698D01*
X14520182Y-15219698D02*
X14529705Y-15210174D01*
X14529705Y-15210174D02*
X14529705Y-15229222D01*
D12*
X12867500Y-15647500D02*
X12897500Y-15677500D01*
X12897500Y-15647500D02*
X12867500Y-15677500D01*
D11*
X13196372Y-15553984D02*
X13215420Y-15553984D01*
X13215420Y-15553984D02*
X13234467Y-15563508D01*
X13234467Y-15563508D02*
X13243991Y-15573031D01*
X13243991Y-15573031D02*
X13253515Y-15592079D01*
X13253515Y-15592079D02*
X13263039Y-15630174D01*
X13263039Y-15630174D02*
X13263039Y-15677793D01*
X13263039Y-15677793D02*
X13253515Y-15715888D01*
X13253515Y-15715888D02*
X13243991Y-15734936D01*
X13243991Y-15734936D02*
X13234467Y-15744460D01*
X13234467Y-15744460D02*
X13215420Y-15753984D01*
X13215420Y-15753984D02*
X13196372Y-15753984D01*
X13196372Y-15753984D02*
X13177324Y-15744460D01*
X13177324Y-15744460D02*
X13167801Y-15734936D01*
X13167801Y-15734936D02*
X13158277Y-15715888D01*
X13158277Y-15715888D02*
X13148753Y-15677793D01*
X13148753Y-15677793D02*
X13148753Y-15630174D01*
X13148753Y-15630174D02*
X13158277Y-15592079D01*
X13158277Y-15592079D02*
X13167801Y-15573031D01*
X13167801Y-15573031D02*
X13177324Y-15563508D01*
X13177324Y-15563508D02*
X13196372Y-15553984D01*
X13348753Y-15734936D02*
X13358277Y-15744460D01*
X13358277Y-15744460D02*
X13348753Y-15753984D01*
X13348753Y-15753984D02*
X13339229Y-15744460D01*
X13339229Y-15744460D02*
X13348753Y-15734936D01*
X13348753Y-15734936D02*
X13348753Y-15753984D01*
X13424943Y-15553984D02*
X13548753Y-15553984D01*
X13548753Y-15553984D02*
X13482086Y-15630174D01*
X13482086Y-15630174D02*
X13510658Y-15630174D01*
X13510658Y-15630174D02*
X13529705Y-15639698D01*
X13529705Y-15639698D02*
X13539229Y-15649222D01*
X13539229Y-15649222D02*
X13548753Y-15668269D01*
X13548753Y-15668269D02*
X13548753Y-15715888D01*
X13548753Y-15715888D02*
X13539229Y-15734936D01*
X13539229Y-15734936D02*
X13529705Y-15744460D01*
X13529705Y-15744460D02*
X13510658Y-15753984D01*
X13510658Y-15753984D02*
X13453515Y-15753984D01*
X13453515Y-15753984D02*
X13434467Y-15744460D01*
X13434467Y-15744460D02*
X13424943Y-15734936D01*
X13672562Y-15553984D02*
X13691610Y-15553984D01*
X13691610Y-15553984D02*
X13710658Y-15563508D01*
X13710658Y-15563508D02*
X13720182Y-15573031D01*
X13720182Y-15573031D02*
X13729705Y-15592079D01*
X13729705Y-15592079D02*
X13739229Y-15630174D01*
X13739229Y-15630174D02*
X13739229Y-15677793D01*
X13739229Y-15677793D02*
X13729705Y-15715888D01*
X13729705Y-15715888D02*
X13720182Y-15734936D01*
X13720182Y-15734936D02*
X13710658Y-15744460D01*
X13710658Y-15744460D02*
X13691610Y-15753984D01*
X13691610Y-15753984D02*
X13672562Y-15753984D01*
X13672562Y-15753984D02*
X13653515Y-15744460D01*
X13653515Y-15744460D02*
X13643991Y-15734936D01*
X13643991Y-15734936D02*
X13634467Y-15715888D01*
X13634467Y-15715888D02*
X13624943Y-15677793D01*
X13624943Y-15677793D02*
X13624943Y-15630174D01*
X13624943Y-15630174D02*
X13634467Y-15592079D01*
X13634467Y-15592079D02*
X13643991Y-15573031D01*
X13643991Y-15573031D02*
X13653515Y-15563508D01*
X13653515Y-15563508D02*
X13672562Y-15553984D01*
X13863039Y-15553984D02*
X13882086Y-15553984D01*
X13882086Y-15553984D02*
X13901134Y-15563508D01*
X13901134Y-15563508D02*
X13910658Y-15573031D01*
X13910658Y-15573031D02*
X13920182Y-15592079D01*
X13920182Y-15592079D02*
X13929705Y-15630174D01*
X13929705Y-15630174D02*
X13929705Y-15677793D01*
X13929705Y-15677793D02*
X13920182Y-15715888D01*
X13920182Y-15715888D02*
X13910658Y-15734936D01*
X13910658Y-15734936D02*
X13901134Y-15744460D01*
X13901134Y-15744460D02*
X13882086Y-15753984D01*
X13882086Y-15753984D02*
X13863039Y-15753984D01*
X13863039Y-15753984D02*
X13843991Y-15744460D01*
X13843991Y-15744460D02*
X13834467Y-15734936D01*
X13834467Y-15734936D02*
X13824943Y-15715888D01*
X13824943Y-15715888D02*
X13815420Y-15677793D01*
X13815420Y-15677793D02*
X13815420Y-15630174D01*
X13815420Y-15630174D02*
X13824943Y-15592079D01*
X13824943Y-15592079D02*
X13834467Y-15573031D01*
X13834467Y-15573031D02*
X13843991Y-15563508D01*
X13843991Y-15563508D02*
X13863039Y-15553984D01*
X14015420Y-15753984D02*
X14015420Y-15620650D01*
X14015420Y-15639698D02*
X14024943Y-15630174D01*
X14024943Y-15630174D02*
X14043991Y-15620650D01*
X14043991Y-15620650D02*
X14072563Y-15620650D01*
X14072563Y-15620650D02*
X14091610Y-15630174D01*
X14091610Y-15630174D02*
X14101134Y-15649222D01*
X14101134Y-15649222D02*
X14101134Y-15753984D01*
X14101134Y-15649222D02*
X14110658Y-15630174D01*
X14110658Y-15630174D02*
X14129705Y-15620650D01*
X14129705Y-15620650D02*
X14158277Y-15620650D01*
X14158277Y-15620650D02*
X14177324Y-15630174D01*
X14177324Y-15630174D02*
X14186848Y-15649222D01*
X14186848Y-15649222D02*
X14186848Y-15753984D01*
X14282086Y-15753984D02*
X14282086Y-15620650D01*
X14282086Y-15639698D02*
X14291610Y-15630174D01*
X14291610Y-15630174D02*
X14310658Y-15620650D01*
X14310658Y-15620650D02*
X14339229Y-15620650D01*
X14339229Y-15620650D02*
X14358277Y-15630174D01*
X14358277Y-15630174D02*
X14367801Y-15649222D01*
X14367801Y-15649222D02*
X14367801Y-15753984D01*
X14367801Y-15649222D02*
X14377324Y-15630174D01*
X14377324Y-15630174D02*
X14396372Y-15620650D01*
X14396372Y-15620650D02*
X14424943Y-15620650D01*
X14424943Y-15620650D02*
X14443991Y-15630174D01*
X14443991Y-15630174D02*
X14453515Y-15649222D01*
X14453515Y-15649222D02*
X14453515Y-15753984D01*
X14843991Y-15544460D02*
X14672563Y-15801603D01*
X15101134Y-15553984D02*
X15120182Y-15553984D01*
X15120182Y-15553984D02*
X15139229Y-15563508D01*
X15139229Y-15563508D02*
X15148753Y-15573031D01*
X15148753Y-15573031D02*
X15158277Y-15592079D01*
X15158277Y-15592079D02*
X15167801Y-15630174D01*
X15167801Y-15630174D02*
X15167801Y-15677793D01*
X15167801Y-15677793D02*
X15158277Y-15715888D01*
X15158277Y-15715888D02*
X15148753Y-15734936D01*
X15148753Y-15734936D02*
X15139229Y-15744460D01*
X15139229Y-15744460D02*
X15120182Y-15753984D01*
X15120182Y-15753984D02*
X15101134Y-15753984D01*
X15101134Y-15753984D02*
X15082086Y-15744460D01*
X15082086Y-15744460D02*
X15072563Y-15734936D01*
X15072563Y-15734936D02*
X15063039Y-15715888D01*
X15063039Y-15715888D02*
X15053515Y-15677793D01*
X15053515Y-15677793D02*
X15053515Y-15630174D01*
X15053515Y-15630174D02*
X15063039Y-15592079D01*
X15063039Y-15592079D02*
X15072563Y-15573031D01*
X15072563Y-15573031D02*
X15082086Y-15563508D01*
X15082086Y-15563508D02*
X15101134Y-15553984D01*
X15253515Y-15734936D02*
X15263039Y-15744460D01*
X15263039Y-15744460D02*
X15253515Y-15753984D01*
X15253515Y-15753984D02*
X15243991Y-15744460D01*
X15243991Y-15744460D02*
X15253515Y-15734936D01*
X15253515Y-15734936D02*
X15253515Y-15753984D01*
X15386848Y-15553984D02*
X15405896Y-15553984D01*
X15405896Y-15553984D02*
X15424944Y-15563508D01*
X15424944Y-15563508D02*
X15434467Y-15573031D01*
X15434467Y-15573031D02*
X15443991Y-15592079D01*
X15443991Y-15592079D02*
X15453515Y-15630174D01*
X15453515Y-15630174D02*
X15453515Y-15677793D01*
X15453515Y-15677793D02*
X15443991Y-15715888D01*
X15443991Y-15715888D02*
X15434467Y-15734936D01*
X15434467Y-15734936D02*
X15424944Y-15744460D01*
X15424944Y-15744460D02*
X15405896Y-15753984D01*
X15405896Y-15753984D02*
X15386848Y-15753984D01*
X15386848Y-15753984D02*
X15367801Y-15744460D01*
X15367801Y-15744460D02*
X15358277Y-15734936D01*
X15358277Y-15734936D02*
X15348753Y-15715888D01*
X15348753Y-15715888D02*
X15339229Y-15677793D01*
X15339229Y-15677793D02*
X15339229Y-15630174D01*
X15339229Y-15630174D02*
X15348753Y-15592079D01*
X15348753Y-15592079D02*
X15358277Y-15573031D01*
X15358277Y-15573031D02*
X15367801Y-15563508D01*
X15367801Y-15563508D02*
X15386848Y-15553984D01*
X15643991Y-15753984D02*
X15529706Y-15753984D01*
X15586848Y-15753984D02*
X15586848Y-15553984D01*
X15586848Y-15553984D02*
X15567801Y-15582555D01*
X15567801Y-15582555D02*
X15548753Y-15601603D01*
X15548753Y-15601603D02*
X15529706Y-15611127D01*
X15834467Y-15753984D02*
X15720182Y-15753984D01*
X15777325Y-15753984D02*
X15777325Y-15553984D01*
X15777325Y-15553984D02*
X15758277Y-15582555D01*
X15758277Y-15582555D02*
X15739229Y-15601603D01*
X15739229Y-15601603D02*
X15720182Y-15611127D01*
X15948753Y-15639698D02*
X15929706Y-15630174D01*
X15929706Y-15630174D02*
X15920182Y-15620650D01*
X15920182Y-15620650D02*
X15910658Y-15601603D01*
X15910658Y-15601603D02*
X15910658Y-15592079D01*
X15910658Y-15592079D02*
X15920182Y-15573031D01*
X15920182Y-15573031D02*
X15929706Y-15563508D01*
X15929706Y-15563508D02*
X15948753Y-15553984D01*
X15948753Y-15553984D02*
X15986848Y-15553984D01*
X15986848Y-15553984D02*
X16005896Y-15563508D01*
X16005896Y-15563508D02*
X16015420Y-15573031D01*
X16015420Y-15573031D02*
X16024944Y-15592079D01*
X16024944Y-15592079D02*
X16024944Y-15601603D01*
X16024944Y-15601603D02*
X16015420Y-15620650D01*
X16015420Y-15620650D02*
X16005896Y-15630174D01*
X16005896Y-15630174D02*
X15986848Y-15639698D01*
X15986848Y-15639698D02*
X15948753Y-15639698D01*
X15948753Y-15639698D02*
X15929706Y-15649222D01*
X15929706Y-15649222D02*
X15920182Y-15658746D01*
X15920182Y-15658746D02*
X15910658Y-15677793D01*
X15910658Y-15677793D02*
X15910658Y-15715888D01*
X15910658Y-15715888D02*
X15920182Y-15734936D01*
X15920182Y-15734936D02*
X15929706Y-15744460D01*
X15929706Y-15744460D02*
X15948753Y-15753984D01*
X15948753Y-15753984D02*
X15986848Y-15753984D01*
X15986848Y-15753984D02*
X16005896Y-15744460D01*
X16005896Y-15744460D02*
X16015420Y-15734936D01*
X16015420Y-15734936D02*
X16024944Y-15715888D01*
X16024944Y-15715888D02*
X16024944Y-15677793D01*
X16024944Y-15677793D02*
X16015420Y-15658746D01*
X16015420Y-15658746D02*
X16005896Y-15649222D01*
X16005896Y-15649222D02*
X15986848Y-15639698D01*
X16101134Y-15553984D02*
X16101134Y-15592079D01*
X16177325Y-15553984D02*
X16177325Y-15592079D01*
X16472563Y-15830174D02*
X16463039Y-15820650D01*
X16463039Y-15820650D02*
X16443991Y-15792079D01*
X16443991Y-15792079D02*
X16434468Y-15773031D01*
X16434468Y-15773031D02*
X16424944Y-15744460D01*
X16424944Y-15744460D02*
X16415420Y-15696841D01*
X16415420Y-15696841D02*
X16415420Y-15658746D01*
X16415420Y-15658746D02*
X16424944Y-15611127D01*
X16424944Y-15611127D02*
X16434468Y-15582555D01*
X16434468Y-15582555D02*
X16443991Y-15563508D01*
X16443991Y-15563508D02*
X16463039Y-15534936D01*
X16463039Y-15534936D02*
X16472563Y-15525412D01*
X16653515Y-15753984D02*
X16539229Y-15753984D01*
X16596372Y-15753984D02*
X16596372Y-15553984D01*
X16596372Y-15553984D02*
X16577325Y-15582555D01*
X16577325Y-15582555D02*
X16558277Y-15601603D01*
X16558277Y-15601603D02*
X16539229Y-15611127D01*
X16824944Y-15620650D02*
X16824944Y-15753984D01*
X16777325Y-15544460D02*
X16729706Y-15687317D01*
X16729706Y-15687317D02*
X16853515Y-15687317D01*
X16967801Y-15553984D02*
X16986849Y-15553984D01*
X16986849Y-15553984D02*
X17005896Y-15563508D01*
X17005896Y-15563508D02*
X17015420Y-15573031D01*
X17015420Y-15573031D02*
X17024944Y-15592079D01*
X17024944Y-15592079D02*
X17034468Y-15630174D01*
X17034468Y-15630174D02*
X17034468Y-15677793D01*
X17034468Y-15677793D02*
X17024944Y-15715888D01*
X17024944Y-15715888D02*
X17015420Y-15734936D01*
X17015420Y-15734936D02*
X17005896Y-15744460D01*
X17005896Y-15744460D02*
X16986849Y-15753984D01*
X16986849Y-15753984D02*
X16967801Y-15753984D01*
X16967801Y-15753984D02*
X16948753Y-15744460D01*
X16948753Y-15744460D02*
X16939230Y-15734936D01*
X16939230Y-15734936D02*
X16929706Y-15715888D01*
X16929706Y-15715888D02*
X16920182Y-15677793D01*
X16920182Y-15677793D02*
X16920182Y-15630174D01*
X16920182Y-15630174D02*
X16929706Y-15592079D01*
X16929706Y-15592079D02*
X16939230Y-15573031D01*
X16939230Y-15573031D02*
X16948753Y-15563508D01*
X16948753Y-15563508D02*
X16967801Y-15553984D01*
X17272563Y-15753984D02*
X17272563Y-15553984D01*
X17358277Y-15753984D02*
X17358277Y-15649222D01*
X17358277Y-15649222D02*
X17348753Y-15630174D01*
X17348753Y-15630174D02*
X17329706Y-15620650D01*
X17329706Y-15620650D02*
X17301134Y-15620650D01*
X17301134Y-15620650D02*
X17282087Y-15630174D01*
X17282087Y-15630174D02*
X17272563Y-15639698D01*
X17482087Y-15753984D02*
X17463039Y-15744460D01*
X17463039Y-15744460D02*
X17453515Y-15734936D01*
X17453515Y-15734936D02*
X17443992Y-15715888D01*
X17443992Y-15715888D02*
X17443992Y-15658746D01*
X17443992Y-15658746D02*
X17453515Y-15639698D01*
X17453515Y-15639698D02*
X17463039Y-15630174D01*
X17463039Y-15630174D02*
X17482087Y-15620650D01*
X17482087Y-15620650D02*
X17510658Y-15620650D01*
X17510658Y-15620650D02*
X17529706Y-15630174D01*
X17529706Y-15630174D02*
X17539230Y-15639698D01*
X17539230Y-15639698D02*
X17548753Y-15658746D01*
X17548753Y-15658746D02*
X17548753Y-15715888D01*
X17548753Y-15715888D02*
X17539230Y-15734936D01*
X17539230Y-15734936D02*
X17529706Y-15744460D01*
X17529706Y-15744460D02*
X17510658Y-15753984D01*
X17510658Y-15753984D02*
X17482087Y-15753984D01*
X17663039Y-15753984D02*
X17643992Y-15744460D01*
X17643992Y-15744460D02*
X17634468Y-15725412D01*
X17634468Y-15725412D02*
X17634468Y-15553984D01*
X17815420Y-15744460D02*
X17796373Y-15753984D01*
X17796373Y-15753984D02*
X17758277Y-15753984D01*
X17758277Y-15753984D02*
X17739230Y-15744460D01*
X17739230Y-15744460D02*
X17729706Y-15725412D01*
X17729706Y-15725412D02*
X17729706Y-15649222D01*
X17729706Y-15649222D02*
X17739230Y-15630174D01*
X17739230Y-15630174D02*
X17758277Y-15620650D01*
X17758277Y-15620650D02*
X17796373Y-15620650D01*
X17796373Y-15620650D02*
X17815420Y-15630174D01*
X17815420Y-15630174D02*
X17824944Y-15649222D01*
X17824944Y-15649222D02*
X17824944Y-15668269D01*
X17824944Y-15668269D02*
X17729706Y-15687317D01*
X17901134Y-15744460D02*
X17920182Y-15753984D01*
X17920182Y-15753984D02*
X17958277Y-15753984D01*
X17958277Y-15753984D02*
X17977325Y-15744460D01*
X17977325Y-15744460D02*
X17986849Y-15725412D01*
X17986849Y-15725412D02*
X17986849Y-15715888D01*
X17986849Y-15715888D02*
X17977325Y-15696841D01*
X17977325Y-15696841D02*
X17958277Y-15687317D01*
X17958277Y-15687317D02*
X17929706Y-15687317D01*
X17929706Y-15687317D02*
X17910658Y-15677793D01*
X17910658Y-15677793D02*
X17901134Y-15658746D01*
X17901134Y-15658746D02*
X17901134Y-15649222D01*
X17901134Y-15649222D02*
X17910658Y-15630174D01*
X17910658Y-15630174D02*
X17929706Y-15620650D01*
X17929706Y-15620650D02*
X17958277Y-15620650D01*
X17958277Y-15620650D02*
X17977325Y-15630174D01*
X18053515Y-15830174D02*
X18063039Y-15820650D01*
X18063039Y-15820650D02*
X18082087Y-15792079D01*
X18082087Y-15792079D02*
X18091611Y-15773031D01*
X18091611Y-15773031D02*
X18101134Y-15744460D01*
X18101134Y-15744460D02*
X18110658Y-15696841D01*
X18110658Y-15696841D02*
X18110658Y-15658746D01*
X18110658Y-15658746D02*
X18101134Y-15611127D01*
X18101134Y-15611127D02*
X18091611Y-15582555D01*
X18091611Y-15582555D02*
X18082087Y-15563508D01*
X18082087Y-15563508D02*
X18063039Y-15534936D01*
X18063039Y-15534936D02*
X18053515Y-15525412D01*
D12*
X12897500Y-15926500D02*
G75*
G02*
X12837500Y-15926500I-30000J0D01*
G01*
X12837500Y-15926500D02*
G75*
G02*
X12897500Y-15926500I30000J0D01*
G01*
D11*
X13196372Y-15817984D02*
X13215420Y-15817984D01*
X13215420Y-15817984D02*
X13234467Y-15827508D01*
X13234467Y-15827508D02*
X13243991Y-15837031D01*
X13243991Y-15837031D02*
X13253515Y-15856079D01*
X13253515Y-15856079D02*
X13263039Y-15894174D01*
X13263039Y-15894174D02*
X13263039Y-15941793D01*
X13263039Y-15941793D02*
X13253515Y-15979888D01*
X13253515Y-15979888D02*
X13243991Y-15998936D01*
X13243991Y-15998936D02*
X13234467Y-16008460D01*
X13234467Y-16008460D02*
X13215420Y-16017984D01*
X13215420Y-16017984D02*
X13196372Y-16017984D01*
X13196372Y-16017984D02*
X13177324Y-16008460D01*
X13177324Y-16008460D02*
X13167801Y-15998936D01*
X13167801Y-15998936D02*
X13158277Y-15979888D01*
X13158277Y-15979888D02*
X13148753Y-15941793D01*
X13148753Y-15941793D02*
X13148753Y-15894174D01*
X13148753Y-15894174D02*
X13158277Y-15856079D01*
X13158277Y-15856079D02*
X13167801Y-15837031D01*
X13167801Y-15837031D02*
X13177324Y-15827508D01*
X13177324Y-15827508D02*
X13196372Y-15817984D01*
X13348753Y-15998936D02*
X13358277Y-16008460D01*
X13358277Y-16008460D02*
X13348753Y-16017984D01*
X13348753Y-16017984D02*
X13339229Y-16008460D01*
X13339229Y-16008460D02*
X13348753Y-15998936D01*
X13348753Y-15998936D02*
X13348753Y-16017984D01*
X13529705Y-15817984D02*
X13491610Y-15817984D01*
X13491610Y-15817984D02*
X13472562Y-15827508D01*
X13472562Y-15827508D02*
X13463039Y-15837031D01*
X13463039Y-15837031D02*
X13443991Y-15865603D01*
X13443991Y-15865603D02*
X13434467Y-15903698D01*
X13434467Y-15903698D02*
X13434467Y-15979888D01*
X13434467Y-15979888D02*
X13443991Y-15998936D01*
X13443991Y-15998936D02*
X13453515Y-16008460D01*
X13453515Y-16008460D02*
X13472562Y-16017984D01*
X13472562Y-16017984D02*
X13510658Y-16017984D01*
X13510658Y-16017984D02*
X13529705Y-16008460D01*
X13529705Y-16008460D02*
X13539229Y-15998936D01*
X13539229Y-15998936D02*
X13548753Y-15979888D01*
X13548753Y-15979888D02*
X13548753Y-15932269D01*
X13548753Y-15932269D02*
X13539229Y-15913222D01*
X13539229Y-15913222D02*
X13529705Y-15903698D01*
X13529705Y-15903698D02*
X13510658Y-15894174D01*
X13510658Y-15894174D02*
X13472562Y-15894174D01*
X13472562Y-15894174D02*
X13453515Y-15903698D01*
X13453515Y-15903698D02*
X13443991Y-15913222D01*
X13443991Y-15913222D02*
X13434467Y-15932269D01*
X13672562Y-15817984D02*
X13691610Y-15817984D01*
X13691610Y-15817984D02*
X13710658Y-15827508D01*
X13710658Y-15827508D02*
X13720182Y-15837031D01*
X13720182Y-15837031D02*
X13729705Y-15856079D01*
X13729705Y-15856079D02*
X13739229Y-15894174D01*
X13739229Y-15894174D02*
X13739229Y-15941793D01*
X13739229Y-15941793D02*
X13729705Y-15979888D01*
X13729705Y-15979888D02*
X13720182Y-15998936D01*
X13720182Y-15998936D02*
X13710658Y-16008460D01*
X13710658Y-16008460D02*
X13691610Y-16017984D01*
X13691610Y-16017984D02*
X13672562Y-16017984D01*
X13672562Y-16017984D02*
X13653515Y-16008460D01*
X13653515Y-16008460D02*
X13643991Y-15998936D01*
X13643991Y-15998936D02*
X13634467Y-15979888D01*
X13634467Y-15979888D02*
X13624943Y-15941793D01*
X13624943Y-15941793D02*
X13624943Y-15894174D01*
X13624943Y-15894174D02*
X13634467Y-15856079D01*
X13634467Y-15856079D02*
X13643991Y-15837031D01*
X13643991Y-15837031D02*
X13653515Y-15827508D01*
X13653515Y-15827508D02*
X13672562Y-15817984D01*
X13863039Y-15817984D02*
X13882086Y-15817984D01*
X13882086Y-15817984D02*
X13901134Y-15827508D01*
X13901134Y-15827508D02*
X13910658Y-15837031D01*
X13910658Y-15837031D02*
X13920182Y-15856079D01*
X13920182Y-15856079D02*
X13929705Y-15894174D01*
X13929705Y-15894174D02*
X13929705Y-15941793D01*
X13929705Y-15941793D02*
X13920182Y-15979888D01*
X13920182Y-15979888D02*
X13910658Y-15998936D01*
X13910658Y-15998936D02*
X13901134Y-16008460D01*
X13901134Y-16008460D02*
X13882086Y-16017984D01*
X13882086Y-16017984D02*
X13863039Y-16017984D01*
X13863039Y-16017984D02*
X13843991Y-16008460D01*
X13843991Y-16008460D02*
X13834467Y-15998936D01*
X13834467Y-15998936D02*
X13824943Y-15979888D01*
X13824943Y-15979888D02*
X13815420Y-15941793D01*
X13815420Y-15941793D02*
X13815420Y-15894174D01*
X13815420Y-15894174D02*
X13824943Y-15856079D01*
X13824943Y-15856079D02*
X13834467Y-15837031D01*
X13834467Y-15837031D02*
X13843991Y-15827508D01*
X13843991Y-15827508D02*
X13863039Y-15817984D01*
X14015420Y-16017984D02*
X14015420Y-15884650D01*
X14015420Y-15903698D02*
X14024943Y-15894174D01*
X14024943Y-15894174D02*
X14043991Y-15884650D01*
X14043991Y-15884650D02*
X14072563Y-15884650D01*
X14072563Y-15884650D02*
X14091610Y-15894174D01*
X14091610Y-15894174D02*
X14101134Y-15913222D01*
X14101134Y-15913222D02*
X14101134Y-16017984D01*
X14101134Y-15913222D02*
X14110658Y-15894174D01*
X14110658Y-15894174D02*
X14129705Y-15884650D01*
X14129705Y-15884650D02*
X14158277Y-15884650D01*
X14158277Y-15884650D02*
X14177324Y-15894174D01*
X14177324Y-15894174D02*
X14186848Y-15913222D01*
X14186848Y-15913222D02*
X14186848Y-16017984D01*
X14282086Y-16017984D02*
X14282086Y-15884650D01*
X14282086Y-15903698D02*
X14291610Y-15894174D01*
X14291610Y-15894174D02*
X14310658Y-15884650D01*
X14310658Y-15884650D02*
X14339229Y-15884650D01*
X14339229Y-15884650D02*
X14358277Y-15894174D01*
X14358277Y-15894174D02*
X14367801Y-15913222D01*
X14367801Y-15913222D02*
X14367801Y-16017984D01*
X14367801Y-15913222D02*
X14377324Y-15894174D01*
X14377324Y-15894174D02*
X14396372Y-15884650D01*
X14396372Y-15884650D02*
X14424943Y-15884650D01*
X14424943Y-15884650D02*
X14443991Y-15894174D01*
X14443991Y-15894174D02*
X14453515Y-15913222D01*
X14453515Y-15913222D02*
X14453515Y-16017984D01*
X14843991Y-15808460D02*
X14672563Y-16065603D01*
X15101134Y-15817984D02*
X15120182Y-15817984D01*
X15120182Y-15817984D02*
X15139229Y-15827508D01*
X15139229Y-15827508D02*
X15148753Y-15837031D01*
X15148753Y-15837031D02*
X15158277Y-15856079D01*
X15158277Y-15856079D02*
X15167801Y-15894174D01*
X15167801Y-15894174D02*
X15167801Y-15941793D01*
X15167801Y-15941793D02*
X15158277Y-15979888D01*
X15158277Y-15979888D02*
X15148753Y-15998936D01*
X15148753Y-15998936D02*
X15139229Y-16008460D01*
X15139229Y-16008460D02*
X15120182Y-16017984D01*
X15120182Y-16017984D02*
X15101134Y-16017984D01*
X15101134Y-16017984D02*
X15082086Y-16008460D01*
X15082086Y-16008460D02*
X15072563Y-15998936D01*
X15072563Y-15998936D02*
X15063039Y-15979888D01*
X15063039Y-15979888D02*
X15053515Y-15941793D01*
X15053515Y-15941793D02*
X15053515Y-15894174D01*
X15053515Y-15894174D02*
X15063039Y-15856079D01*
X15063039Y-15856079D02*
X15072563Y-15837031D01*
X15072563Y-15837031D02*
X15082086Y-15827508D01*
X15082086Y-15827508D02*
X15101134Y-15817984D01*
X15253515Y-15998936D02*
X15263039Y-16008460D01*
X15263039Y-16008460D02*
X15253515Y-16017984D01*
X15253515Y-16017984D02*
X15243991Y-16008460D01*
X15243991Y-16008460D02*
X15253515Y-15998936D01*
X15253515Y-15998936D02*
X15253515Y-16017984D01*
X15386848Y-15817984D02*
X15405896Y-15817984D01*
X15405896Y-15817984D02*
X15424944Y-15827508D01*
X15424944Y-15827508D02*
X15434467Y-15837031D01*
X15434467Y-15837031D02*
X15443991Y-15856079D01*
X15443991Y-15856079D02*
X15453515Y-15894174D01*
X15453515Y-15894174D02*
X15453515Y-15941793D01*
X15453515Y-15941793D02*
X15443991Y-15979888D01*
X15443991Y-15979888D02*
X15434467Y-15998936D01*
X15434467Y-15998936D02*
X15424944Y-16008460D01*
X15424944Y-16008460D02*
X15405896Y-16017984D01*
X15405896Y-16017984D02*
X15386848Y-16017984D01*
X15386848Y-16017984D02*
X15367801Y-16008460D01*
X15367801Y-16008460D02*
X15358277Y-15998936D01*
X15358277Y-15998936D02*
X15348753Y-15979888D01*
X15348753Y-15979888D02*
X15339229Y-15941793D01*
X15339229Y-15941793D02*
X15339229Y-15894174D01*
X15339229Y-15894174D02*
X15348753Y-15856079D01*
X15348753Y-15856079D02*
X15358277Y-15837031D01*
X15358277Y-15837031D02*
X15367801Y-15827508D01*
X15367801Y-15827508D02*
X15386848Y-15817984D01*
X15529706Y-15837031D02*
X15539229Y-15827508D01*
X15539229Y-15827508D02*
X15558277Y-15817984D01*
X15558277Y-15817984D02*
X15605896Y-15817984D01*
X15605896Y-15817984D02*
X15624944Y-15827508D01*
X15624944Y-15827508D02*
X15634467Y-15837031D01*
X15634467Y-15837031D02*
X15643991Y-15856079D01*
X15643991Y-15856079D02*
X15643991Y-15875127D01*
X15643991Y-15875127D02*
X15634467Y-15903698D01*
X15634467Y-15903698D02*
X15520182Y-16017984D01*
X15520182Y-16017984D02*
X15643991Y-16017984D01*
X15710658Y-15817984D02*
X15834467Y-15817984D01*
X15834467Y-15817984D02*
X15767801Y-15894174D01*
X15767801Y-15894174D02*
X15796372Y-15894174D01*
X15796372Y-15894174D02*
X15815420Y-15903698D01*
X15815420Y-15903698D02*
X15824944Y-15913222D01*
X15824944Y-15913222D02*
X15834467Y-15932269D01*
X15834467Y-15932269D02*
X15834467Y-15979888D01*
X15834467Y-15979888D02*
X15824944Y-15998936D01*
X15824944Y-15998936D02*
X15815420Y-16008460D01*
X15815420Y-16008460D02*
X15796372Y-16017984D01*
X15796372Y-16017984D02*
X15739229Y-16017984D01*
X15739229Y-16017984D02*
X15720182Y-16008460D01*
X15720182Y-16008460D02*
X15710658Y-15998936D01*
X16005896Y-15817984D02*
X15967801Y-15817984D01*
X15967801Y-15817984D02*
X15948753Y-15827508D01*
X15948753Y-15827508D02*
X15939229Y-15837031D01*
X15939229Y-15837031D02*
X15920182Y-15865603D01*
X15920182Y-15865603D02*
X15910658Y-15903698D01*
X15910658Y-15903698D02*
X15910658Y-15979888D01*
X15910658Y-15979888D02*
X15920182Y-15998936D01*
X15920182Y-15998936D02*
X15929706Y-16008460D01*
X15929706Y-16008460D02*
X15948753Y-16017984D01*
X15948753Y-16017984D02*
X15986848Y-16017984D01*
X15986848Y-16017984D02*
X16005896Y-16008460D01*
X16005896Y-16008460D02*
X16015420Y-15998936D01*
X16015420Y-15998936D02*
X16024944Y-15979888D01*
X16024944Y-15979888D02*
X16024944Y-15932269D01*
X16024944Y-15932269D02*
X16015420Y-15913222D01*
X16015420Y-15913222D02*
X16005896Y-15903698D01*
X16005896Y-15903698D02*
X15986848Y-15894174D01*
X15986848Y-15894174D02*
X15948753Y-15894174D01*
X15948753Y-15894174D02*
X15929706Y-15903698D01*
X15929706Y-15903698D02*
X15920182Y-15913222D01*
X15920182Y-15913222D02*
X15910658Y-15932269D01*
X16101134Y-15817984D02*
X16101134Y-15856079D01*
X16177325Y-15817984D02*
X16177325Y-15856079D01*
X16472563Y-16094174D02*
X16463039Y-16084650D01*
X16463039Y-16084650D02*
X16443991Y-16056079D01*
X16443991Y-16056079D02*
X16434468Y-16037031D01*
X16434468Y-16037031D02*
X16424944Y-16008460D01*
X16424944Y-16008460D02*
X16415420Y-15960841D01*
X16415420Y-15960841D02*
X16415420Y-15922746D01*
X16415420Y-15922746D02*
X16424944Y-15875127D01*
X16424944Y-15875127D02*
X16434468Y-15846555D01*
X16434468Y-15846555D02*
X16443991Y-15827508D01*
X16443991Y-15827508D02*
X16463039Y-15798936D01*
X16463039Y-15798936D02*
X16472563Y-15789412D01*
X16586848Y-15817984D02*
X16605896Y-15817984D01*
X16605896Y-15817984D02*
X16624944Y-15827508D01*
X16624944Y-15827508D02*
X16634468Y-15837031D01*
X16634468Y-15837031D02*
X16643991Y-15856079D01*
X16643991Y-15856079D02*
X16653515Y-15894174D01*
X16653515Y-15894174D02*
X16653515Y-15941793D01*
X16653515Y-15941793D02*
X16643991Y-15979888D01*
X16643991Y-15979888D02*
X16634468Y-15998936D01*
X16634468Y-15998936D02*
X16624944Y-16008460D01*
X16624944Y-16008460D02*
X16605896Y-16017984D01*
X16605896Y-16017984D02*
X16586848Y-16017984D01*
X16586848Y-16017984D02*
X16567801Y-16008460D01*
X16567801Y-16008460D02*
X16558277Y-15998936D01*
X16558277Y-15998936D02*
X16548753Y-15979888D01*
X16548753Y-15979888D02*
X16539229Y-15941793D01*
X16539229Y-15941793D02*
X16539229Y-15894174D01*
X16539229Y-15894174D02*
X16548753Y-15856079D01*
X16548753Y-15856079D02*
X16558277Y-15837031D01*
X16558277Y-15837031D02*
X16567801Y-15827508D01*
X16567801Y-15827508D02*
X16586848Y-15817984D01*
X16891611Y-16017984D02*
X16891611Y-15817984D01*
X16977325Y-16017984D02*
X16977325Y-15913222D01*
X16977325Y-15913222D02*
X16967801Y-15894174D01*
X16967801Y-15894174D02*
X16948753Y-15884650D01*
X16948753Y-15884650D02*
X16920182Y-15884650D01*
X16920182Y-15884650D02*
X16901134Y-15894174D01*
X16901134Y-15894174D02*
X16891611Y-15903698D01*
X17101134Y-16017984D02*
X17082087Y-16008460D01*
X17082087Y-16008460D02*
X17072563Y-15998936D01*
X17072563Y-15998936D02*
X17063039Y-15979888D01*
X17063039Y-15979888D02*
X17063039Y-15922746D01*
X17063039Y-15922746D02*
X17072563Y-15903698D01*
X17072563Y-15903698D02*
X17082087Y-15894174D01*
X17082087Y-15894174D02*
X17101134Y-15884650D01*
X17101134Y-15884650D02*
X17129706Y-15884650D01*
X17129706Y-15884650D02*
X17148753Y-15894174D01*
X17148753Y-15894174D02*
X17158277Y-15903698D01*
X17158277Y-15903698D02*
X17167801Y-15922746D01*
X17167801Y-15922746D02*
X17167801Y-15979888D01*
X17167801Y-15979888D02*
X17158277Y-15998936D01*
X17158277Y-15998936D02*
X17148753Y-16008460D01*
X17148753Y-16008460D02*
X17129706Y-16017984D01*
X17129706Y-16017984D02*
X17101134Y-16017984D01*
X17282087Y-16017984D02*
X17263039Y-16008460D01*
X17263039Y-16008460D02*
X17253515Y-15989412D01*
X17253515Y-15989412D02*
X17253515Y-15817984D01*
X17434468Y-16008460D02*
X17415420Y-16017984D01*
X17415420Y-16017984D02*
X17377325Y-16017984D01*
X17377325Y-16017984D02*
X17358277Y-16008460D01*
X17358277Y-16008460D02*
X17348753Y-15989412D01*
X17348753Y-15989412D02*
X17348753Y-15913222D01*
X17348753Y-15913222D02*
X17358277Y-15894174D01*
X17358277Y-15894174D02*
X17377325Y-15884650D01*
X17377325Y-15884650D02*
X17415420Y-15884650D01*
X17415420Y-15884650D02*
X17434468Y-15894174D01*
X17434468Y-15894174D02*
X17443992Y-15913222D01*
X17443992Y-15913222D02*
X17443992Y-15932269D01*
X17443992Y-15932269D02*
X17348753Y-15951317D01*
X17520182Y-16008460D02*
X17539230Y-16017984D01*
X17539230Y-16017984D02*
X17577325Y-16017984D01*
X17577325Y-16017984D02*
X17596373Y-16008460D01*
X17596373Y-16008460D02*
X17605896Y-15989412D01*
X17605896Y-15989412D02*
X17605896Y-15979888D01*
X17605896Y-15979888D02*
X17596373Y-15960841D01*
X17596373Y-15960841D02*
X17577325Y-15951317D01*
X17577325Y-15951317D02*
X17548753Y-15951317D01*
X17548753Y-15951317D02*
X17529706Y-15941793D01*
X17529706Y-15941793D02*
X17520182Y-15922746D01*
X17520182Y-15922746D02*
X17520182Y-15913222D01*
X17520182Y-15913222D02*
X17529706Y-15894174D01*
X17529706Y-15894174D02*
X17548753Y-15884650D01*
X17548753Y-15884650D02*
X17577325Y-15884650D01*
X17577325Y-15884650D02*
X17596373Y-15894174D01*
X17843992Y-15941793D02*
X17996373Y-15941793D01*
X17920182Y-16017984D02*
X17920182Y-15865603D01*
X18329706Y-15817984D02*
X18291611Y-15817984D01*
X18291611Y-15817984D02*
X18272563Y-15827508D01*
X18272563Y-15827508D02*
X18263039Y-15837031D01*
X18263039Y-15837031D02*
X18243992Y-15865603D01*
X18243992Y-15865603D02*
X18234468Y-15903698D01*
X18234468Y-15903698D02*
X18234468Y-15979888D01*
X18234468Y-15979888D02*
X18243992Y-15998936D01*
X18243992Y-15998936D02*
X18253515Y-16008460D01*
X18253515Y-16008460D02*
X18272563Y-16017984D01*
X18272563Y-16017984D02*
X18310658Y-16017984D01*
X18310658Y-16017984D02*
X18329706Y-16008460D01*
X18329706Y-16008460D02*
X18339230Y-15998936D01*
X18339230Y-15998936D02*
X18348754Y-15979888D01*
X18348754Y-15979888D02*
X18348754Y-15932269D01*
X18348754Y-15932269D02*
X18339230Y-15913222D01*
X18339230Y-15913222D02*
X18329706Y-15903698D01*
X18329706Y-15903698D02*
X18310658Y-15894174D01*
X18310658Y-15894174D02*
X18272563Y-15894174D01*
X18272563Y-15894174D02*
X18253515Y-15903698D01*
X18253515Y-15903698D02*
X18243992Y-15913222D01*
X18243992Y-15913222D02*
X18234468Y-15932269D01*
X18577325Y-16008460D02*
X18596373Y-16017984D01*
X18596373Y-16017984D02*
X18634468Y-16017984D01*
X18634468Y-16017984D02*
X18653516Y-16008460D01*
X18653516Y-16008460D02*
X18663039Y-15989412D01*
X18663039Y-15989412D02*
X18663039Y-15979888D01*
X18663039Y-15979888D02*
X18653516Y-15960841D01*
X18653516Y-15960841D02*
X18634468Y-15951317D01*
X18634468Y-15951317D02*
X18605896Y-15951317D01*
X18605896Y-15951317D02*
X18586849Y-15941793D01*
X18586849Y-15941793D02*
X18577325Y-15922746D01*
X18577325Y-15922746D02*
X18577325Y-15913222D01*
X18577325Y-15913222D02*
X18586849Y-15894174D01*
X18586849Y-15894174D02*
X18605896Y-15884650D01*
X18605896Y-15884650D02*
X18634468Y-15884650D01*
X18634468Y-15884650D02*
X18653516Y-15894174D01*
X18777325Y-16017984D02*
X18758277Y-16008460D01*
X18758277Y-16008460D02*
X18748754Y-15989412D01*
X18748754Y-15989412D02*
X18748754Y-15817984D01*
X18882087Y-16017984D02*
X18863039Y-16008460D01*
X18863039Y-16008460D02*
X18853516Y-15998936D01*
X18853516Y-15998936D02*
X18843992Y-15979888D01*
X18843992Y-15979888D02*
X18843992Y-15922746D01*
X18843992Y-15922746D02*
X18853516Y-15903698D01*
X18853516Y-15903698D02*
X18863039Y-15894174D01*
X18863039Y-15894174D02*
X18882087Y-15884650D01*
X18882087Y-15884650D02*
X18910658Y-15884650D01*
X18910658Y-15884650D02*
X18929706Y-15894174D01*
X18929706Y-15894174D02*
X18939230Y-15903698D01*
X18939230Y-15903698D02*
X18948754Y-15922746D01*
X18948754Y-15922746D02*
X18948754Y-15979888D01*
X18948754Y-15979888D02*
X18939230Y-15998936D01*
X18939230Y-15998936D02*
X18929706Y-16008460D01*
X18929706Y-16008460D02*
X18910658Y-16017984D01*
X18910658Y-16017984D02*
X18882087Y-16017984D01*
X19005897Y-15884650D02*
X19082087Y-15884650D01*
X19034468Y-15817984D02*
X19034468Y-15989412D01*
X19034468Y-15989412D02*
X19043992Y-16008460D01*
X19043992Y-16008460D02*
X19063039Y-16017984D01*
X19063039Y-16017984D02*
X19082087Y-16017984D01*
X19139230Y-16008460D02*
X19158277Y-16017984D01*
X19158277Y-16017984D02*
X19196373Y-16017984D01*
X19196373Y-16017984D02*
X19215420Y-16008460D01*
X19215420Y-16008460D02*
X19224944Y-15989412D01*
X19224944Y-15989412D02*
X19224944Y-15979888D01*
X19224944Y-15979888D02*
X19215420Y-15960841D01*
X19215420Y-15960841D02*
X19196373Y-15951317D01*
X19196373Y-15951317D02*
X19167801Y-15951317D01*
X19167801Y-15951317D02*
X19148754Y-15941793D01*
X19148754Y-15941793D02*
X19139230Y-15922746D01*
X19139230Y-15922746D02*
X19139230Y-15913222D01*
X19139230Y-15913222D02*
X19148754Y-15894174D01*
X19148754Y-15894174D02*
X19167801Y-15884650D01*
X19167801Y-15884650D02*
X19196373Y-15884650D01*
X19196373Y-15884650D02*
X19215420Y-15894174D01*
X19291611Y-16094174D02*
X19301135Y-16084650D01*
X19301135Y-16084650D02*
X19320182Y-16056079D01*
X19320182Y-16056079D02*
X19329706Y-16037031D01*
X19329706Y-16037031D02*
X19339230Y-16008460D01*
X19339230Y-16008460D02*
X19348754Y-15960841D01*
X19348754Y-15960841D02*
X19348754Y-15922746D01*
X19348754Y-15922746D02*
X19339230Y-15875127D01*
X19339230Y-15875127D02*
X19329706Y-15846555D01*
X19329706Y-15846555D02*
X19320182Y-15827508D01*
X19320182Y-15827508D02*
X19301135Y-15798936D01*
X19301135Y-15798936D02*
X19291611Y-15789412D01*
D12*
X12852500Y-16145500D02*
X12852500Y-16235500D01*
X12807500Y-16190500D02*
X12897500Y-16190500D01*
D11*
X13196372Y-16081984D02*
X13215420Y-16081984D01*
X13215420Y-16081984D02*
X13234467Y-16091508D01*
X13234467Y-16091508D02*
X13243991Y-16101031D01*
X13243991Y-16101031D02*
X13253515Y-16120079D01*
X13253515Y-16120079D02*
X13263039Y-16158174D01*
X13263039Y-16158174D02*
X13263039Y-16205793D01*
X13263039Y-16205793D02*
X13253515Y-16243888D01*
X13253515Y-16243888D02*
X13243991Y-16262936D01*
X13243991Y-16262936D02*
X13234467Y-16272460D01*
X13234467Y-16272460D02*
X13215420Y-16281984D01*
X13215420Y-16281984D02*
X13196372Y-16281984D01*
X13196372Y-16281984D02*
X13177324Y-16272460D01*
X13177324Y-16272460D02*
X13167801Y-16262936D01*
X13167801Y-16262936D02*
X13158277Y-16243888D01*
X13158277Y-16243888D02*
X13148753Y-16205793D01*
X13148753Y-16205793D02*
X13148753Y-16158174D01*
X13148753Y-16158174D02*
X13158277Y-16120079D01*
X13158277Y-16120079D02*
X13167801Y-16101031D01*
X13167801Y-16101031D02*
X13177324Y-16091508D01*
X13177324Y-16091508D02*
X13196372Y-16081984D01*
X13348753Y-16262936D02*
X13358277Y-16272460D01*
X13358277Y-16272460D02*
X13348753Y-16281984D01*
X13348753Y-16281984D02*
X13339229Y-16272460D01*
X13339229Y-16272460D02*
X13348753Y-16262936D01*
X13348753Y-16262936D02*
X13348753Y-16281984D01*
X13453515Y-16281984D02*
X13491610Y-16281984D01*
X13491610Y-16281984D02*
X13510658Y-16272460D01*
X13510658Y-16272460D02*
X13520182Y-16262936D01*
X13520182Y-16262936D02*
X13539229Y-16234365D01*
X13539229Y-16234365D02*
X13548753Y-16196269D01*
X13548753Y-16196269D02*
X13548753Y-16120079D01*
X13548753Y-16120079D02*
X13539229Y-16101031D01*
X13539229Y-16101031D02*
X13529705Y-16091508D01*
X13529705Y-16091508D02*
X13510658Y-16081984D01*
X13510658Y-16081984D02*
X13472562Y-16081984D01*
X13472562Y-16081984D02*
X13453515Y-16091508D01*
X13453515Y-16091508D02*
X13443991Y-16101031D01*
X13443991Y-16101031D02*
X13434467Y-16120079D01*
X13434467Y-16120079D02*
X13434467Y-16167698D01*
X13434467Y-16167698D02*
X13443991Y-16186746D01*
X13443991Y-16186746D02*
X13453515Y-16196269D01*
X13453515Y-16196269D02*
X13472562Y-16205793D01*
X13472562Y-16205793D02*
X13510658Y-16205793D01*
X13510658Y-16205793D02*
X13529705Y-16196269D01*
X13529705Y-16196269D02*
X13539229Y-16186746D01*
X13539229Y-16186746D02*
X13548753Y-16167698D01*
X13672562Y-16081984D02*
X13691610Y-16081984D01*
X13691610Y-16081984D02*
X13710658Y-16091508D01*
X13710658Y-16091508D02*
X13720182Y-16101031D01*
X13720182Y-16101031D02*
X13729705Y-16120079D01*
X13729705Y-16120079D02*
X13739229Y-16158174D01*
X13739229Y-16158174D02*
X13739229Y-16205793D01*
X13739229Y-16205793D02*
X13729705Y-16243888D01*
X13729705Y-16243888D02*
X13720182Y-16262936D01*
X13720182Y-16262936D02*
X13710658Y-16272460D01*
X13710658Y-16272460D02*
X13691610Y-16281984D01*
X13691610Y-16281984D02*
X13672562Y-16281984D01*
X13672562Y-16281984D02*
X13653515Y-16272460D01*
X13653515Y-16272460D02*
X13643991Y-16262936D01*
X13643991Y-16262936D02*
X13634467Y-16243888D01*
X13634467Y-16243888D02*
X13624943Y-16205793D01*
X13624943Y-16205793D02*
X13624943Y-16158174D01*
X13624943Y-16158174D02*
X13634467Y-16120079D01*
X13634467Y-16120079D02*
X13643991Y-16101031D01*
X13643991Y-16101031D02*
X13653515Y-16091508D01*
X13653515Y-16091508D02*
X13672562Y-16081984D01*
X13863039Y-16081984D02*
X13882086Y-16081984D01*
X13882086Y-16081984D02*
X13901134Y-16091508D01*
X13901134Y-16091508D02*
X13910658Y-16101031D01*
X13910658Y-16101031D02*
X13920182Y-16120079D01*
X13920182Y-16120079D02*
X13929705Y-16158174D01*
X13929705Y-16158174D02*
X13929705Y-16205793D01*
X13929705Y-16205793D02*
X13920182Y-16243888D01*
X13920182Y-16243888D02*
X13910658Y-16262936D01*
X13910658Y-16262936D02*
X13901134Y-16272460D01*
X13901134Y-16272460D02*
X13882086Y-16281984D01*
X13882086Y-16281984D02*
X13863039Y-16281984D01*
X13863039Y-16281984D02*
X13843991Y-16272460D01*
X13843991Y-16272460D02*
X13834467Y-16262936D01*
X13834467Y-16262936D02*
X13824943Y-16243888D01*
X13824943Y-16243888D02*
X13815420Y-16205793D01*
X13815420Y-16205793D02*
X13815420Y-16158174D01*
X13815420Y-16158174D02*
X13824943Y-16120079D01*
X13824943Y-16120079D02*
X13834467Y-16101031D01*
X13834467Y-16101031D02*
X13843991Y-16091508D01*
X13843991Y-16091508D02*
X13863039Y-16081984D01*
X14015420Y-16281984D02*
X14015420Y-16148650D01*
X14015420Y-16167698D02*
X14024943Y-16158174D01*
X14024943Y-16158174D02*
X14043991Y-16148650D01*
X14043991Y-16148650D02*
X14072563Y-16148650D01*
X14072563Y-16148650D02*
X14091610Y-16158174D01*
X14091610Y-16158174D02*
X14101134Y-16177222D01*
X14101134Y-16177222D02*
X14101134Y-16281984D01*
X14101134Y-16177222D02*
X14110658Y-16158174D01*
X14110658Y-16158174D02*
X14129705Y-16148650D01*
X14129705Y-16148650D02*
X14158277Y-16148650D01*
X14158277Y-16148650D02*
X14177324Y-16158174D01*
X14177324Y-16158174D02*
X14186848Y-16177222D01*
X14186848Y-16177222D02*
X14186848Y-16281984D01*
X14282086Y-16281984D02*
X14282086Y-16148650D01*
X14282086Y-16167698D02*
X14291610Y-16158174D01*
X14291610Y-16158174D02*
X14310658Y-16148650D01*
X14310658Y-16148650D02*
X14339229Y-16148650D01*
X14339229Y-16148650D02*
X14358277Y-16158174D01*
X14358277Y-16158174D02*
X14367801Y-16177222D01*
X14367801Y-16177222D02*
X14367801Y-16281984D01*
X14367801Y-16177222D02*
X14377324Y-16158174D01*
X14377324Y-16158174D02*
X14396372Y-16148650D01*
X14396372Y-16148650D02*
X14424943Y-16148650D01*
X14424943Y-16148650D02*
X14443991Y-16158174D01*
X14443991Y-16158174D02*
X14453515Y-16177222D01*
X14453515Y-16177222D02*
X14453515Y-16281984D01*
X14843991Y-16072460D02*
X14672563Y-16329603D01*
X15101134Y-16081984D02*
X15120182Y-16081984D01*
X15120182Y-16081984D02*
X15139229Y-16091508D01*
X15139229Y-16091508D02*
X15148753Y-16101031D01*
X15148753Y-16101031D02*
X15158277Y-16120079D01*
X15158277Y-16120079D02*
X15167801Y-16158174D01*
X15167801Y-16158174D02*
X15167801Y-16205793D01*
X15167801Y-16205793D02*
X15158277Y-16243888D01*
X15158277Y-16243888D02*
X15148753Y-16262936D01*
X15148753Y-16262936D02*
X15139229Y-16272460D01*
X15139229Y-16272460D02*
X15120182Y-16281984D01*
X15120182Y-16281984D02*
X15101134Y-16281984D01*
X15101134Y-16281984D02*
X15082086Y-16272460D01*
X15082086Y-16272460D02*
X15072563Y-16262936D01*
X15072563Y-16262936D02*
X15063039Y-16243888D01*
X15063039Y-16243888D02*
X15053515Y-16205793D01*
X15053515Y-16205793D02*
X15053515Y-16158174D01*
X15053515Y-16158174D02*
X15063039Y-16120079D01*
X15063039Y-16120079D02*
X15072563Y-16101031D01*
X15072563Y-16101031D02*
X15082086Y-16091508D01*
X15082086Y-16091508D02*
X15101134Y-16081984D01*
X15253515Y-16262936D02*
X15263039Y-16272460D01*
X15263039Y-16272460D02*
X15253515Y-16281984D01*
X15253515Y-16281984D02*
X15243991Y-16272460D01*
X15243991Y-16272460D02*
X15253515Y-16262936D01*
X15253515Y-16262936D02*
X15253515Y-16281984D01*
X15386848Y-16081984D02*
X15405896Y-16081984D01*
X15405896Y-16081984D02*
X15424944Y-16091508D01*
X15424944Y-16091508D02*
X15434467Y-16101031D01*
X15434467Y-16101031D02*
X15443991Y-16120079D01*
X15443991Y-16120079D02*
X15453515Y-16158174D01*
X15453515Y-16158174D02*
X15453515Y-16205793D01*
X15453515Y-16205793D02*
X15443991Y-16243888D01*
X15443991Y-16243888D02*
X15434467Y-16262936D01*
X15434467Y-16262936D02*
X15424944Y-16272460D01*
X15424944Y-16272460D02*
X15405896Y-16281984D01*
X15405896Y-16281984D02*
X15386848Y-16281984D01*
X15386848Y-16281984D02*
X15367801Y-16272460D01*
X15367801Y-16272460D02*
X15358277Y-16262936D01*
X15358277Y-16262936D02*
X15348753Y-16243888D01*
X15348753Y-16243888D02*
X15339229Y-16205793D01*
X15339229Y-16205793D02*
X15339229Y-16158174D01*
X15339229Y-16158174D02*
X15348753Y-16120079D01*
X15348753Y-16120079D02*
X15358277Y-16101031D01*
X15358277Y-16101031D02*
X15367801Y-16091508D01*
X15367801Y-16091508D02*
X15386848Y-16081984D01*
X15520182Y-16081984D02*
X15643991Y-16081984D01*
X15643991Y-16081984D02*
X15577325Y-16158174D01*
X15577325Y-16158174D02*
X15605896Y-16158174D01*
X15605896Y-16158174D02*
X15624944Y-16167698D01*
X15624944Y-16167698D02*
X15634467Y-16177222D01*
X15634467Y-16177222D02*
X15643991Y-16196269D01*
X15643991Y-16196269D02*
X15643991Y-16243888D01*
X15643991Y-16243888D02*
X15634467Y-16262936D01*
X15634467Y-16262936D02*
X15624944Y-16272460D01*
X15624944Y-16272460D02*
X15605896Y-16281984D01*
X15605896Y-16281984D02*
X15548753Y-16281984D01*
X15548753Y-16281984D02*
X15529706Y-16272460D01*
X15529706Y-16272460D02*
X15520182Y-16262936D01*
X15824944Y-16081984D02*
X15729706Y-16081984D01*
X15729706Y-16081984D02*
X15720182Y-16177222D01*
X15720182Y-16177222D02*
X15729706Y-16167698D01*
X15729706Y-16167698D02*
X15748753Y-16158174D01*
X15748753Y-16158174D02*
X15796372Y-16158174D01*
X15796372Y-16158174D02*
X15815420Y-16167698D01*
X15815420Y-16167698D02*
X15824944Y-16177222D01*
X15824944Y-16177222D02*
X15834467Y-16196269D01*
X15834467Y-16196269D02*
X15834467Y-16243888D01*
X15834467Y-16243888D02*
X15824944Y-16262936D01*
X15824944Y-16262936D02*
X15815420Y-16272460D01*
X15815420Y-16272460D02*
X15796372Y-16281984D01*
X15796372Y-16281984D02*
X15748753Y-16281984D01*
X15748753Y-16281984D02*
X15729706Y-16272460D01*
X15729706Y-16272460D02*
X15720182Y-16262936D01*
X16005896Y-16148650D02*
X16005896Y-16281984D01*
X15958277Y-16072460D02*
X15910658Y-16215317D01*
X15910658Y-16215317D02*
X16034467Y-16215317D01*
X16101134Y-16081984D02*
X16101134Y-16120079D01*
X16177325Y-16081984D02*
X16177325Y-16120079D01*
X16472563Y-16358174D02*
X16463039Y-16348650D01*
X16463039Y-16348650D02*
X16443991Y-16320079D01*
X16443991Y-16320079D02*
X16434468Y-16301031D01*
X16434468Y-16301031D02*
X16424944Y-16272460D01*
X16424944Y-16272460D02*
X16415420Y-16224841D01*
X16415420Y-16224841D02*
X16415420Y-16186746D01*
X16415420Y-16186746D02*
X16424944Y-16139127D01*
X16424944Y-16139127D02*
X16434468Y-16110555D01*
X16434468Y-16110555D02*
X16443991Y-16091508D01*
X16443991Y-16091508D02*
X16463039Y-16062936D01*
X16463039Y-16062936D02*
X16472563Y-16053412D01*
X16634468Y-16148650D02*
X16634468Y-16281984D01*
X16586848Y-16072460D02*
X16539229Y-16215317D01*
X16539229Y-16215317D02*
X16663039Y-16215317D01*
X16891611Y-16281984D02*
X16891611Y-16081984D01*
X16977325Y-16281984D02*
X16977325Y-16177222D01*
X16977325Y-16177222D02*
X16967801Y-16158174D01*
X16967801Y-16158174D02*
X16948753Y-16148650D01*
X16948753Y-16148650D02*
X16920182Y-16148650D01*
X16920182Y-16148650D02*
X16901134Y-16158174D01*
X16901134Y-16158174D02*
X16891611Y-16167698D01*
X17101134Y-16281984D02*
X17082087Y-16272460D01*
X17082087Y-16272460D02*
X17072563Y-16262936D01*
X17072563Y-16262936D02*
X17063039Y-16243888D01*
X17063039Y-16243888D02*
X17063039Y-16186746D01*
X17063039Y-16186746D02*
X17072563Y-16167698D01*
X17072563Y-16167698D02*
X17082087Y-16158174D01*
X17082087Y-16158174D02*
X17101134Y-16148650D01*
X17101134Y-16148650D02*
X17129706Y-16148650D01*
X17129706Y-16148650D02*
X17148753Y-16158174D01*
X17148753Y-16158174D02*
X17158277Y-16167698D01*
X17158277Y-16167698D02*
X17167801Y-16186746D01*
X17167801Y-16186746D02*
X17167801Y-16243888D01*
X17167801Y-16243888D02*
X17158277Y-16262936D01*
X17158277Y-16262936D02*
X17148753Y-16272460D01*
X17148753Y-16272460D02*
X17129706Y-16281984D01*
X17129706Y-16281984D02*
X17101134Y-16281984D01*
X17282087Y-16281984D02*
X17263039Y-16272460D01*
X17263039Y-16272460D02*
X17253515Y-16253412D01*
X17253515Y-16253412D02*
X17253515Y-16081984D01*
X17434468Y-16272460D02*
X17415420Y-16281984D01*
X17415420Y-16281984D02*
X17377325Y-16281984D01*
X17377325Y-16281984D02*
X17358277Y-16272460D01*
X17358277Y-16272460D02*
X17348753Y-16253412D01*
X17348753Y-16253412D02*
X17348753Y-16177222D01*
X17348753Y-16177222D02*
X17358277Y-16158174D01*
X17358277Y-16158174D02*
X17377325Y-16148650D01*
X17377325Y-16148650D02*
X17415420Y-16148650D01*
X17415420Y-16148650D02*
X17434468Y-16158174D01*
X17434468Y-16158174D02*
X17443992Y-16177222D01*
X17443992Y-16177222D02*
X17443992Y-16196269D01*
X17443992Y-16196269D02*
X17348753Y-16215317D01*
X17520182Y-16272460D02*
X17539230Y-16281984D01*
X17539230Y-16281984D02*
X17577325Y-16281984D01*
X17577325Y-16281984D02*
X17596373Y-16272460D01*
X17596373Y-16272460D02*
X17605896Y-16253412D01*
X17605896Y-16253412D02*
X17605896Y-16243888D01*
X17605896Y-16243888D02*
X17596373Y-16224841D01*
X17596373Y-16224841D02*
X17577325Y-16215317D01*
X17577325Y-16215317D02*
X17548753Y-16215317D01*
X17548753Y-16215317D02*
X17529706Y-16205793D01*
X17529706Y-16205793D02*
X17520182Y-16186746D01*
X17520182Y-16186746D02*
X17520182Y-16177222D01*
X17520182Y-16177222D02*
X17529706Y-16158174D01*
X17529706Y-16158174D02*
X17548753Y-16148650D01*
X17548753Y-16148650D02*
X17577325Y-16148650D01*
X17577325Y-16148650D02*
X17596373Y-16158174D01*
X17672563Y-16358174D02*
X17682087Y-16348650D01*
X17682087Y-16348650D02*
X17701134Y-16320079D01*
X17701134Y-16320079D02*
X17710658Y-16301031D01*
X17710658Y-16301031D02*
X17720182Y-16272460D01*
X17720182Y-16272460D02*
X17729706Y-16224841D01*
X17729706Y-16224841D02*
X17729706Y-16186746D01*
X17729706Y-16186746D02*
X17720182Y-16139127D01*
X17720182Y-16139127D02*
X17710658Y-16110555D01*
X17710658Y-16110555D02*
X17701134Y-16091508D01*
X17701134Y-16091508D02*
X17682087Y-16062936D01*
X17682087Y-16062936D02*
X17672563Y-16053412D01*
D12*
X12882856Y-16489856D02*
X12882856Y-16419144D01*
X12812144Y-16419144D01*
X12812144Y-16489856D01*
X12882856Y-16489856D01*
D11*
X13263039Y-16545984D02*
X13148753Y-16545984D01*
X13205896Y-16545984D02*
X13205896Y-16345984D01*
X13205896Y-16345984D02*
X13186848Y-16374555D01*
X13186848Y-16374555D02*
X13167801Y-16393603D01*
X13167801Y-16393603D02*
X13148753Y-16403127D01*
X13348753Y-16526936D02*
X13358277Y-16536460D01*
X13358277Y-16536460D02*
X13348753Y-16545984D01*
X13348753Y-16545984D02*
X13339229Y-16536460D01*
X13339229Y-16536460D02*
X13348753Y-16526936D01*
X13348753Y-16526936D02*
X13348753Y-16545984D01*
X13482086Y-16345984D02*
X13501134Y-16345984D01*
X13501134Y-16345984D02*
X13520182Y-16355508D01*
X13520182Y-16355508D02*
X13529705Y-16365031D01*
X13529705Y-16365031D02*
X13539229Y-16384079D01*
X13539229Y-16384079D02*
X13548753Y-16422174D01*
X13548753Y-16422174D02*
X13548753Y-16469793D01*
X13548753Y-16469793D02*
X13539229Y-16507888D01*
X13539229Y-16507888D02*
X13529705Y-16526936D01*
X13529705Y-16526936D02*
X13520182Y-16536460D01*
X13520182Y-16536460D02*
X13501134Y-16545984D01*
X13501134Y-16545984D02*
X13482086Y-16545984D01*
X13482086Y-16545984D02*
X13463039Y-16536460D01*
X13463039Y-16536460D02*
X13453515Y-16526936D01*
X13453515Y-16526936D02*
X13443991Y-16507888D01*
X13443991Y-16507888D02*
X13434467Y-16469793D01*
X13434467Y-16469793D02*
X13434467Y-16422174D01*
X13434467Y-16422174D02*
X13443991Y-16384079D01*
X13443991Y-16384079D02*
X13453515Y-16365031D01*
X13453515Y-16365031D02*
X13463039Y-16355508D01*
X13463039Y-16355508D02*
X13482086Y-16345984D01*
X13672562Y-16345984D02*
X13691610Y-16345984D01*
X13691610Y-16345984D02*
X13710658Y-16355508D01*
X13710658Y-16355508D02*
X13720182Y-16365031D01*
X13720182Y-16365031D02*
X13729705Y-16384079D01*
X13729705Y-16384079D02*
X13739229Y-16422174D01*
X13739229Y-16422174D02*
X13739229Y-16469793D01*
X13739229Y-16469793D02*
X13729705Y-16507888D01*
X13729705Y-16507888D02*
X13720182Y-16526936D01*
X13720182Y-16526936D02*
X13710658Y-16536460D01*
X13710658Y-16536460D02*
X13691610Y-16545984D01*
X13691610Y-16545984D02*
X13672562Y-16545984D01*
X13672562Y-16545984D02*
X13653515Y-16536460D01*
X13653515Y-16536460D02*
X13643991Y-16526936D01*
X13643991Y-16526936D02*
X13634467Y-16507888D01*
X13634467Y-16507888D02*
X13624943Y-16469793D01*
X13624943Y-16469793D02*
X13624943Y-16422174D01*
X13624943Y-16422174D02*
X13634467Y-16384079D01*
X13634467Y-16384079D02*
X13643991Y-16365031D01*
X13643991Y-16365031D02*
X13653515Y-16355508D01*
X13653515Y-16355508D02*
X13672562Y-16345984D01*
X13863039Y-16345984D02*
X13882086Y-16345984D01*
X13882086Y-16345984D02*
X13901134Y-16355508D01*
X13901134Y-16355508D02*
X13910658Y-16365031D01*
X13910658Y-16365031D02*
X13920182Y-16384079D01*
X13920182Y-16384079D02*
X13929705Y-16422174D01*
X13929705Y-16422174D02*
X13929705Y-16469793D01*
X13929705Y-16469793D02*
X13920182Y-16507888D01*
X13920182Y-16507888D02*
X13910658Y-16526936D01*
X13910658Y-16526936D02*
X13901134Y-16536460D01*
X13901134Y-16536460D02*
X13882086Y-16545984D01*
X13882086Y-16545984D02*
X13863039Y-16545984D01*
X13863039Y-16545984D02*
X13843991Y-16536460D01*
X13843991Y-16536460D02*
X13834467Y-16526936D01*
X13834467Y-16526936D02*
X13824943Y-16507888D01*
X13824943Y-16507888D02*
X13815420Y-16469793D01*
X13815420Y-16469793D02*
X13815420Y-16422174D01*
X13815420Y-16422174D02*
X13824943Y-16384079D01*
X13824943Y-16384079D02*
X13834467Y-16365031D01*
X13834467Y-16365031D02*
X13843991Y-16355508D01*
X13843991Y-16355508D02*
X13863039Y-16345984D01*
X14015420Y-16545984D02*
X14015420Y-16412650D01*
X14015420Y-16431698D02*
X14024943Y-16422174D01*
X14024943Y-16422174D02*
X14043991Y-16412650D01*
X14043991Y-16412650D02*
X14072563Y-16412650D01*
X14072563Y-16412650D02*
X14091610Y-16422174D01*
X14091610Y-16422174D02*
X14101134Y-16441222D01*
X14101134Y-16441222D02*
X14101134Y-16545984D01*
X14101134Y-16441222D02*
X14110658Y-16422174D01*
X14110658Y-16422174D02*
X14129705Y-16412650D01*
X14129705Y-16412650D02*
X14158277Y-16412650D01*
X14158277Y-16412650D02*
X14177324Y-16422174D01*
X14177324Y-16422174D02*
X14186848Y-16441222D01*
X14186848Y-16441222D02*
X14186848Y-16545984D01*
X14282086Y-16545984D02*
X14282086Y-16412650D01*
X14282086Y-16431698D02*
X14291610Y-16422174D01*
X14291610Y-16422174D02*
X14310658Y-16412650D01*
X14310658Y-16412650D02*
X14339229Y-16412650D01*
X14339229Y-16412650D02*
X14358277Y-16422174D01*
X14358277Y-16422174D02*
X14367801Y-16441222D01*
X14367801Y-16441222D02*
X14367801Y-16545984D01*
X14367801Y-16441222D02*
X14377324Y-16422174D01*
X14377324Y-16422174D02*
X14396372Y-16412650D01*
X14396372Y-16412650D02*
X14424943Y-16412650D01*
X14424943Y-16412650D02*
X14443991Y-16422174D01*
X14443991Y-16422174D02*
X14453515Y-16441222D01*
X14453515Y-16441222D02*
X14453515Y-16545984D01*
X14843991Y-16336460D02*
X14672563Y-16593603D01*
X15101134Y-16345984D02*
X15120182Y-16345984D01*
X15120182Y-16345984D02*
X15139229Y-16355508D01*
X15139229Y-16355508D02*
X15148753Y-16365031D01*
X15148753Y-16365031D02*
X15158277Y-16384079D01*
X15158277Y-16384079D02*
X15167801Y-16422174D01*
X15167801Y-16422174D02*
X15167801Y-16469793D01*
X15167801Y-16469793D02*
X15158277Y-16507888D01*
X15158277Y-16507888D02*
X15148753Y-16526936D01*
X15148753Y-16526936D02*
X15139229Y-16536460D01*
X15139229Y-16536460D02*
X15120182Y-16545984D01*
X15120182Y-16545984D02*
X15101134Y-16545984D01*
X15101134Y-16545984D02*
X15082086Y-16536460D01*
X15082086Y-16536460D02*
X15072563Y-16526936D01*
X15072563Y-16526936D02*
X15063039Y-16507888D01*
X15063039Y-16507888D02*
X15053515Y-16469793D01*
X15053515Y-16469793D02*
X15053515Y-16422174D01*
X15053515Y-16422174D02*
X15063039Y-16384079D01*
X15063039Y-16384079D02*
X15072563Y-16365031D01*
X15072563Y-16365031D02*
X15082086Y-16355508D01*
X15082086Y-16355508D02*
X15101134Y-16345984D01*
X15253515Y-16526936D02*
X15263039Y-16536460D01*
X15263039Y-16536460D02*
X15253515Y-16545984D01*
X15253515Y-16545984D02*
X15243991Y-16536460D01*
X15243991Y-16536460D02*
X15253515Y-16526936D01*
X15253515Y-16526936D02*
X15253515Y-16545984D01*
X15386848Y-16345984D02*
X15405896Y-16345984D01*
X15405896Y-16345984D02*
X15424944Y-16355508D01*
X15424944Y-16355508D02*
X15434467Y-16365031D01*
X15434467Y-16365031D02*
X15443991Y-16384079D01*
X15443991Y-16384079D02*
X15453515Y-16422174D01*
X15453515Y-16422174D02*
X15453515Y-16469793D01*
X15453515Y-16469793D02*
X15443991Y-16507888D01*
X15443991Y-16507888D02*
X15434467Y-16526936D01*
X15434467Y-16526936D02*
X15424944Y-16536460D01*
X15424944Y-16536460D02*
X15405896Y-16545984D01*
X15405896Y-16545984D02*
X15386848Y-16545984D01*
X15386848Y-16545984D02*
X15367801Y-16536460D01*
X15367801Y-16536460D02*
X15358277Y-16526936D01*
X15358277Y-16526936D02*
X15348753Y-16507888D01*
X15348753Y-16507888D02*
X15339229Y-16469793D01*
X15339229Y-16469793D02*
X15339229Y-16422174D01*
X15339229Y-16422174D02*
X15348753Y-16384079D01*
X15348753Y-16384079D02*
X15358277Y-16365031D01*
X15358277Y-16365031D02*
X15367801Y-16355508D01*
X15367801Y-16355508D02*
X15386848Y-16345984D01*
X15520182Y-16345984D02*
X15643991Y-16345984D01*
X15643991Y-16345984D02*
X15577325Y-16422174D01*
X15577325Y-16422174D02*
X15605896Y-16422174D01*
X15605896Y-16422174D02*
X15624944Y-16431698D01*
X15624944Y-16431698D02*
X15634467Y-16441222D01*
X15634467Y-16441222D02*
X15643991Y-16460269D01*
X15643991Y-16460269D02*
X15643991Y-16507888D01*
X15643991Y-16507888D02*
X15634467Y-16526936D01*
X15634467Y-16526936D02*
X15624944Y-16536460D01*
X15624944Y-16536460D02*
X15605896Y-16545984D01*
X15605896Y-16545984D02*
X15548753Y-16545984D01*
X15548753Y-16545984D02*
X15529706Y-16536460D01*
X15529706Y-16536460D02*
X15520182Y-16526936D01*
X15739229Y-16545984D02*
X15777325Y-16545984D01*
X15777325Y-16545984D02*
X15796372Y-16536460D01*
X15796372Y-16536460D02*
X15805896Y-16526936D01*
X15805896Y-16526936D02*
X15824944Y-16498365D01*
X15824944Y-16498365D02*
X15834467Y-16460269D01*
X15834467Y-16460269D02*
X15834467Y-16384079D01*
X15834467Y-16384079D02*
X15824944Y-16365031D01*
X15824944Y-16365031D02*
X15815420Y-16355508D01*
X15815420Y-16355508D02*
X15796372Y-16345984D01*
X15796372Y-16345984D02*
X15758277Y-16345984D01*
X15758277Y-16345984D02*
X15739229Y-16355508D01*
X15739229Y-16355508D02*
X15729706Y-16365031D01*
X15729706Y-16365031D02*
X15720182Y-16384079D01*
X15720182Y-16384079D02*
X15720182Y-16431698D01*
X15720182Y-16431698D02*
X15729706Y-16450746D01*
X15729706Y-16450746D02*
X15739229Y-16460269D01*
X15739229Y-16460269D02*
X15758277Y-16469793D01*
X15758277Y-16469793D02*
X15796372Y-16469793D01*
X15796372Y-16469793D02*
X15815420Y-16460269D01*
X15815420Y-16460269D02*
X15824944Y-16450746D01*
X15824944Y-16450746D02*
X15834467Y-16431698D01*
X16005896Y-16412650D02*
X16005896Y-16545984D01*
X15958277Y-16336460D02*
X15910658Y-16479317D01*
X15910658Y-16479317D02*
X16034467Y-16479317D01*
X16101134Y-16345984D02*
X16101134Y-16384079D01*
X16177325Y-16345984D02*
X16177325Y-16384079D01*
X16472563Y-16622174D02*
X16463039Y-16612650D01*
X16463039Y-16612650D02*
X16443991Y-16584079D01*
X16443991Y-16584079D02*
X16434468Y-16565031D01*
X16434468Y-16565031D02*
X16424944Y-16536460D01*
X16424944Y-16536460D02*
X16415420Y-16488841D01*
X16415420Y-16488841D02*
X16415420Y-16450746D01*
X16415420Y-16450746D02*
X16424944Y-16403127D01*
X16424944Y-16403127D02*
X16434468Y-16374555D01*
X16434468Y-16374555D02*
X16443991Y-16355508D01*
X16443991Y-16355508D02*
X16463039Y-16326936D01*
X16463039Y-16326936D02*
X16472563Y-16317412D01*
X16653515Y-16545984D02*
X16539229Y-16545984D01*
X16596372Y-16545984D02*
X16596372Y-16345984D01*
X16596372Y-16345984D02*
X16577325Y-16374555D01*
X16577325Y-16374555D02*
X16558277Y-16393603D01*
X16558277Y-16393603D02*
X16539229Y-16403127D01*
X16720182Y-16345984D02*
X16843991Y-16345984D01*
X16843991Y-16345984D02*
X16777325Y-16422174D01*
X16777325Y-16422174D02*
X16805896Y-16422174D01*
X16805896Y-16422174D02*
X16824944Y-16431698D01*
X16824944Y-16431698D02*
X16834468Y-16441222D01*
X16834468Y-16441222D02*
X16843991Y-16460269D01*
X16843991Y-16460269D02*
X16843991Y-16507888D01*
X16843991Y-16507888D02*
X16834468Y-16526936D01*
X16834468Y-16526936D02*
X16824944Y-16536460D01*
X16824944Y-16536460D02*
X16805896Y-16545984D01*
X16805896Y-16545984D02*
X16748753Y-16545984D01*
X16748753Y-16545984D02*
X16729706Y-16536460D01*
X16729706Y-16536460D02*
X16720182Y-16526936D01*
X17082087Y-16545984D02*
X17082087Y-16345984D01*
X17167801Y-16545984D02*
X17167801Y-16441222D01*
X17167801Y-16441222D02*
X17158277Y-16422174D01*
X17158277Y-16422174D02*
X17139230Y-16412650D01*
X17139230Y-16412650D02*
X17110658Y-16412650D01*
X17110658Y-16412650D02*
X17091611Y-16422174D01*
X17091611Y-16422174D02*
X17082087Y-16431698D01*
X17291611Y-16545984D02*
X17272563Y-16536460D01*
X17272563Y-16536460D02*
X17263039Y-16526936D01*
X17263039Y-16526936D02*
X17253515Y-16507888D01*
X17253515Y-16507888D02*
X17253515Y-16450746D01*
X17253515Y-16450746D02*
X17263039Y-16431698D01*
X17263039Y-16431698D02*
X17272563Y-16422174D01*
X17272563Y-16422174D02*
X17291611Y-16412650D01*
X17291611Y-16412650D02*
X17320182Y-16412650D01*
X17320182Y-16412650D02*
X17339230Y-16422174D01*
X17339230Y-16422174D02*
X17348753Y-16431698D01*
X17348753Y-16431698D02*
X17358277Y-16450746D01*
X17358277Y-16450746D02*
X17358277Y-16507888D01*
X17358277Y-16507888D02*
X17348753Y-16526936D01*
X17348753Y-16526936D02*
X17339230Y-16536460D01*
X17339230Y-16536460D02*
X17320182Y-16545984D01*
X17320182Y-16545984D02*
X17291611Y-16545984D01*
X17472563Y-16545984D02*
X17453515Y-16536460D01*
X17453515Y-16536460D02*
X17443992Y-16517412D01*
X17443992Y-16517412D02*
X17443992Y-16345984D01*
X17624944Y-16536460D02*
X17605896Y-16545984D01*
X17605896Y-16545984D02*
X17567801Y-16545984D01*
X17567801Y-16545984D02*
X17548753Y-16536460D01*
X17548753Y-16536460D02*
X17539230Y-16517412D01*
X17539230Y-16517412D02*
X17539230Y-16441222D01*
X17539230Y-16441222D02*
X17548753Y-16422174D01*
X17548753Y-16422174D02*
X17567801Y-16412650D01*
X17567801Y-16412650D02*
X17605896Y-16412650D01*
X17605896Y-16412650D02*
X17624944Y-16422174D01*
X17624944Y-16422174D02*
X17634468Y-16441222D01*
X17634468Y-16441222D02*
X17634468Y-16460269D01*
X17634468Y-16460269D02*
X17539230Y-16479317D01*
X17710658Y-16536460D02*
X17729706Y-16545984D01*
X17729706Y-16545984D02*
X17767801Y-16545984D01*
X17767801Y-16545984D02*
X17786849Y-16536460D01*
X17786849Y-16536460D02*
X17796373Y-16517412D01*
X17796373Y-16517412D02*
X17796373Y-16507888D01*
X17796373Y-16507888D02*
X17786849Y-16488841D01*
X17786849Y-16488841D02*
X17767801Y-16479317D01*
X17767801Y-16479317D02*
X17739230Y-16479317D01*
X17739230Y-16479317D02*
X17720182Y-16469793D01*
X17720182Y-16469793D02*
X17710658Y-16450746D01*
X17710658Y-16450746D02*
X17710658Y-16441222D01*
X17710658Y-16441222D02*
X17720182Y-16422174D01*
X17720182Y-16422174D02*
X17739230Y-16412650D01*
X17739230Y-16412650D02*
X17767801Y-16412650D01*
X17767801Y-16412650D02*
X17786849Y-16422174D01*
X17863039Y-16622174D02*
X17872563Y-16612650D01*
X17872563Y-16612650D02*
X17891611Y-16584079D01*
X17891611Y-16584079D02*
X17901134Y-16565031D01*
X17901134Y-16565031D02*
X17910658Y-16536460D01*
X17910658Y-16536460D02*
X17920182Y-16488841D01*
X17920182Y-16488841D02*
X17920182Y-16450746D01*
X17920182Y-16450746D02*
X17910658Y-16403127D01*
X17910658Y-16403127D02*
X17901134Y-16374555D01*
X17901134Y-16374555D02*
X17891611Y-16355508D01*
X17891611Y-16355508D02*
X17872563Y-16326936D01*
X17872563Y-16326936D02*
X17863039Y-16317412D01*
X12797500Y-16818500D02*
X12897500Y-16718500D01*
X12797500Y-16618500D01*
X12697500Y-16718500D01*
X12797500Y-16818500D01*
X13148753Y-16629031D02*
X13158277Y-16619508D01*
X13158277Y-16619508D02*
X13177324Y-16609984D01*
X13177324Y-16609984D02*
X13224943Y-16609984D01*
X13224943Y-16609984D02*
X13243991Y-16619508D01*
X13243991Y-16619508D02*
X13253515Y-16629031D01*
X13253515Y-16629031D02*
X13263039Y-16648079D01*
X13263039Y-16648079D02*
X13263039Y-16667127D01*
X13263039Y-16667127D02*
X13253515Y-16695698D01*
X13253515Y-16695698D02*
X13139229Y-16809984D01*
X13139229Y-16809984D02*
X13263039Y-16809984D01*
X13348753Y-16790936D02*
X13358277Y-16800460D01*
X13358277Y-16800460D02*
X13348753Y-16809984D01*
X13348753Y-16809984D02*
X13339229Y-16800460D01*
X13339229Y-16800460D02*
X13348753Y-16790936D01*
X13348753Y-16790936D02*
X13348753Y-16809984D01*
X13548753Y-16809984D02*
X13434467Y-16809984D01*
X13491610Y-16809984D02*
X13491610Y-16609984D01*
X13491610Y-16609984D02*
X13472562Y-16638555D01*
X13472562Y-16638555D02*
X13453515Y-16657603D01*
X13453515Y-16657603D02*
X13434467Y-16667127D01*
X13672562Y-16609984D02*
X13691610Y-16609984D01*
X13691610Y-16609984D02*
X13710658Y-16619508D01*
X13710658Y-16619508D02*
X13720182Y-16629031D01*
X13720182Y-16629031D02*
X13729705Y-16648079D01*
X13729705Y-16648079D02*
X13739229Y-16686174D01*
X13739229Y-16686174D02*
X13739229Y-16733793D01*
X13739229Y-16733793D02*
X13729705Y-16771888D01*
X13729705Y-16771888D02*
X13720182Y-16790936D01*
X13720182Y-16790936D02*
X13710658Y-16800460D01*
X13710658Y-16800460D02*
X13691610Y-16809984D01*
X13691610Y-16809984D02*
X13672562Y-16809984D01*
X13672562Y-16809984D02*
X13653515Y-16800460D01*
X13653515Y-16800460D02*
X13643991Y-16790936D01*
X13643991Y-16790936D02*
X13634467Y-16771888D01*
X13634467Y-16771888D02*
X13624943Y-16733793D01*
X13624943Y-16733793D02*
X13624943Y-16686174D01*
X13624943Y-16686174D02*
X13634467Y-16648079D01*
X13634467Y-16648079D02*
X13643991Y-16629031D01*
X13643991Y-16629031D02*
X13653515Y-16619508D01*
X13653515Y-16619508D02*
X13672562Y-16609984D01*
X13863039Y-16609984D02*
X13882086Y-16609984D01*
X13882086Y-16609984D02*
X13901134Y-16619508D01*
X13901134Y-16619508D02*
X13910658Y-16629031D01*
X13910658Y-16629031D02*
X13920182Y-16648079D01*
X13920182Y-16648079D02*
X13929705Y-16686174D01*
X13929705Y-16686174D02*
X13929705Y-16733793D01*
X13929705Y-16733793D02*
X13920182Y-16771888D01*
X13920182Y-16771888D02*
X13910658Y-16790936D01*
X13910658Y-16790936D02*
X13901134Y-16800460D01*
X13901134Y-16800460D02*
X13882086Y-16809984D01*
X13882086Y-16809984D02*
X13863039Y-16809984D01*
X13863039Y-16809984D02*
X13843991Y-16800460D01*
X13843991Y-16800460D02*
X13834467Y-16790936D01*
X13834467Y-16790936D02*
X13824943Y-16771888D01*
X13824943Y-16771888D02*
X13815420Y-16733793D01*
X13815420Y-16733793D02*
X13815420Y-16686174D01*
X13815420Y-16686174D02*
X13824943Y-16648079D01*
X13824943Y-16648079D02*
X13834467Y-16629031D01*
X13834467Y-16629031D02*
X13843991Y-16619508D01*
X13843991Y-16619508D02*
X13863039Y-16609984D01*
X14015420Y-16809984D02*
X14015420Y-16676650D01*
X14015420Y-16695698D02*
X14024943Y-16686174D01*
X14024943Y-16686174D02*
X14043991Y-16676650D01*
X14043991Y-16676650D02*
X14072563Y-16676650D01*
X14072563Y-16676650D02*
X14091610Y-16686174D01*
X14091610Y-16686174D02*
X14101134Y-16705222D01*
X14101134Y-16705222D02*
X14101134Y-16809984D01*
X14101134Y-16705222D02*
X14110658Y-16686174D01*
X14110658Y-16686174D02*
X14129705Y-16676650D01*
X14129705Y-16676650D02*
X14158277Y-16676650D01*
X14158277Y-16676650D02*
X14177324Y-16686174D01*
X14177324Y-16686174D02*
X14186848Y-16705222D01*
X14186848Y-16705222D02*
X14186848Y-16809984D01*
X14282086Y-16809984D02*
X14282086Y-16676650D01*
X14282086Y-16695698D02*
X14291610Y-16686174D01*
X14291610Y-16686174D02*
X14310658Y-16676650D01*
X14310658Y-16676650D02*
X14339229Y-16676650D01*
X14339229Y-16676650D02*
X14358277Y-16686174D01*
X14358277Y-16686174D02*
X14367801Y-16705222D01*
X14367801Y-16705222D02*
X14367801Y-16809984D01*
X14367801Y-16705222D02*
X14377324Y-16686174D01*
X14377324Y-16686174D02*
X14396372Y-16676650D01*
X14396372Y-16676650D02*
X14424943Y-16676650D01*
X14424943Y-16676650D02*
X14443991Y-16686174D01*
X14443991Y-16686174D02*
X14453515Y-16705222D01*
X14453515Y-16705222D02*
X14453515Y-16809984D01*
X14843991Y-16600460D02*
X14672563Y-16857603D01*
X15101134Y-16609984D02*
X15120182Y-16609984D01*
X15120182Y-16609984D02*
X15139229Y-16619508D01*
X15139229Y-16619508D02*
X15148753Y-16629031D01*
X15148753Y-16629031D02*
X15158277Y-16648079D01*
X15158277Y-16648079D02*
X15167801Y-16686174D01*
X15167801Y-16686174D02*
X15167801Y-16733793D01*
X15167801Y-16733793D02*
X15158277Y-16771888D01*
X15158277Y-16771888D02*
X15148753Y-16790936D01*
X15148753Y-16790936D02*
X15139229Y-16800460D01*
X15139229Y-16800460D02*
X15120182Y-16809984D01*
X15120182Y-16809984D02*
X15101134Y-16809984D01*
X15101134Y-16809984D02*
X15082086Y-16800460D01*
X15082086Y-16800460D02*
X15072563Y-16790936D01*
X15072563Y-16790936D02*
X15063039Y-16771888D01*
X15063039Y-16771888D02*
X15053515Y-16733793D01*
X15053515Y-16733793D02*
X15053515Y-16686174D01*
X15053515Y-16686174D02*
X15063039Y-16648079D01*
X15063039Y-16648079D02*
X15072563Y-16629031D01*
X15072563Y-16629031D02*
X15082086Y-16619508D01*
X15082086Y-16619508D02*
X15101134Y-16609984D01*
X15253515Y-16790936D02*
X15263039Y-16800460D01*
X15263039Y-16800460D02*
X15253515Y-16809984D01*
X15253515Y-16809984D02*
X15243991Y-16800460D01*
X15243991Y-16800460D02*
X15253515Y-16790936D01*
X15253515Y-16790936D02*
X15253515Y-16809984D01*
X15386848Y-16609984D02*
X15405896Y-16609984D01*
X15405896Y-16609984D02*
X15424944Y-16619508D01*
X15424944Y-16619508D02*
X15434467Y-16629031D01*
X15434467Y-16629031D02*
X15443991Y-16648079D01*
X15443991Y-16648079D02*
X15453515Y-16686174D01*
X15453515Y-16686174D02*
X15453515Y-16733793D01*
X15453515Y-16733793D02*
X15443991Y-16771888D01*
X15443991Y-16771888D02*
X15434467Y-16790936D01*
X15434467Y-16790936D02*
X15424944Y-16800460D01*
X15424944Y-16800460D02*
X15405896Y-16809984D01*
X15405896Y-16809984D02*
X15386848Y-16809984D01*
X15386848Y-16809984D02*
X15367801Y-16800460D01*
X15367801Y-16800460D02*
X15358277Y-16790936D01*
X15358277Y-16790936D02*
X15348753Y-16771888D01*
X15348753Y-16771888D02*
X15339229Y-16733793D01*
X15339229Y-16733793D02*
X15339229Y-16686174D01*
X15339229Y-16686174D02*
X15348753Y-16648079D01*
X15348753Y-16648079D02*
X15358277Y-16629031D01*
X15358277Y-16629031D02*
X15367801Y-16619508D01*
X15367801Y-16619508D02*
X15386848Y-16609984D01*
X15567801Y-16695698D02*
X15548753Y-16686174D01*
X15548753Y-16686174D02*
X15539229Y-16676650D01*
X15539229Y-16676650D02*
X15529706Y-16657603D01*
X15529706Y-16657603D02*
X15529706Y-16648079D01*
X15529706Y-16648079D02*
X15539229Y-16629031D01*
X15539229Y-16629031D02*
X15548753Y-16619508D01*
X15548753Y-16619508D02*
X15567801Y-16609984D01*
X15567801Y-16609984D02*
X15605896Y-16609984D01*
X15605896Y-16609984D02*
X15624944Y-16619508D01*
X15624944Y-16619508D02*
X15634467Y-16629031D01*
X15634467Y-16629031D02*
X15643991Y-16648079D01*
X15643991Y-16648079D02*
X15643991Y-16657603D01*
X15643991Y-16657603D02*
X15634467Y-16676650D01*
X15634467Y-16676650D02*
X15624944Y-16686174D01*
X15624944Y-16686174D02*
X15605896Y-16695698D01*
X15605896Y-16695698D02*
X15567801Y-16695698D01*
X15567801Y-16695698D02*
X15548753Y-16705222D01*
X15548753Y-16705222D02*
X15539229Y-16714746D01*
X15539229Y-16714746D02*
X15529706Y-16733793D01*
X15529706Y-16733793D02*
X15529706Y-16771888D01*
X15529706Y-16771888D02*
X15539229Y-16790936D01*
X15539229Y-16790936D02*
X15548753Y-16800460D01*
X15548753Y-16800460D02*
X15567801Y-16809984D01*
X15567801Y-16809984D02*
X15605896Y-16809984D01*
X15605896Y-16809984D02*
X15624944Y-16800460D01*
X15624944Y-16800460D02*
X15634467Y-16790936D01*
X15634467Y-16790936D02*
X15643991Y-16771888D01*
X15643991Y-16771888D02*
X15643991Y-16733793D01*
X15643991Y-16733793D02*
X15634467Y-16714746D01*
X15634467Y-16714746D02*
X15624944Y-16705222D01*
X15624944Y-16705222D02*
X15605896Y-16695698D01*
X15720182Y-16629031D02*
X15729706Y-16619508D01*
X15729706Y-16619508D02*
X15748753Y-16609984D01*
X15748753Y-16609984D02*
X15796372Y-16609984D01*
X15796372Y-16609984D02*
X15815420Y-16619508D01*
X15815420Y-16619508D02*
X15824944Y-16629031D01*
X15824944Y-16629031D02*
X15834467Y-16648079D01*
X15834467Y-16648079D02*
X15834467Y-16667127D01*
X15834467Y-16667127D02*
X15824944Y-16695698D01*
X15824944Y-16695698D02*
X15710658Y-16809984D01*
X15710658Y-16809984D02*
X15834467Y-16809984D01*
X15901134Y-16609984D02*
X16034467Y-16609984D01*
X16034467Y-16609984D02*
X15948753Y-16809984D01*
X16101134Y-16609984D02*
X16101134Y-16648079D01*
X16177325Y-16609984D02*
X16177325Y-16648079D01*
X16472563Y-16886174D02*
X16463039Y-16876650D01*
X16463039Y-16876650D02*
X16443991Y-16848079D01*
X16443991Y-16848079D02*
X16434468Y-16829031D01*
X16434468Y-16829031D02*
X16424944Y-16800460D01*
X16424944Y-16800460D02*
X16415420Y-16752841D01*
X16415420Y-16752841D02*
X16415420Y-16714746D01*
X16415420Y-16714746D02*
X16424944Y-16667127D01*
X16424944Y-16667127D02*
X16434468Y-16638555D01*
X16434468Y-16638555D02*
X16443991Y-16619508D01*
X16443991Y-16619508D02*
X16463039Y-16590936D01*
X16463039Y-16590936D02*
X16472563Y-16581412D01*
X16586848Y-16609984D02*
X16605896Y-16609984D01*
X16605896Y-16609984D02*
X16624944Y-16619508D01*
X16624944Y-16619508D02*
X16634468Y-16629031D01*
X16634468Y-16629031D02*
X16643991Y-16648079D01*
X16643991Y-16648079D02*
X16653515Y-16686174D01*
X16653515Y-16686174D02*
X16653515Y-16733793D01*
X16653515Y-16733793D02*
X16643991Y-16771888D01*
X16643991Y-16771888D02*
X16634468Y-16790936D01*
X16634468Y-16790936D02*
X16624944Y-16800460D01*
X16624944Y-16800460D02*
X16605896Y-16809984D01*
X16605896Y-16809984D02*
X16586848Y-16809984D01*
X16586848Y-16809984D02*
X16567801Y-16800460D01*
X16567801Y-16800460D02*
X16558277Y-16790936D01*
X16558277Y-16790936D02*
X16548753Y-16771888D01*
X16548753Y-16771888D02*
X16539229Y-16733793D01*
X16539229Y-16733793D02*
X16539229Y-16686174D01*
X16539229Y-16686174D02*
X16548753Y-16648079D01*
X16548753Y-16648079D02*
X16558277Y-16629031D01*
X16558277Y-16629031D02*
X16567801Y-16619508D01*
X16567801Y-16619508D02*
X16586848Y-16609984D01*
X16891611Y-16809984D02*
X16891611Y-16609984D01*
X16977325Y-16809984D02*
X16977325Y-16705222D01*
X16977325Y-16705222D02*
X16967801Y-16686174D01*
X16967801Y-16686174D02*
X16948753Y-16676650D01*
X16948753Y-16676650D02*
X16920182Y-16676650D01*
X16920182Y-16676650D02*
X16901134Y-16686174D01*
X16901134Y-16686174D02*
X16891611Y-16695698D01*
X17101134Y-16809984D02*
X17082087Y-16800460D01*
X17082087Y-16800460D02*
X17072563Y-16790936D01*
X17072563Y-16790936D02*
X17063039Y-16771888D01*
X17063039Y-16771888D02*
X17063039Y-16714746D01*
X17063039Y-16714746D02*
X17072563Y-16695698D01*
X17072563Y-16695698D02*
X17082087Y-16686174D01*
X17082087Y-16686174D02*
X17101134Y-16676650D01*
X17101134Y-16676650D02*
X17129706Y-16676650D01*
X17129706Y-16676650D02*
X17148753Y-16686174D01*
X17148753Y-16686174D02*
X17158277Y-16695698D01*
X17158277Y-16695698D02*
X17167801Y-16714746D01*
X17167801Y-16714746D02*
X17167801Y-16771888D01*
X17167801Y-16771888D02*
X17158277Y-16790936D01*
X17158277Y-16790936D02*
X17148753Y-16800460D01*
X17148753Y-16800460D02*
X17129706Y-16809984D01*
X17129706Y-16809984D02*
X17101134Y-16809984D01*
X17282087Y-16809984D02*
X17263039Y-16800460D01*
X17263039Y-16800460D02*
X17253515Y-16781412D01*
X17253515Y-16781412D02*
X17253515Y-16609984D01*
X17434468Y-16800460D02*
X17415420Y-16809984D01*
X17415420Y-16809984D02*
X17377325Y-16809984D01*
X17377325Y-16809984D02*
X17358277Y-16800460D01*
X17358277Y-16800460D02*
X17348753Y-16781412D01*
X17348753Y-16781412D02*
X17348753Y-16705222D01*
X17348753Y-16705222D02*
X17358277Y-16686174D01*
X17358277Y-16686174D02*
X17377325Y-16676650D01*
X17377325Y-16676650D02*
X17415420Y-16676650D01*
X17415420Y-16676650D02*
X17434468Y-16686174D01*
X17434468Y-16686174D02*
X17443992Y-16705222D01*
X17443992Y-16705222D02*
X17443992Y-16724269D01*
X17443992Y-16724269D02*
X17348753Y-16743317D01*
X17520182Y-16800460D02*
X17539230Y-16809984D01*
X17539230Y-16809984D02*
X17577325Y-16809984D01*
X17577325Y-16809984D02*
X17596373Y-16800460D01*
X17596373Y-16800460D02*
X17605896Y-16781412D01*
X17605896Y-16781412D02*
X17605896Y-16771888D01*
X17605896Y-16771888D02*
X17596373Y-16752841D01*
X17596373Y-16752841D02*
X17577325Y-16743317D01*
X17577325Y-16743317D02*
X17548753Y-16743317D01*
X17548753Y-16743317D02*
X17529706Y-16733793D01*
X17529706Y-16733793D02*
X17520182Y-16714746D01*
X17520182Y-16714746D02*
X17520182Y-16705222D01*
X17520182Y-16705222D02*
X17529706Y-16686174D01*
X17529706Y-16686174D02*
X17548753Y-16676650D01*
X17548753Y-16676650D02*
X17577325Y-16676650D01*
X17577325Y-16676650D02*
X17596373Y-16686174D01*
X17843992Y-16733793D02*
X17996373Y-16733793D01*
X17920182Y-16809984D02*
X17920182Y-16657603D01*
X18234468Y-16629031D02*
X18243992Y-16619508D01*
X18243992Y-16619508D02*
X18263039Y-16609984D01*
X18263039Y-16609984D02*
X18310658Y-16609984D01*
X18310658Y-16609984D02*
X18329706Y-16619508D01*
X18329706Y-16619508D02*
X18339230Y-16629031D01*
X18339230Y-16629031D02*
X18348754Y-16648079D01*
X18348754Y-16648079D02*
X18348754Y-16667127D01*
X18348754Y-16667127D02*
X18339230Y-16695698D01*
X18339230Y-16695698D02*
X18224944Y-16809984D01*
X18224944Y-16809984D02*
X18348754Y-16809984D01*
X18577325Y-16800460D02*
X18596373Y-16809984D01*
X18596373Y-16809984D02*
X18634468Y-16809984D01*
X18634468Y-16809984D02*
X18653516Y-16800460D01*
X18653516Y-16800460D02*
X18663039Y-16781412D01*
X18663039Y-16781412D02*
X18663039Y-16771888D01*
X18663039Y-16771888D02*
X18653516Y-16752841D01*
X18653516Y-16752841D02*
X18634468Y-16743317D01*
X18634468Y-16743317D02*
X18605896Y-16743317D01*
X18605896Y-16743317D02*
X18586849Y-16733793D01*
X18586849Y-16733793D02*
X18577325Y-16714746D01*
X18577325Y-16714746D02*
X18577325Y-16705222D01*
X18577325Y-16705222D02*
X18586849Y-16686174D01*
X18586849Y-16686174D02*
X18605896Y-16676650D01*
X18605896Y-16676650D02*
X18634468Y-16676650D01*
X18634468Y-16676650D02*
X18653516Y-16686174D01*
X18777325Y-16809984D02*
X18758277Y-16800460D01*
X18758277Y-16800460D02*
X18748754Y-16781412D01*
X18748754Y-16781412D02*
X18748754Y-16609984D01*
X18882087Y-16809984D02*
X18863039Y-16800460D01*
X18863039Y-16800460D02*
X18853516Y-16790936D01*
X18853516Y-16790936D02*
X18843992Y-16771888D01*
X18843992Y-16771888D02*
X18843992Y-16714746D01*
X18843992Y-16714746D02*
X18853516Y-16695698D01*
X18853516Y-16695698D02*
X18863039Y-16686174D01*
X18863039Y-16686174D02*
X18882087Y-16676650D01*
X18882087Y-16676650D02*
X18910658Y-16676650D01*
X18910658Y-16676650D02*
X18929706Y-16686174D01*
X18929706Y-16686174D02*
X18939230Y-16695698D01*
X18939230Y-16695698D02*
X18948754Y-16714746D01*
X18948754Y-16714746D02*
X18948754Y-16771888D01*
X18948754Y-16771888D02*
X18939230Y-16790936D01*
X18939230Y-16790936D02*
X18929706Y-16800460D01*
X18929706Y-16800460D02*
X18910658Y-16809984D01*
X18910658Y-16809984D02*
X18882087Y-16809984D01*
X19005897Y-16676650D02*
X19082087Y-16676650D01*
X19034468Y-16609984D02*
X19034468Y-16781412D01*
X19034468Y-16781412D02*
X19043992Y-16800460D01*
X19043992Y-16800460D02*
X19063039Y-16809984D01*
X19063039Y-16809984D02*
X19082087Y-16809984D01*
X19139230Y-16800460D02*
X19158277Y-16809984D01*
X19158277Y-16809984D02*
X19196373Y-16809984D01*
X19196373Y-16809984D02*
X19215420Y-16800460D01*
X19215420Y-16800460D02*
X19224944Y-16781412D01*
X19224944Y-16781412D02*
X19224944Y-16771888D01*
X19224944Y-16771888D02*
X19215420Y-16752841D01*
X19215420Y-16752841D02*
X19196373Y-16743317D01*
X19196373Y-16743317D02*
X19167801Y-16743317D01*
X19167801Y-16743317D02*
X19148754Y-16733793D01*
X19148754Y-16733793D02*
X19139230Y-16714746D01*
X19139230Y-16714746D02*
X19139230Y-16705222D01*
X19139230Y-16705222D02*
X19148754Y-16686174D01*
X19148754Y-16686174D02*
X19167801Y-16676650D01*
X19167801Y-16676650D02*
X19196373Y-16676650D01*
X19196373Y-16676650D02*
X19215420Y-16686174D01*
X19291611Y-16886174D02*
X19301135Y-16876650D01*
X19301135Y-16876650D02*
X19320182Y-16848079D01*
X19320182Y-16848079D02*
X19329706Y-16829031D01*
X19329706Y-16829031D02*
X19339230Y-16800460D01*
X19339230Y-16800460D02*
X19348754Y-16752841D01*
X19348754Y-16752841D02*
X19348754Y-16714746D01*
X19348754Y-16714746D02*
X19339230Y-16667127D01*
X19339230Y-16667127D02*
X19329706Y-16638555D01*
X19329706Y-16638555D02*
X19320182Y-16619508D01*
X19320182Y-16619508D02*
X19301135Y-16590936D01*
X19301135Y-16590936D02*
X19291611Y-16581412D01*
M02*
